<svg width="84" height="74" viewBox="0 0 84 74" fill="none" xmlns="http://www.w3.org/2000/svg">
<path fill-rule="evenodd" clip-rule="evenodd" d="M42.5486 55.7319C39.3324 58.0235 35.7695 58.9284 31.8795 58.1058C27.9896 57.2831 25.1359 54.9935 23.1518 51.6598C22.8911 51.7302 22.635 51.8035 22.3811 51.8761L22.38 51.8764L22.3793 51.8766L22.3788 51.8768L22.3784 51.8769L22.3784 51.8769L22.3784 51.8769L22.3783 51.8769C21.8492 52.0283 21.3302 52.1768 20.8013 52.2905C19.5658 52.5433 18.2909 52.5312 17.0604 52.2552C14.9615 51.8153 13.0717 50.6817 11.6954 49.0371C10.8096 47.9881 10.1478 46.769 9.75051 45.4547C9.72717 45.3859 9.69033 45.3224 9.64225 45.268C9.59417 45.2135 9.53586 45.1691 9.47048 45.1374C7.68863 44.4746 6.05411 43.4684 4.65987 42.1759C2.41051 40.126 0.879345 37.4076 0.292064 34.4215C0.0972782 33.5086 -0.000591069 32.5776 0.000175476 31.6441C-0.0113886 29.3083 0.548774 27.0052 1.63177 24.9356C2.34437 23.5621 3.26987 22.3101 4.37391 21.2259C5.32605 20.2779 6.41477 19.4777 7.60381 18.852C7.77708 18.7741 7.92717 18.6527 8.03973 18.4996C8.15229 18.3466 8.22355 18.167 8.24631 17.9784C8.66577 15.7422 9.66232 13.6545 11.1373 11.9222C12.8533 9.82543 15.2277 8.37036 17.875 7.79332C18.5901 7.66312 19.3133 7.58198 20.0395 7.55045C20.1484 7.55305 20.2561 7.52822 20.353 7.47825C20.4498 7.42828 20.5326 7.35477 20.5936 7.26448C22.3447 4.91407 24.6364 3.38826 27.5274 2.86725C28.5344 2.70267 29.5568 2.65143 30.5752 2.71448C31.67 2.76119 32.7485 2.99572 33.7638 3.40784C33.8591 3.4522 33.9653 3.4682 34.0695 3.45397C34.1736 3.43973 34.2715 3.39585 34.3514 3.32754C36.5412 1.78607 39.0072 0.945794 41.6142 0.438498C46.4583 -0.457217 51.4566 0.0253018 56.0399 1.83111C58.3903 2.7889 60.5448 4.05813 62.2606 5.94433C62.7449 6.4769 63.1502 7.08385 63.5543 7.68908L63.5543 7.68911C63.6748 7.86961 63.7952 8.04996 63.9176 8.22814C63.9707 8.3184 64.0443 8.39488 64.1324 8.45137C64.2206 8.50786 64.3207 8.54278 64.4249 8.55329C66.6233 8.83557 68.7541 9.50607 70.7181 10.5335C72.0082 11.1805 73.2135 11.9844 74.3064 12.927C75.1491 13.6979 75.9501 14.5132 76.7058 15.3695C77.6403 16.4274 78.4306 17.6043 79.0562 18.8696C79.9082 20.5177 80.519 22.2795 80.8699 24.1012C81.1846 25.6299 81.2966 27.1933 81.2029 28.7511C81.1489 29.5511 81.0189 30.3469 80.8889 31.1428L80.8888 31.143L80.8887 31.1436C80.8208 31.5596 80.7528 31.9756 80.6957 32.3923C80.6766 32.5309 80.7124 32.6715 80.7955 32.7841C82.1958 34.3185 83.1791 36.1866 83.6513 38.2096C83.9806 39.6217 84.047 41.0825 83.8472 42.5187C83.5702 44.5498 82.7804 46.4768 81.5522 48.118C80.324 49.7591 78.6979 51.0603 76.8273 51.8988C76.7199 51.9401 76.6269 52.0121 76.5601 52.1057C76.4932 52.1994 76.4554 52.3106 76.4512 52.4256C76.1281 55.1678 75.0272 57.5965 73.378 59.7726C72.0892 61.4747 70.5086 62.8536 68.497 63.6724C67.4927 64.0935 66.4129 64.3048 65.3239 64.2933C65.2313 64.2813 65.1374 64.2987 65.0552 64.343C64.9729 64.3872 64.9066 64.4562 64.8656 64.5401C64.2565 65.586 64.1193 66.6221 64.6697 67.766C65.8449 70.2202 64.2566 73.0681 61.6202 73.5069C59.8731 73.7967 58.0162 72.7332 57.2484 71.1192C56.6899 69.9755 56.0578 68.8691 55.3563 67.8071C54.4259 66.3597 53.8833 64.8221 53.9362 63.0906C53.9364 63.0252 53.9331 62.9598 53.9265 62.8948C48.8946 62.4266 44.9852 60.2838 42.5486 55.7319ZM73.7913 48.3379C73.7583 48.351 73.7294 48.3616 73.7033 48.3713L73.6719 48.3829L73.6549 48.3894C73.6341 48.3974 73.6147 48.4054 73.5955 48.4143C72.437 48.9794 71.1629 49.2671 69.874 49.2546C68.2282 49.2458 66.6248 48.7317 65.2809 47.7816C65.1085 47.669 64.9714 47.5099 64.8855 47.3228C64.7996 47.1357 64.7683 46.9281 64.7952 46.7239C64.9441 45.5742 66.0976 45.4097 66.7204 45.8445C67.3197 46.2703 67.9978 46.5728 68.715 46.7342C69.4323 46.8956 70.1743 46.9127 70.8983 46.7847C72.0719 46.5981 73.1563 46.044 73.9951 45.2021C74.8338 44.3602 75.3837 43.2739 75.5658 42.0995C75.7206 41.0262 76.788 40.799 77.4912 41.2534C77.8829 41.51 78.0573 42.076 77.9398 42.644C77.6559 44.1254 76.9794 45.5033 75.9811 46.6338C75.9525 46.678 75.933 46.7275 75.9239 46.7793C75.9148 46.8311 75.9164 46.8842 75.9283 46.9355L76.0255 47.3301L76.0269 47.3356C76.1899 47.9972 76.3529 48.6587 76.5159 49.327H76.5765L76.6041 49.313C76.628 49.3007 76.6518 49.2883 76.6756 49.2759L76.7099 49.2579L76.7871 49.2171L76.788 49.2166L76.7898 49.2156L76.7906 49.2152C76.8446 49.1866 76.898 49.1583 76.9507 49.1312C77.9128 48.559 78.7592 47.8116 79.4461 46.9276C81.3891 44.3814 82.0413 41.5491 81.2089 38.4329C80.6808 36.3965 79.4754 34.6006 77.7909 33.3403C76.615 32.4447 75.255 31.8212 73.8089 31.5148C73.2723 31.3973 72.8296 30.7451 72.904 30.2515C73.0196 29.5894 73.6386 29.0254 74.1909 29.1566C74.9537 29.3303 75.7037 29.5561 76.4356 29.8323C76.927 30.024 77.3989 30.2679 77.8884 30.5208L77.8886 30.5209L77.8887 30.521C78.1093 30.6349 78.3335 30.7508 78.5647 30.8645C79.4245 25.3391 78.0671 20.4522 74.33 16.3038C71.8876 13.574 68.6036 11.7382 64.9989 11.0878V12.6234C64.9971 12.9073 64.8925 13.1809 64.7045 13.3937C64.5166 13.6065 64.2579 13.7441 63.9764 13.781C63.4495 13.8515 62.8013 13.4774 62.6975 12.9603C62.6504 12.7324 62.6448 12.4963 62.6392 12.2601C62.6346 12.0638 62.6299 11.8674 62.6015 11.6754C62.4003 10.3746 61.8438 9.1545 60.9934 8.1498C59.7477 6.63183 58.1807 5.53301 56.4414 4.66336C54.8338 3.87009 53.1298 3.28936 51.3724 2.93581C49.7931 2.59777 48.1827 2.42578 46.5677 2.42264C45.9543 2.4157 45.3411 2.44119 44.7305 2.49902L44.4387 2.53038C43.4478 2.63665 42.4526 2.74336 41.477 2.93777C39.283 3.34951 37.2046 4.233 35.3856 5.52713C34.3278 6.27543 33.4565 7.25729 32.8394 8.3966C32.7789 8.50877 32.7282 8.62644 32.6775 8.74415C32.6149 8.88953 32.5523 9.03498 32.4711 9.17026C32.3633 9.3676 32.1968 9.52656 31.9947 9.62515C31.7926 9.72375 31.5649 9.75712 31.343 9.72065C31.1039 9.70085 30.8769 9.60701 30.6936 9.45219C30.5104 9.29738 30.3799 9.08929 30.3204 8.85688C30.2695 8.68511 30.256 8.50438 30.281 8.32696C30.306 8.14954 30.3689 7.97957 30.4654 7.82858C30.79 7.24378 31.1295 6.66798 31.4705 6.08976L31.4705 6.08974L31.4705 6.08972L31.4705 6.0897L31.4705 6.08968L31.4706 6.08967L31.4709 6.08913L31.4709 6.08906L31.471 6.08891C31.6072 5.85788 31.7437 5.62647 31.8795 5.39394C31.755 5.33069 31.6235 5.28205 31.4878 5.249C30.2617 5.06489 29.022 4.97283 27.8095 5.26272C24.4798 6.0599 22.2997 8.14588 21.2009 11.3797C20.8092 12.5059 20.7446 13.6674 20.7661 14.8445C20.7666 15.1453 20.6516 15.4349 20.445 15.6535C20.2384 15.8721 19.9559 16.0032 19.6556 16.0197C19.0523 16.0609 18.4196 15.628 18.402 15.0404C18.3669 14.1761 18.3996 13.3103 18.4999 12.451C18.5734 11.8859 18.7171 11.3302 18.861 10.7735L18.861 10.7735L18.861 10.7734L18.861 10.7734L18.861 10.7733L18.861 10.7733L18.861 10.7732L18.861 10.7732L18.861 10.7731C18.9241 10.5292 18.9872 10.2851 19.0445 10.0399C17.095 10.3159 15.281 11.1962 13.8578 12.5568C12.4114 13.903 11.3637 15.6216 10.8297 17.524C10.9945 17.4946 11.1532 17.4656 11.3076 17.4373C11.678 17.3695 12.0237 17.3063 12.3693 17.2537C13.4955 17.0579 14.6237 16.9482 15.7637 17.1107C16.4688 17.2106 16.882 17.761 16.788 18.4975C16.7311 18.7997 16.5629 19.0697 16.3167 19.2539C16.0704 19.4381 15.764 19.5233 15.458 19.4925C14.4043 19.328 13.3622 19.4651 12.3496 19.6727C9.3959 20.274 6.93193 21.7234 5.04376 24.111C3.57408 25.9339 2.679 28.1522 2.47205 30.4846C2.32505 31.9319 2.45325 33.394 2.85001 34.7937C3.77255 37.9648 5.68811 40.368 8.50664 42.0643C8.68718 42.1736 8.88019 42.2617 9.0671 42.347L9.06726 42.3471L9.06745 42.3472L9.06765 42.3473L9.06784 42.3474L9.06803 42.3475L9.06823 42.3476L9.06842 42.3477C9.15887 42.3889 9.24788 42.4296 9.33334 42.4717L9.40125 41.9971C9.4777 41.4626 9.55074 40.952 9.62504 40.4425C9.74843 39.659 10.4087 39.2535 10.9806 39.3515C11.7641 39.4847 12.1557 40.0958 11.9833 40.8793C11.7358 41.9426 11.7191 43.0466 11.9343 44.117C12.471 46.6926 13.9754 48.4828 16.361 49.5405C17.6557 50.1144 19.0247 50.179 20.3977 49.9557C20.8106 49.8885 21.2106 49.752 21.6147 49.6141L21.6148 49.6141L21.6148 49.6141L21.6149 49.6141L21.6149 49.614L21.615 49.614L21.6151 49.614L21.6151 49.614C21.7995 49.5511 21.9847 49.4879 22.1724 49.4308C22.1354 49.3495 22.1039 49.2657 22.0783 49.1801C22.0162 48.8916 21.9506 48.6035 21.885 48.3151L21.8849 48.3151L21.8849 48.315L21.8849 48.315L21.8849 48.3149L21.8849 48.3149L21.8849 48.3148L21.8849 48.3147C21.7188 47.5853 21.5526 46.8551 21.4417 46.1167C21.3679 45.4832 21.3646 44.8433 21.432 44.209C21.477 43.5999 22.1509 43.0945 22.6837 43.1944C23.426 43.3354 23.8039 43.8094 23.8157 44.5655C23.8157 45.1159 23.8432 45.6702 23.8863 46.2186C23.9993 47.4248 24.3311 48.6002 24.8656 49.6874C25.617 51.2869 26.7373 52.6853 28.1345 53.7673C29.729 55.0392 31.6679 55.8046 33.7012 55.965C35.3276 56.1068 36.9643 55.8625 38.4784 55.252C40.392 54.4823 42.0333 53.3364 43.2712 51.6755C43.787 50.9614 44.2544 50.2135 44.6698 49.4367C44.8304 49.1617 45.0879 48.9565 45.3919 48.8616C45.6959 48.7666 46.0245 48.7887 46.3131 48.9235C46.5898 49.0697 46.7985 49.3182 46.8948 49.616C46.991 49.9138 46.9671 50.2374 46.8282 50.5179C46.7216 50.7587 46.6006 50.9928 46.4659 51.2191C46.1132 51.734 45.7535 52.2433 45.3947 52.7511L45.3946 52.7513L45.3939 52.7523C45.1552 53.0902 44.9169 53.4275 44.6815 53.7654C44.5927 53.8755 44.5511 54.0164 44.566 54.1571C44.7374 54.5998 44.9436 55.0281 45.1828 55.4381C46.2731 57.2169 47.8872 58.6147 49.8035 59.4397C51.1184 60.0298 52.5305 60.3731 53.9695 60.4523C54.183 60.4641 54.2888 60.4151 54.3769 60.1742C54.6014 59.5709 54.8631 58.9822 55.1604 58.4114C55.2311 58.2655 55.3312 58.1359 55.4544 58.0306C55.5776 57.9254 55.7213 57.8467 55.8764 57.7996C56.0314 57.7525 56.1946 57.738 56.3555 57.757C56.5164 57.776 56.6716 57.8281 56.8115 57.9099C57.0881 58.0706 57.2903 58.3338 57.3742 58.6425C57.4582 58.9512 57.4172 59.2805 57.2601 59.5591L57.2343 59.6065L57.2343 59.6065C57.1174 59.8219 57.0001 60.0379 56.9016 60.2623C56.6102 60.9893 56.4295 61.7558 56.3651 62.5363C56.2515 63.5529 56.3337 64.5303 56.7979 65.4332C57.0383 65.9013 57.3207 66.348 57.6035 66.7951L57.6036 66.7953L57.6037 66.7955L57.6038 66.7956L57.6038 66.7956L57.6039 66.7957L57.604 66.7958L57.604 66.7959L57.6041 66.796L57.6041 66.7961C57.8051 67.1139 58.0063 67.432 58.1925 67.7581C58.5099 68.314 58.8126 68.8904 59.1152 69.4667L59.1152 69.4668L59.1153 69.4669L59.1154 69.4671L59.1155 69.4672L59.1156 69.4673L59.1156 69.4675L59.1157 69.4676C59.2405 69.7053 59.3653 69.9429 59.4911 70.1791C59.83 70.8137 60.5977 71.2603 61.152 71.1467C62.4408 70.8842 62.9441 69.6933 62.427 68.6004C61.7963 67.2744 61.6749 65.9111 62.2311 64.5205C62.3123 64.3203 62.3835 64.1152 62.4547 63.9101C62.4831 63.8281 62.5115 63.7462 62.5406 63.6645C62.2684 63.5254 62.0118 63.3981 61.7572 63.2728C61.4921 63.1437 61.2821 62.9241 61.165 62.6535C61.0478 62.383 61.0314 62.0795 61.1187 61.7979C61.1756 61.6288 61.2694 61.4744 61.3934 61.3459C61.5173 61.2174 61.6682 61.1181 61.8352 61.0552C62.0022 60.9922 62.1812 60.9671 62.3591 60.9817C62.537 60.9964 62.7094 61.0504 62.8639 61.1398C64.7716 62.219 66.646 62.0643 68.4911 60.9694C69.4486 60.401 70.3013 59.6722 71.0119 58.8149C72.8668 56.6016 74.0009 54.0984 74.1184 51.176C74.179 50.2181 74.0683 49.2569 73.7913 48.3379ZM38.6547 47.9888C37.4812 47.9679 36.316 47.7867 35.1916 47.4502C35.0352 47.4107 34.8883 47.3406 34.7592 47.2439C34.6301 47.1472 34.5213 47.0258 34.4395 46.8867C34.3577 46.7477 34.3044 46.5938 34.2825 46.434C34.2606 46.2742 34.2707 46.1116 34.3121 45.9557C34.4708 45.28 35.1878 44.9431 35.9145 45.1722C37.038 45.5219 38.2192 45.6477 39.3911 45.5424C41.4013 45.396 43.2744 44.4695 44.6109 42.9609C45.6999 41.7504 46.3443 40.3363 46.7243 38.7752C46.7831 38.5343 46.7106 38.4168 46.4619 38.3835C43.1204 37.9917 40.3703 35.3025 39.6495 32.1392C39.5301 31.6182 39.4401 31.0894 39.3657 30.5605C39.3506 30.3955 39.3681 30.2291 39.4173 30.0709C39.4665 29.9127 39.5466 29.7657 39.6526 29.6384C39.7586 29.5111 39.8886 29.4059 40.0353 29.3288C40.182 29.2518 40.3426 29.2045 40.5076 29.1895C40.8076 29.1703 41.1033 29.2668 41.3343 29.4592C41.5653 29.6516 41.7139 29.9251 41.7494 30.2236C41.861 31.5418 42.2311 32.7699 43.0694 33.8197C43.9611 34.9912 45.273 35.7707 46.7283 35.9939C49.7055 36.4581 52.4085 34.3114 53.0294 31.5085C53.1296 30.9078 53.1807 30.2999 53.1822 29.6909C53.2135 29.0817 53.6051 28.5607 54.1418 28.4608C54.4268 28.3978 54.7252 28.4431 54.9787 28.588C55.2321 28.7328 55.4225 28.9667 55.5129 29.2443C55.5948 29.5059 55.6332 29.7792 55.6265 30.0532C55.5815 31.8474 55.1272 33.5201 54.0714 34.9949C52.9686 36.5813 51.3425 37.7289 49.4783 38.2366C49.4181 38.2549 49.3629 38.2869 49.317 38.33C49.2712 38.3732 49.2357 38.4263 49.2138 38.4853C48.9324 40.4512 48.1575 42.3138 46.9613 43.8991C45.4408 45.9286 43.2138 47.3134 40.7211 47.7792C40.2128 47.8794 39.6902 47.9153 39.169 47.9511H39.1689L39.1687 47.9512C38.997 47.963 38.8255 47.9747 38.6547 47.9888ZM37.6115 14.2682C37.8173 14.3254 38.026 14.3834 38.2394 14.4388L38.2042 14.4898L38.2041 14.4899C38.0983 14.6432 38.0331 14.7377 37.9534 14.8227C36.502 16.9028 35.7675 19.2336 35.603 21.7505C35.6068 22.0946 35.699 22.4319 35.8712 22.7299C36.0631 23.102 36.6724 23.2764 37.1072 23.1588C37.3354 23.0874 37.5386 22.9526 37.6933 22.7703C37.8479 22.5879 37.9476 22.3654 37.9808 22.1286C38.0568 21.3131 38.1803 20.5028 38.3509 19.7018C38.8664 17.465 40.1484 15.4791 41.9744 14.0882C43.427 12.9834 45.1781 12.3406 47.0004 12.2431C47.1591 12.2354 47.3145 12.1955 47.4574 12.126C47.6002 12.0565 47.7275 11.9587 47.8315 11.8386C47.9355 11.7185 48.014 11.5786 48.0624 11.4273C48.1108 11.2759 48.1279 11.1164 48.1129 10.9582C48.1037 10.6626 47.979 10.3824 47.7655 10.1777C47.552 9.97297 47.2669 9.86013 46.9711 9.86335C46.4456 9.87527 45.9217 9.92765 45.4042 10.02C43.4988 10.3593 41.7138 11.1867 40.2235 12.4214C40.1409 12.5028 40.0328 12.5536 39.9174 12.5654C39.802 12.5771 39.6861 12.5491 39.5888 12.486C39.0221 12.2123 38.4322 11.9894 37.826 11.8201C36.6069 11.4748 35.3325 11.3691 34.0732 11.5086C32.9387 11.6376 31.8327 11.9498 30.7983 12.4331C29.2627 13.1527 27.9201 14.2268 26.881 15.567C26.2407 16.325 25.7334 17.1859 25.3806 18.1133C25.2786 18.398 25.2938 18.7115 25.4227 18.9851C25.5515 19.2586 25.7836 19.4699 26.068 19.5725C26.3484 19.6906 26.6637 19.6954 26.9475 19.5858C27.2314 19.4762 27.4618 19.2608 27.59 18.9849C28.1396 17.7837 28.9412 16.7149 29.9404 15.851C30.7933 15.0951 31.7995 14.5326 32.8901 14.2018C33.9627 13.8483 35.1039 13.7544 36.2199 13.9276C36.6845 14.0107 37.1407 14.1375 37.6115 14.2682ZM31.5153 33.9222C32.1029 35.9709 33.2428 37.4615 35.2073 38.2587C35.9305 38.5436 36.7074 38.6666 37.4833 38.6191C37.7969 38.6091 38.1031 38.716 38.3423 38.919C38.5816 39.1221 38.7369 39.4068 38.7781 39.7179C38.805 40.0188 38.7151 40.3185 38.5269 40.5549C38.3387 40.7912 38.0667 40.946 37.7674 40.9871C36.3963 41.183 35.0859 40.8715 33.85 40.2918C31.3037 39.0872 29.7955 37.0365 29.1589 34.3237C29.11 34.1278 29.0454 34.0612 28.8475 34.024C27.4934 33.7853 26.2438 33.1407 25.2643 32.1756C24.2849 31.2105 23.6219 29.9705 23.3632 28.62C23.2474 28.1492 23.2213 27.6608 23.2867 27.1804C23.416 26.4988 23.9586 26.2011 24.6305 26.2951C25.1436 26.3695 25.5745 26.9356 25.6098 27.4546C25.7606 29.474 27.0279 31.1761 29.1081 31.6207C29.6767 31.7468 30.2664 31.7418 30.8328 31.606C31.3992 31.4703 31.9273 31.2074 32.377 30.8372C33.6482 29.8403 34.1633 28.5005 34.1398 26.9199C34.1302 26.7059 34.1793 26.4934 34.2817 26.3053C34.3841 26.1172 34.536 25.9606 34.7209 25.8525C34.9058 25.7444 35.1167 25.6889 35.3309 25.692C35.545 25.6951 35.7542 25.7567 35.9359 25.87C36.1027 25.9549 36.2447 26.0817 36.3477 26.2379C36.4507 26.3942 36.5112 26.5745 36.5235 26.7613C36.6253 28.8727 35.9654 30.7119 34.4709 32.2201C33.745 32.9517 32.8514 33.495 31.8678 33.8027C31.7808 33.8257 31.691 33.8583 31.5812 33.8982L31.5807 33.8984L31.5804 33.8985L31.5802 33.8986L31.5153 33.9222ZM68.4793 18.4464C67.2492 18.7361 66.107 19.3179 65.1495 20.1427C65.0097 19.9692 64.8765 19.7903 64.7441 19.6125L64.744 19.6123L64.7438 19.6121C64.4756 19.252 64.2106 18.8961 63.8999 18.5973C63.3419 18.0524 62.6754 17.6313 61.9437 17.3613C61.2121 17.0913 60.4317 16.9785 59.6536 17.0303C59.475 17.0433 59.3017 17.0964 59.1465 17.1856C58.9913 17.2749 58.8581 17.3979 58.7571 17.5457C58.656 17.6934 58.5896 17.862 58.5627 18.039C58.5358 18.216 58.5492 18.3968 58.6017 18.5679C58.6717 18.8298 58.8318 19.0587 59.0539 19.2142C59.2761 19.3697 59.5459 19.4419 59.816 19.418C60.2825 19.3934 60.7487 19.4714 61.1819 19.6463C61.615 19.8213 62.0046 20.0889 62.3232 20.4306C63.2477 21.3884 63.5259 22.5459 63.2614 23.8367C63.1158 24.5718 62.7323 25.2385 62.1702 25.7341C61.6081 26.2297 60.8986 26.5265 60.1511 26.5789C59.8948 26.5988 59.6515 26.7003 59.4569 26.8684C59.2624 27.0365 59.1267 27.2624 59.0698 27.5131C59.0192 27.7667 59.0507 28.0297 59.1595 28.2642C59.2683 28.4987 59.4488 28.6925 59.675 28.8176C60.2108 29.1086 60.745 28.9673 61.2572 28.8318C61.3105 28.8177 61.3636 28.8037 61.4164 28.7902C62.5851 28.4725 63.6268 27.8007 64.3984 26.8671C65.17 25.9335 65.6336 24.7839 65.7255 23.5762C65.7413 23.3056 65.8269 23.0438 65.9741 22.8162C66.4377 22.1553 67.0557 21.6174 67.7742 21.2493C68.5845 20.8103 69.5064 20.6208 70.4242 20.7048C71.1358 20.7835 71.8206 21.0211 72.428 21.4001C72.9941 21.737 73.7422 21.5705 74.0399 21.0711C74.4081 20.4541 74.2849 19.7215 73.7149 19.367C72.951 18.8649 72.0925 18.5241 71.1922 18.3658C70.2918 18.2075 69.3686 18.235 68.4793 18.4464ZM19.6771 37.087C18.3352 37.0779 17.024 36.6843 15.8988 35.9529C14.9927 35.3861 14.217 34.6338 13.6225 33.7456C13.028 32.8574 12.6283 31.8534 12.4497 30.7996C11.8151 27.3485 13.4466 23.7484 16.8939 22.2285C17.5256 21.9175 18.2173 21.7471 18.9212 21.729C19.5617 21.729 20.0141 22.1717 20.0964 22.8494C20.0984 23.1179 20.0128 23.3797 19.8527 23.5953C19.6926 23.8109 19.4667 23.9684 19.2091 24.0442C18.3355 24.2263 17.5129 24.4966 16.7999 25.0607C15.7363 25.8742 15.0281 27.0672 14.8235 28.3905C14.6859 29.1195 14.7003 29.8692 14.8658 30.5925C15.0312 31.3158 15.3443 31.9971 15.7852 32.5938C16.1669 33.1456 16.6609 33.6105 17.2347 33.9582C17.8085 34.3059 18.4492 34.5284 19.115 34.6112C19.4094 34.6658 19.709 34.6874 20.0082 34.6758C20.8465 34.6014 21.3341 35.3555 21.3282 35.9294C21.3282 36.6012 20.6702 37.1046 20.0101 37.0811C19.8946 37.085 19.7849 37.087 19.6771 37.087ZM44.3799 22.3953C45.5308 23.5232 47.0775 24.156 48.689 24.1581C48.7946 24.1471 48.9003 24.1376 49.0059 24.1281L49.0062 24.1281L49.0065 24.1281C49.2572 24.1056 49.5068 24.0833 49.7506 24.0406C50.5204 23.9265 51.2601 23.6615 51.9273 23.2609C52.5945 22.8602 53.1762 22.3318 53.6386 21.7058C54.9764 19.9587 55.3524 17.9843 54.8334 15.8298C54.659 15.1129 54.0264 14.6879 53.3467 14.872C52.7396 15.0424 52.3223 15.5673 52.4829 16.4135C52.5824 16.9486 52.6185 17.4936 52.5906 18.0372C52.5319 19.2359 51.962 20.1977 51.0356 20.9361C50.6179 21.2772 50.129 21.5204 49.605 21.6479C49.081 21.7753 48.5351 21.7838 48.0074 21.6725C47.2661 21.5327 46.5814 21.1801 46.0369 20.6579C45.8091 20.4333 45.5014 20.3084 45.1815 20.3106C44.8616 20.3128 44.5556 20.442 44.3309 20.6697C44.2163 20.7838 44.1263 20.9201 44.0664 21.0703C44.0065 21.2205 43.9778 21.3814 43.9824 21.5431C43.987 21.7047 44.0246 21.8637 44.093 22.0103C44.1613 22.1569 44.259 22.2879 44.3799 22.3953ZM61.6572 34.7972C61.5221 32.0746 63.7414 29.6223 66.3307 29.1914C66.7048 29.1247 67.0854 29.1017 67.4648 29.1229C68.0152 29.1621 68.4441 29.6889 68.4617 30.257C68.4663 30.5352 68.3719 30.8061 68.1955 31.0213C68.019 31.2365 67.7719 31.3821 67.4981 31.4322C66.6559 31.534 65.8664 31.7358 65.2005 32.3018C64.0605 33.2811 63.6335 34.9088 64.4424 36.2975C64.67 36.7106 64.9801 37.0724 65.3535 37.3605C65.7268 37.6486 66.1554 37.8568 66.6127 37.9722C66.8577 38.0372 67.0753 38.1796 67.2328 38.3784C67.3902 38.5771 67.4791 38.8215 67.4862 39.0749C67.5097 39.5744 67.214 40.1091 66.7263 40.2031C66.3204 40.2766 65.9027 40.249 65.5099 40.1228C63.9763 39.6155 62.8913 38.5794 62.1685 37.1456C61.7886 36.4236 61.6118 35.6118 61.6572 34.7972ZM51.8344 48.5608C52.9267 49.437 54.287 49.9114 55.6873 49.9045C56.0077 49.8919 56.327 49.8586 56.6431 49.8046C58.7036 49.3561 60.1589 48.1534 60.9287 46.1947C61.1235 45.6992 61.2181 45.163 61.3123 44.629C61.3403 44.4707 61.3682 44.3126 61.3986 44.1558C61.5056 43.5285 61.4462 42.8843 61.2263 42.2872C61.0363 41.7192 60.4272 41.5292 59.9493 41.5762C59.6882 41.6197 59.4494 41.7502 59.2716 41.9464C59.0939 42.1427 58.9876 42.3932 58.97 42.6574C58.9598 42.8978 58.9663 43.1386 58.9895 43.3782C59.0665 43.9989 58.9888 44.6289 58.7632 45.2123C58.5377 45.7957 58.1713 46.3141 57.6969 46.7216C57.3838 47.0021 57.0163 47.2151 56.6173 47.3472C56.2183 47.4793 55.7964 47.5277 55.3778 47.4894C54.6357 47.4351 53.9275 47.1572 53.3466 46.6923C53.2212 46.5898 53.0758 46.5144 52.9199 46.4708C52.764 46.4271 52.6007 46.4162 52.4404 46.4386C52.28 46.4611 52.126 46.5164 51.988 46.6012C51.85 46.6859 51.731 46.7983 51.6385 46.9312C51.542 47.0501 51.4705 47.1871 51.4279 47.3342C51.3854 47.4813 51.3729 47.6355 51.3912 47.7875C51.4095 47.9396 51.4581 48.0864 51.5343 48.2192C51.6105 48.3521 51.7124 48.4682 51.8344 48.5608Z" fill="#FF6D63"/>
</svg>
