<svg width="122" height="90" viewBox="0 0 122 90" fill="none" xmlns="http://www.w3.org/2000/svg">
<mask id="path-1-inside-1_131_3584" fill="white">
<path fill-rule="evenodd" clip-rule="evenodd" d="M55.7523 10.0635C56.2322 9.09284 56.7121 8.13843 57.1887 7.19077C57.3468 6.87635 57.5045 6.56268 57.6617 6.2494C57.9503 5.67387 58.2396 5.09882 58.5289 4.52379C59.1529 3.28366 59.7767 2.04364 60.3924 0.799145C60.6433 0.292627 61.0124 0.00980755 61.5796 0.000220463C62.1468 -0.00936663 62.5383 0.294224 62.7972 0.813525C64.2757 3.78339 65.7596 6.7506 67.2488 9.71514C67.2786 9.77461 67.3099 9.83247 67.3463 9.89971L67.3466 9.9003C67.3727 9.94851 67.4014 10.0016 67.4341 10.0635C67.6854 9.95703 67.9359 9.85149 68.1856 9.74627C68.5995 9.5719 69.0113 9.39838 69.4218 9.223C71.7771 8.22168 74.1313 7.21877 76.4844 6.21425C77.3456 5.84835 78.1173 6.2494 78.293 7.15858C78.3192 7.35851 78.2997 7.56178 78.2356 7.75298C77.5219 10.284 76.8029 12.8123 76.0785 15.338C75.4074 17.6964 74.7369 20.0548 74.0668 22.4132C74.0657 22.4493 74.0694 22.4853 74.0779 22.5203C74.2914 22.5203 74.5038 22.5215 74.7157 22.5228H74.716C75.1384 22.5253 75.5586 22.5277 75.981 22.5203C76.2965 22.5143 76.6032 22.6252 76.8419 22.8317C77.0805 23.0382 77.2342 23.3257 77.2736 23.6388C77.3679 24.3099 76.943 24.8643 76.2303 25.0002C76.0305 25.0185 75.8293 25.0185 75.6294 25.0002L47.3475 25.0401C46.5758 25.0401 46.1092 24.7205 45.9399 24.0718C45.7306 23.2729 46.3138 22.5522 47.2102 22.5347C47.621 22.5262 48.0325 22.5289 48.4586 22.5318C48.6771 22.5332 48.8995 22.5347 49.1276 22.5347L49.0107 22.1085C48.8743 21.6113 48.7445 21.1377 48.6099 20.6652L44.9668 7.87122C44.7 6.93488 45.0786 6.2494 45.9798 6.11359C46.243 6.09592 46.5063 6.14714 46.7436 6.26219C49.6272 7.47868 52.5076 8.7037 55.3848 9.93724C55.4903 9.9676 55.5973 10.0028 55.7523 10.0635ZM75.1549 9.49943C75.1082 9.51614 75.0722 9.52869 75.0428 9.53889L75.0427 9.53895C74.9908 9.55699 74.9602 9.56765 74.9296 9.58092L67.4486 12.7766C66.7279 13.085 66.0423 12.8565 65.7036 12.1806C64.7299 10.2344 63.7586 8.28773 62.7892 6.34048C62.5457 5.85436 62.2996 5.37013 62.0477 4.87464L62.0469 4.87299C61.8992 4.58238 61.7495 4.28789 61.5972 3.98685C61.5597 4.05454 61.5259 4.11346 61.4951 4.16735L61.495 4.16751L61.4948 4.16775C61.4457 4.25363 61.4038 4.32676 61.3655 4.40229C60.0776 6.97802 58.7892 9.55375 57.5002 12.1295C57.1343 12.8629 56.5001 13.101 55.7523 12.7846C54.0266 12.0517 52.3009 11.3151 50.5752 10.5748C50.0664 10.3576 49.5564 10.1421 49.0368 9.92265C48.7079 9.7837 48.3751 9.64313 48.0363 9.49943C48.0472 9.55657 48.0558 9.60722 48.0637 9.65335C48.0789 9.74265 48.0913 9.81497 48.1113 9.88451C49.2383 13.8461 50.3664 17.8066 51.4955 21.7661C51.7124 22.5283 51.716 22.5283 52.5084 22.5283H52.5134H71.0773C71.3665 22.5283 71.4895 22.4596 71.5725 22.164C72.2644 19.7084 72.9643 17.2551 73.6643 14.8014C73.9942 13.6452 74.3242 12.4888 74.6532 11.3322C74.781 10.8876 74.9014 10.4403 75.0282 9.96899C75.0696 9.81526 75.1117 9.65899 75.1549 9.49943ZM39.5163 43.7172V43.2379V32.9413C39.5163 31.9826 39.9957 31.4873 40.9736 31.4873H80.0953C80.9789 31.4873 81.5094 32.045 81.5062 32.9094C81.4886 39.0851 81.4966 45.2608 81.5062 51.4444C81.5062 51.5629 81.5127 51.6806 81.5199 51.8098L81.52 51.8104L81.52 51.8112C81.5235 51.8733 81.5271 51.9381 81.5302 52.0069H100.233H119.714C120.513 52.0069 120.992 52.531 120.992 53.2852V55.2761V59.7804C120.992 60.2192 120.999 60.6588 121.005 61.0982C121.011 61.5372 121.018 61.9761 121.018 62.4137V87.7939C121.02 87.9718 121.009 88.1497 120.984 88.326C120.951 88.6259 120.804 88.9018 120.575 89.0975C120.345 89.2932 120.049 89.3938 119.747 89.3789H91.0837C61.2125 89.3789 31.3411 89.3832 1.4699 89.3917C0.546339 89.3917 0 88.8053 0 87.9137C0.0159785 78.0379 0.0196007 68.1617 0.0110788 58.2848C0.0110788 57.2548 0.0158972 56.2245 0.0207164 55.1939C0.0259079 54.0838 0.0311004 52.9734 0.0302717 51.8631V51.8514C0.0302718 49.6103 0.0302719 47.3692 0.0015604 45.1281C-0.00514826 44.9429 0.0264405 44.7583 0.0942481 44.5859C0.162056 44.4134 0.264676 44.2568 0.395717 44.1257C0.526758 43.9947 0.68341 43.8921 0.855879 43.8242C1.02835 43.7564 1.21292 43.7249 1.39812 43.7316C13.9284 43.7519 26.4587 43.7566 38.9891 43.746L39.5163 43.7172ZM42.0345 86.8719H79.0119V34.0087H42.0345V86.8719ZM39.4923 86.8815V46.1731H2.97521C2.47668 46.1731 2.47659 46.1731 2.47979 46.6685C2.48323 47.6904 2.48729 48.7122 2.49135 49.7339V49.734C2.50046 52.0255 2.50956 54.3167 2.51177 56.6087C2.51177 57.5003 2.50417 58.3919 2.49656 59.2835C2.48895 60.1751 2.48135 61.0667 2.48135 61.9583V86.498C2.48135 86.5772 2.48862 86.6563 2.49635 86.7406C2.50064 86.7873 2.50508 86.8356 2.5085 86.8863L39.4923 86.8815ZM118.512 86.8895V54.4532H81.5285V86.8895H118.512ZM59.8208 47.6985C59.9894 47.5952 60.1622 47.4894 60.3427 47.3831L60.3475 47.6691C60.35 48.3103 60.353 48.9515 60.3561 49.5927C60.3629 51.0431 60.3698 52.4935 60.3698 53.9439C60.3698 54.7724 60.365 55.6008 60.3602 56.4293C60.3554 57.2578 60.3506 58.0863 60.3506 58.9148C60.3522 59.5859 60.8812 60.1659 61.4996 60.1659C62.2122 60.1675 62.7891 59.7217 62.8083 59.0634C62.82 58.5713 62.8161 58.0799 62.8122 57.5883C62.8102 57.3424 62.8083 57.0965 62.8083 56.8504C62.8113 56.3219 62.8162 55.7934 62.8211 55.2649C62.829 54.4048 62.837 53.5448 62.837 52.6848V44.7626C62.837 44.3104 62.7523 43.9094 62.3576 43.6218C62.0953 43.4137 61.7639 43.3127 61.4301 43.3391C61.0963 43.3654 60.7849 43.5173 60.5585 43.764C59.6381 44.6811 58.705 45.5759 57.5226 46.1735C57.3009 46.2912 57.1232 46.4774 57.0161 46.7043C56.9089 46.9313 56.8781 47.1867 56.9281 47.4326C57.139 48.3179 57.922 48.7173 58.7369 48.3179C59.1031 48.138 59.452 47.9243 59.8208 47.6985Z"/>
</mask>
<path fill-rule="evenodd" clip-rule="evenodd" d="M55.7523 10.0635C56.2322 9.09284 56.7121 8.13843 57.1887 7.19077C57.3468 6.87635 57.5045 6.56268 57.6617 6.2494C57.9503 5.67387 58.2396 5.09882 58.5289 4.52379C59.1529 3.28366 59.7767 2.04364 60.3924 0.799145C60.6433 0.292627 61.0124 0.00980755 61.5796 0.000220463C62.1468 -0.00936663 62.5383 0.294224 62.7972 0.813525C64.2757 3.78339 65.7596 6.7506 67.2488 9.71514C67.2786 9.77461 67.3099 9.83247 67.3463 9.89971L67.3466 9.9003C67.3727 9.94851 67.4014 10.0016 67.4341 10.0635C67.6854 9.95703 67.9359 9.85149 68.1856 9.74627C68.5995 9.5719 69.0113 9.39838 69.4218 9.223C71.7771 8.22168 74.1313 7.21877 76.4844 6.21425C77.3456 5.84835 78.1173 6.2494 78.293 7.15858C78.3192 7.35851 78.2997 7.56178 78.2356 7.75298C77.5219 10.284 76.8029 12.8123 76.0785 15.338C75.4074 17.6964 74.7369 20.0548 74.0668 22.4132C74.0657 22.4493 74.0694 22.4853 74.0779 22.5203C74.2914 22.5203 74.5038 22.5215 74.7157 22.5228H74.716C75.1384 22.5253 75.5586 22.5277 75.981 22.5203C76.2965 22.5143 76.6032 22.6252 76.8419 22.8317C77.0805 23.0382 77.2342 23.3257 77.2736 23.6388C77.3679 24.3099 76.943 24.8643 76.2303 25.0002C76.0305 25.0185 75.8293 25.0185 75.6294 25.0002L47.3475 25.0401C46.5758 25.0401 46.1092 24.7205 45.9399 24.0718C45.7306 23.2729 46.3138 22.5522 47.2102 22.5347C47.621 22.5262 48.0325 22.5289 48.4586 22.5318C48.6771 22.5332 48.8995 22.5347 49.1276 22.5347L49.0107 22.1085C48.8743 21.6113 48.7445 21.1377 48.6099 20.6652L44.9668 7.87122C44.7 6.93488 45.0786 6.2494 45.9798 6.11359C46.243 6.09592 46.5063 6.14714 46.7436 6.26219C49.6272 7.47868 52.5076 8.7037 55.3848 9.93724C55.4903 9.9676 55.5973 10.0028 55.7523 10.0635ZM75.1549 9.49943C75.1082 9.51614 75.0722 9.52869 75.0428 9.53889L75.0427 9.53895C74.9908 9.55699 74.9602 9.56765 74.9296 9.58092L67.4486 12.7766C66.7279 13.085 66.0423 12.8565 65.7036 12.1806C64.7299 10.2344 63.7586 8.28773 62.7892 6.34048C62.5457 5.85436 62.2996 5.37013 62.0477 4.87464L62.0469 4.87299C61.8992 4.58238 61.7495 4.28789 61.5972 3.98685C61.5597 4.05454 61.5259 4.11346 61.4951 4.16735L61.495 4.16751L61.4948 4.16775C61.4457 4.25363 61.4038 4.32676 61.3655 4.40229C60.0776 6.97802 58.7892 9.55375 57.5002 12.1295C57.1343 12.8629 56.5001 13.101 55.7523 12.7846C54.0266 12.0517 52.3009 11.3151 50.5752 10.5748C50.0664 10.3576 49.5564 10.1421 49.0368 9.92265C48.7079 9.7837 48.3751 9.64313 48.0363 9.49943C48.0472 9.55657 48.0558 9.60722 48.0637 9.65335C48.0789 9.74265 48.0913 9.81497 48.1113 9.88451C49.2383 13.8461 50.3664 17.8066 51.4955 21.7661C51.7124 22.5283 51.716 22.5283 52.5084 22.5283H52.5134H71.0773C71.3665 22.5283 71.4895 22.4596 71.5725 22.164C72.2644 19.7084 72.9643 17.2551 73.6643 14.8014C73.9942 13.6452 74.3242 12.4888 74.6532 11.3322C74.781 10.8876 74.9014 10.4403 75.0282 9.96899C75.0696 9.81526 75.1117 9.65899 75.1549 9.49943ZM39.5163 43.7172V43.2379V32.9413C39.5163 31.9826 39.9957 31.4873 40.9736 31.4873H80.0953C80.9789 31.4873 81.5094 32.045 81.5062 32.9094C81.4886 39.0851 81.4966 45.2608 81.5062 51.4444C81.5062 51.5629 81.5127 51.6806 81.5199 51.8098L81.52 51.8104L81.52 51.8112C81.5235 51.8733 81.5271 51.9381 81.5302 52.0069H100.233H119.714C120.513 52.0069 120.992 52.531 120.992 53.2852V55.2761V59.7804C120.992 60.2192 120.999 60.6588 121.005 61.0982C121.011 61.5372 121.018 61.9761 121.018 62.4137V87.7939C121.02 87.9718 121.009 88.1497 120.984 88.326C120.951 88.6259 120.804 88.9018 120.575 89.0975C120.345 89.2932 120.049 89.3938 119.747 89.3789H91.0837C61.2125 89.3789 31.3411 89.3832 1.4699 89.3917C0.546339 89.3917 0 88.8053 0 87.9137C0.0159785 78.0379 0.0196007 68.1617 0.0110788 58.2848C0.0110788 57.2548 0.0158972 56.2245 0.0207164 55.1939C0.0259079 54.0838 0.0311004 52.9734 0.0302717 51.8631V51.8514C0.0302718 49.6103 0.0302719 47.3692 0.0015604 45.1281C-0.00514826 44.9429 0.0264405 44.7583 0.0942481 44.5859C0.162056 44.4134 0.264676 44.2568 0.395717 44.1257C0.526758 43.9947 0.68341 43.8921 0.855879 43.8242C1.02835 43.7564 1.21292 43.7249 1.39812 43.7316C13.9284 43.7519 26.4587 43.7566 38.9891 43.746L39.5163 43.7172ZM42.0345 86.8719H79.0119V34.0087H42.0345V86.8719ZM39.4923 86.8815V46.1731H2.97521C2.47668 46.1731 2.47659 46.1731 2.47979 46.6685C2.48323 47.6904 2.48729 48.7122 2.49135 49.7339V49.734C2.50046 52.0255 2.50956 54.3167 2.51177 56.6087C2.51177 57.5003 2.50417 58.3919 2.49656 59.2835C2.48895 60.1751 2.48135 61.0667 2.48135 61.9583V86.498C2.48135 86.5772 2.48862 86.6563 2.49635 86.7406C2.50064 86.7873 2.50508 86.8356 2.5085 86.8863L39.4923 86.8815ZM118.512 86.8895V54.4532H81.5285V86.8895H118.512ZM59.8208 47.6985C59.9894 47.5952 60.1622 47.4894 60.3427 47.3831L60.3475 47.6691C60.35 48.3103 60.353 48.9515 60.3561 49.5927C60.3629 51.0431 60.3698 52.4935 60.3698 53.9439C60.3698 54.7724 60.365 55.6008 60.3602 56.4293C60.3554 57.2578 60.3506 58.0863 60.3506 58.9148C60.3522 59.5859 60.8812 60.1659 61.4996 60.1659C62.2122 60.1675 62.7891 59.7217 62.8083 59.0634C62.82 58.5713 62.8161 58.0799 62.8122 57.5883C62.8102 57.3424 62.8083 57.0965 62.8083 56.8504C62.8113 56.3219 62.8162 55.7934 62.8211 55.2649C62.829 54.4048 62.837 53.5448 62.837 52.6848V44.7626C62.837 44.3104 62.7523 43.9094 62.3576 43.6218C62.0953 43.4137 61.7639 43.3127 61.4301 43.3391C61.0963 43.3654 60.7849 43.5173 60.5585 43.764C59.6381 44.6811 58.705 45.5759 57.5226 46.1735C57.3009 46.2912 57.1232 46.4774 57.0161 46.7043C56.9089 46.9313 56.8781 47.1867 56.9281 47.4326C57.139 48.3179 57.922 48.7173 58.7369 48.3179C59.1031 48.138 59.452 47.9243 59.8208 47.6985Z" fill="#FF6D63"/>
<path d="M57.1887 7.19077L48.057 2.5988L48.057 2.59885L57.1887 7.19077ZM55.7523 10.0635L52.024 19.5804L60.7574 23.0017L64.9147 14.5937L55.7523 10.0635ZM57.6617 6.2494L66.7969 10.8344L66.799 10.8301L57.6617 6.2494ZM58.5289 4.52379L49.3983 -0.0701169V-0.0701162L58.5289 4.52379ZM60.3924 0.799145L51.2331 -3.73721L51.2311 -3.73331L60.3924 0.799145ZM61.5796 0.000220463L61.4069 -10.2195H61.4069L61.5796 0.000220463ZM62.7972 0.813525L71.9471 -3.74178L71.9449 -3.74625L62.7972 0.813525ZM67.2488 9.71514L76.3914 5.1449L76.3869 5.13596L76.3824 5.12704L67.2488 9.71514ZM67.3463 9.89971L76.3554 5.07184L76.3452 5.0527L76.3348 5.03361L67.3463 9.89971ZM67.3466 9.9003L58.3375 14.7282L58.3478 14.7474L58.3582 14.7667L67.3466 9.9003ZM67.4341 10.0635L58.3913 14.828L62.7699 23.1382L71.4195 19.4756L67.4341 10.0635ZM68.1856 9.74627L72.1543 19.1655L72.1544 19.1655L68.1856 9.74627ZM69.4218 9.223L65.4228 -0.183385L65.4146 -0.179933L65.4065 -0.176468L69.4218 9.223ZM76.4844 6.21425L72.4875 -3.19309L72.4795 -3.18966L72.4714 -3.18622L76.4844 6.21425ZM78.293 7.15858L88.4275 5.83015L88.3872 5.52286L88.3284 5.21858L78.293 7.15858ZM78.2356 7.75298L68.5439 4.50595L68.4652 4.74067L68.3981 4.97892L78.2356 7.75298ZM76.0785 15.338L66.2534 12.5201L66.2505 12.5303L66.2476 12.5405L76.0785 15.338ZM74.0668 22.4132L64.2347 19.6199L63.889 20.837L63.8504 22.1017L74.0668 22.4132ZM74.0779 22.5203L64.1465 24.937L66.0457 32.7415H74.0779V22.5203ZM74.7157 22.5228L74.6556 32.7438L74.6856 32.744H74.7157V22.5228ZM74.716 22.5228L74.7761 12.3018L74.746 12.3016H74.716V22.5228ZM75.981 22.5203L76.1611 32.7399L76.1685 32.7398L76.1759 32.7396L75.981 22.5203ZM76.8419 22.8317L83.5299 15.1023L83.5298 15.1022L76.8419 22.8317ZM77.2736 23.6388L67.1324 24.9148L67.1416 24.9878L67.1518 25.0606L77.2736 23.6388ZM76.2303 25.0002L77.164 35.1786L77.6573 35.1334L78.1439 35.0406L76.2303 25.0002ZM75.6294 25.0002L76.5631 14.8217L76.09 14.7783L75.615 14.779L75.6294 25.0002ZM47.3475 25.0401V35.2613H47.3547L47.3619 35.2613L47.3475 25.0401ZM45.9399 24.0718L55.8296 21.4898L55.8273 21.4813L45.9399 24.0718ZM47.2102 22.5347L47.4106 32.7539L47.4204 32.7537L47.2102 22.5347ZM48.4586 22.5318L48.391 32.7527L48.391 32.7527L48.4586 22.5318ZM49.1276 22.5347V32.7559H62.5315L58.9844 19.8298L49.1276 22.5347ZM49.0107 22.1085L39.1532 24.8109L39.1539 24.8134L49.0107 22.1085ZM48.6099 20.6652L38.7794 23.4644L38.78 23.4663L48.6099 20.6652ZM44.9668 7.87122L54.7972 5.07202L54.7966 5.06988L44.9668 7.87122ZM45.9798 6.11359L45.2952 -4.08466L44.874 -4.05638L44.4566 -3.99347L45.9798 6.11359ZM46.7436 6.26219L42.2853 15.4598L42.5252 15.5761L42.7707 15.6796L46.7436 6.26219ZM55.3848 9.93724L51.3572 19.3315L51.9438 19.583L52.5572 19.7595L55.3848 9.93724ZM75.0428 9.53889L71.6839 -0.114607L71.6444 -0.100884L71.6051 -0.086839L75.0428 9.53889ZM75.1549 9.49943L85.0205 12.1722L90.1391 -6.72136L71.7098 -0.123682L75.1549 9.49943ZM75.0427 9.53895L78.4024 19.1922L78.4415 19.1786L78.4804 19.1647L75.0427 9.53895ZM74.9296 9.58092L78.9448 18.9804L78.9691 18.97L78.9934 18.9595L74.9296 9.58092ZM67.4486 12.7766L63.4333 3.3771L63.4273 3.37969L67.4486 12.7766ZM65.7036 12.1806L56.5625 16.7537L56.5658 16.7603L65.7036 12.1806ZM62.7892 6.34048L71.9393 1.78544L71.9334 1.77365L71.9276 1.76188L62.7892 6.34048ZM62.0477 4.87464L52.9311 9.49627L52.9358 9.50564L62.0477 4.87464ZM62.0469 4.87299L71.1635 0.25135L71.1588 0.242022L62.0469 4.87299ZM61.5972 3.98685L70.7178 -0.627138L62.0118 -17.8362L52.6585 -0.970235L61.5972 3.98685ZM61.4951 4.16735L52.626 -0.913313L52.6136 -0.891608L52.6013 -0.869842L61.4951 4.16735ZM61.495 4.16751L70.3431 9.2845L70.3661 9.2447L70.3888 9.2047L61.495 4.16751ZM61.4948 4.16775L52.6467 -0.949238L52.636 -0.930734L52.6254 -0.912186L61.4948 4.16775ZM61.3655 4.40229L52.2473 -0.216317L52.2353 -0.192571L52.2234 -0.168763L61.3655 4.40229ZM57.5002 12.1295L48.3596 7.5554L48.3541 7.56641L57.5002 12.1295ZM55.7523 12.7846L51.7568 22.1925L51.7697 22.198L55.7523 12.7846ZM50.5752 10.5748L54.605 1.18152L54.5967 1.17796L54.5884 1.17442L50.5752 10.5748ZM49.0368 9.92265L53.0141 0.507021L53.0141 0.507008L49.0368 9.92265ZM48.0363 9.49943L52.0273 0.0896098L34.4164 -7.37973L37.9956 11.4118L48.0363 9.49943ZM48.0637 9.65335L58.1389 7.93185L58.1389 7.93179L48.0637 9.65335ZM48.1113 9.88451L57.9424 7.08771L57.938 7.07228L57.9336 7.05686L48.1113 9.88451ZM51.4955 21.7661L61.3265 18.969L61.3248 18.963L51.4955 21.7661ZM52.5084 22.5283V12.3071H52.5083L52.5084 22.5283ZM71.5725 22.164L61.7343 19.3922L61.7327 19.3981L71.5725 22.164ZM73.6643 14.8014L63.8354 11.9971L63.8354 11.9972L73.6643 14.8014ZM74.6532 11.3322L64.8294 8.51006L64.8258 8.52258L64.8222 8.53511L74.6532 11.3322ZM75.0282 9.96899L65.1584 7.3121L65.1584 7.31213L75.0282 9.96899ZM39.5163 43.7172L40.073 53.9233L49.7375 53.3961V43.7172H39.5163ZM81.5062 32.9094L71.285 32.8717L71.285 32.8803L81.5062 32.9094ZM81.5062 51.4444H91.7274V51.4365L91.7274 51.4286L81.5062 51.4444ZM81.5199 51.8098L71.3145 52.3775L71.3194 52.4644L71.3257 52.5512L81.5199 51.8098ZM81.52 51.8104L91.724 51.2189L91.7197 51.1439L91.7142 51.069L81.52 51.8104ZM81.52 51.8112L91.7254 51.2421L91.7247 51.2309L91.7241 51.2196L81.52 51.8112ZM81.5302 52.0069L71.3194 52.4666L71.7589 62.2281H81.5302V52.0069ZM121.005 61.0982L110.785 61.2471V61.2473L121.005 61.0982ZM121.018 87.7939H110.797V87.8644L110.798 87.935L121.018 87.7939ZM120.984 88.326L110.863 86.9016L110.842 87.048L110.826 87.195L120.984 88.326ZM119.747 89.3789L120.251 79.1702L119.999 79.1577H119.747V89.3789ZM1.4699 89.3917V99.6129L1.47281 99.6129L1.4699 89.3917ZM0 87.9137L-10.2212 87.8972L-10.2212 87.9054V87.9137H0ZM0.0110788 58.2848H-10.2101L-10.2101 58.2936L0.0110788 58.2848ZM0.0207164 55.1939L10.2418 55.2417L0.0207164 55.1939ZM0.0302717 51.8631H-10.1909L-10.1909 51.8707L0.0302717 51.8631ZM0.0302717 51.8514H-10.1909H0.0302717ZM0.0015604 45.1281L10.2219 44.9972L10.2204 44.8776L10.2161 44.7581L0.0015604 45.1281ZM0.0942481 44.5859L9.60665 48.3258L9.60667 48.3257L0.0942481 44.5859ZM0.395717 44.1257L7.62314 51.3533L7.62324 51.3532L0.395717 44.1257ZM1.39812 43.7316L1.02803 53.9461L1.20476 53.9525L1.38161 53.9528L1.39812 43.7316ZM38.9891 43.746L38.9977 53.9672L39.2719 53.967L39.5457 53.952L38.9891 43.746ZM79.0119 86.8719V97.0931H89.2331V86.8719H79.0119ZM42.0345 86.8719H31.8133V97.0931H42.0345V86.8719ZM79.0119 34.0087H89.2331V23.7875H79.0119V34.0087ZM42.0345 34.0087V23.7875H31.8133V34.0087H42.0345ZM39.4923 46.1731H49.7135V35.9519H39.4923V46.1731ZM39.4923 86.8815L39.4936 97.1027L49.7135 97.1014V86.8815H39.4923ZM2.47979 46.6685L12.7009 46.634L12.7009 46.6182L12.7008 46.6025L2.47979 46.6685ZM2.49135 49.7339H12.7126V49.7136L12.7125 49.6933L2.49135 49.7339ZM2.49135 49.734H-7.72984V49.7543L-7.72976 49.7746L2.49135 49.734ZM2.51177 56.6087H12.733L12.733 56.5988L2.51177 56.6087ZM2.49656 59.2835L12.7174 59.3707L2.49656 59.2835ZM2.49635 86.7406L12.6747 85.8058L12.6747 85.8058L2.49635 86.7406ZM2.5085 86.8863L-7.68955 87.5738L-7.04673 97.1087L2.50982 97.1075L2.5085 86.8863ZM118.512 54.4532H128.733V44.232H118.512V54.4532ZM118.512 86.8895V97.1107H128.733V86.8895H118.512ZM81.5285 54.4532V44.232H71.3073V54.4532H81.5285ZM81.5285 86.8895H71.3073V97.1107H81.5285V86.8895ZM60.3427 47.3831L70.5624 47.2103L70.2659 29.6776L55.1561 38.5756L60.3427 47.3831ZM59.8208 47.6985L54.4826 38.982L54.4825 38.9821L59.8208 47.6985ZM60.3475 47.6691L70.5686 47.6301L70.5684 47.5632L70.5673 47.4963L60.3475 47.6691ZM60.3561 49.5927L50.135 49.6412V49.6412L60.3561 49.5927ZM60.3506 58.9148H50.1294V58.927L50.1295 58.9391L60.3506 58.9148ZM61.4996 60.1659L61.5225 49.9447L61.511 49.9447H61.4996V60.1659ZM62.8083 59.0634L73.0251 59.361L73.0259 59.3338L73.0266 59.3066L62.8083 59.0634ZM62.8122 57.5883L52.5913 57.6695V57.6695L62.8122 57.5883ZM62.8083 56.8504L52.5872 56.7916L52.5871 56.821V56.8504H62.8083ZM62.8211 55.2649L52.6003 55.1704V55.1704L62.8211 55.2649ZM62.3576 43.6218L56.0056 51.6296L56.1692 51.7593L56.3379 51.8822L62.3576 43.6218ZM61.4301 43.3391L60.6248 33.1496L60.6247 33.1496L61.4301 43.3391ZM60.5585 43.764L67.7734 51.004L67.9352 50.8428L68.0896 50.6745L60.5585 43.764ZM57.5226 46.1735L52.9121 37.0512L52.8201 37.0977L52.7291 37.1461L57.5226 46.1735ZM57.0161 46.7043L47.7731 42.3408L47.773 42.3409L57.0161 46.7043ZM56.9281 47.4326L46.9117 49.4688L46.9457 49.6358L46.9852 49.8017L56.9281 47.4326ZM58.7369 48.3179L63.2358 57.4957L63.2419 57.4927L58.7369 48.3179ZM48.057 2.59885C47.5829 3.54176 47.0875 4.52669 46.5899 5.53322L64.9147 14.5937C65.3769 13.659 65.8414 12.7351 66.3203 11.7827L48.057 2.59885ZM48.5266 1.66444C48.3714 1.97363 48.2154 2.28381 48.057 2.5988L66.3203 11.7827C66.4781 11.4689 66.6376 11.1517 66.7969 10.8344L48.5266 1.66444ZM49.3983 -0.0701162C49.1095 0.503816 48.8168 1.08547 48.5245 1.66872L66.799 10.8301C67.0837 10.2623 67.3697 9.69382 67.6596 9.1177L49.3983 -0.0701162ZM51.2311 -3.73331C50.6332 -2.52471 50.0248 -1.31533 49.3983 -0.0701169L67.6596 9.1177C68.281 7.88264 68.9203 6.61199 69.5538 5.3316L51.2311 -3.73331ZM61.4069 -10.2195C59.3676 -10.185 57.1015 -9.61694 55.0334 -8.1794C53.0538 -6.80331 51.896 -5.07569 51.2331 -3.73721L69.5518 5.3355C69.1398 6.16747 68.2919 7.50041 66.7013 8.60607C65.0223 9.77317 63.2243 10.1951 61.7523 10.22L61.4069 -10.2195ZM71.9449 -3.74625C71.2703 -5.0997 70.1027 -6.82041 68.1323 -8.1881C66.0493 -9.63401 63.6789 -10.2579 61.4069 -10.2195L61.7523 10.22C60.0475 10.2488 58.1565 9.77186 56.4757 8.60518C54.9076 7.51671 54.0652 6.20745 53.6494 5.3733L71.9449 -3.74625ZM76.3824 5.12704C74.8987 2.17332 73.4202 -0.78295 71.9471 -3.74178L53.6472 5.36883C55.1312 8.34973 56.6206 11.3279 58.1153 14.3032L76.3824 5.12704ZM76.3348 5.03361C76.3248 5.01501 76.3207 5.00742 76.3175 5.00151C76.3148 4.99661 76.3169 5.00042 76.3216 5.00927C76.3311 5.02719 76.3572 5.07654 76.3914 5.1449L58.1063 14.2854C58.2239 14.5206 58.3374 14.7283 58.3577 14.7658L76.3348 5.03361ZM76.3558 5.07244L76.3554 5.07184L58.3372 14.7276L58.3375 14.7282L76.3558 5.07244ZM76.4768 5.2989C76.4141 5.17993 76.3602 5.08051 76.335 5.03394L58.3582 14.7667C58.3852 14.8165 58.3887 14.8232 58.3913 14.828L76.4768 5.2989ZM64.2169 0.327019C63.9685 0.431675 63.7097 0.540725 63.4486 0.651296L71.4195 19.4756C71.6611 19.3733 71.9033 19.2713 72.1543 19.1655L64.2169 0.327019ZM65.4065 -0.176468C65.0231 -0.0126877 64.6347 0.151015 64.2169 0.327031L72.1544 19.1655C72.5643 18.9928 72.9995 18.8095 73.4372 18.6225L65.4065 -0.176468ZM72.4714 -3.18622C70.123 -2.1837 67.7734 -1.18275 65.4228 -0.183385L73.4209 18.6294C75.7808 17.6261 78.1396 16.6212 80.4973 15.6147L72.4714 -3.18622ZM88.3284 5.21858C87.7542 2.24808 85.9136 -1.00799 82.3713 -2.85494C78.856 -4.68788 75.1879 -4.34037 72.4875 -3.19309L80.4812 15.6216C78.6421 16.403 75.7905 16.7681 72.9202 15.2715C70.023 13.7609 68.6561 11.1599 68.2576 9.09859L88.3284 5.21858ZM87.9273 11C88.4856 9.33372 88.655 7.56557 88.4275 5.83015L68.1585 8.48701C67.9835 7.15145 68.1137 5.78985 68.5439 4.50595L87.9273 11ZM85.9036 18.1558C86.6322 15.6155 87.3553 13.0726 88.0732 10.527L68.3981 4.97892C67.6885 7.49532 66.9736 10.0091 66.2534 12.5201L85.9036 18.1558ZM83.8989 25.2065C84.5686 22.8494 85.2388 20.4924 85.9094 18.1354L66.2476 12.5405C65.5761 14.9004 64.9051 17.2602 64.2347 19.6199L83.8989 25.2065ZM84.0093 20.1036C84.2228 20.9809 84.3096 21.8633 84.2833 22.7248L63.8504 22.1017C63.8219 23.0352 63.916 23.9897 64.1465 24.937L84.0093 20.1036ZM74.7758 12.3018C74.5688 12.3006 74.3264 12.2991 74.0779 12.2991V32.7415C74.2564 32.7415 74.4388 32.7425 74.6556 32.7438L74.7758 12.3018ZM74.716 12.3016H74.7157V32.744H74.716V12.3016ZM75.8008 12.3007C75.5185 12.3057 75.2181 12.3044 74.7761 12.3018L74.6559 32.7438C75.0586 32.7462 75.5988 32.7498 76.1611 32.7399L75.8008 12.3007ZM83.5298 15.1022C81.3824 13.2442 78.6239 12.2468 75.7861 12.301L76.1759 32.7396C73.9691 32.7817 71.824 32.0062 70.1539 30.5611L83.5298 15.1022ZM87.4149 22.3628C87.0607 19.5484 85.6785 16.9615 83.5299 15.1023L70.1538 30.561C68.4825 29.1149 67.4077 27.1029 67.1324 24.9148L87.4149 22.3628ZM78.1439 35.0406C83.6018 34.0004 88.3315 28.8804 87.3954 22.217L67.1518 25.0606C66.8354 22.8078 67.3841 20.3354 68.9417 18.3029C70.4632 16.3176 72.5109 15.3038 74.3168 14.9597L78.1439 35.0406ZM74.6958 35.1786C75.5167 35.2539 76.343 35.2539 77.164 35.1786L75.2967 14.8217C75.718 14.783 76.1418 14.783 76.5631 14.8217L74.6958 35.1786ZM47.3619 35.2613L75.6439 35.2213L75.615 14.779L47.3331 14.8189L47.3619 35.2613ZM36.0502 26.6538C36.6375 28.9034 38.0161 31.4276 40.629 33.2232C43.0851 34.9109 45.6284 35.2613 47.3475 35.2613V14.8189C48.2949 14.8189 50.2191 15.0095 52.2066 16.3753C54.351 17.8489 55.4116 19.8889 55.8296 21.4898L36.0502 26.6538ZM47.0098 12.3154C40.3932 12.4452 33.9473 18.6277 36.0524 26.6623L55.8273 21.4813C56.5487 24.2347 55.918 27.2331 54.0603 29.4959C52.2428 31.7097 49.7029 32.709 47.4106 32.7539L47.0098 12.3154ZM48.5261 12.3108C48.1246 12.3081 47.5733 12.3038 47 12.3156L47.4204 32.7537C47.6687 32.7486 47.9404 32.7498 48.391 32.7527L48.5261 12.3108ZM49.1276 12.3135C48.9386 12.3135 48.7495 12.3123 48.5261 12.3108L48.391 32.7527C48.6048 32.7541 48.8604 32.7559 49.1276 32.7559V12.3135ZM39.1539 24.8134L39.2708 25.2395L58.9844 19.8298L58.8675 19.4037L39.1539 24.8134ZM38.78 23.4663C38.8982 23.8812 39.0145 24.3049 39.1532 24.8109L58.8682 19.4061C58.7342 18.9176 58.5909 18.3943 58.4398 17.8641L38.78 23.4663ZM35.1364 10.6704L38.7794 23.4644L58.4403 17.866L54.7972 5.07202L35.1364 10.6704ZM44.4566 -3.99347C41.6361 -3.5684 38.2084 -1.97354 36.154 1.63311C34.2178 5.03214 34.5079 8.46499 35.137 10.6726L54.7966 5.06988C55.1589 6.34111 55.5049 8.96305 53.9167 11.7513C52.2101 14.7472 49.4223 15.9314 47.5031 16.2206L44.4566 -3.99347ZM51.2019 -2.93545C49.3661 -3.82531 47.3303 -4.22126 45.2952 -4.08466L46.6644 16.3118C45.1557 16.4131 43.6465 16.1196 42.2853 15.4598L51.2019 -2.93545ZM59.4124 0.543019C56.517 -0.698323 53.6184 -1.93109 50.7166 -3.15527L42.7707 15.6796C45.6361 16.8885 48.4982 18.1057 51.3572 19.3315L59.4124 0.543019ZM59.4805 0.54649C59.0431 0.375113 58.6357 0.236788 58.2125 0.114959L52.5572 19.7595C52.4762 19.7362 52.373 19.7047 52.2588 19.6658C52.1499 19.6287 52.0683 19.5978 52.024 19.5804L59.4805 0.54649ZM78.4018 19.1924C78.4348 19.1809 78.5074 19.1557 78.6 19.1225L71.7098 -0.123682C71.709 -0.123378 71.7081 -0.123082 71.7061 -0.122379C71.7029 -0.121236 71.6991 -0.119909 71.6839 -0.114607L78.4018 19.1924ZM78.4804 19.1647L78.4806 19.1646L71.6051 -0.086839L71.6049 -0.0867818L78.4804 19.1647ZM78.9934 18.9595C78.7744 19.0544 78.5958 19.1219 78.4928 19.1596C78.4455 19.177 78.4106 19.1893 78.4 19.193C78.391 19.1962 78.3851 19.1982 78.4024 19.1922L71.683 -0.114312C71.6822 -0.114045 71.5753 -0.077117 71.4635 -0.0361963C71.3246 0.0146838 71.1154 0.094166 70.8657 0.202325L78.9934 18.9595ZM71.4638 22.1761L78.9448 18.9804L70.9144 0.181408L63.4333 3.37711L71.4638 22.1761ZM56.5658 16.7603C57.8064 19.2357 60.0305 21.4692 63.1495 22.5272C66.2106 23.5656 69.18 23.1535 71.4698 22.1735L63.4273 3.37969C64.9966 2.70815 67.2627 2.33599 69.7162 3.16825C72.2276 4.02013 73.9395 5.80145 74.8414 7.60091L56.5658 16.7603ZM53.6391 10.8955C54.6113 12.8485 55.5857 14.8012 56.5625 16.7537L74.8447 7.60755C73.8742 5.66768 72.9058 3.72698 71.9393 1.78544L53.6391 10.8955ZM52.9358 9.50564C53.1899 10.0056 53.4227 10.4636 53.6509 10.9191L71.9276 1.76188C71.6686 1.24511 71.4092 0.734676 71.1596 0.243629L52.9358 9.50564ZM52.9302 9.49462L52.9311 9.49627L71.1644 0.253001L71.1635 0.251353L52.9302 9.49462ZM52.4767 8.60084C52.634 8.91172 52.7879 9.21457 52.935 9.50395L71.1588 0.242022C71.0105 -0.0498164 70.8651 -0.335949 70.7178 -0.627138L52.4767 8.60084ZM70.3641 9.24801C70.3936 9.19649 70.4598 9.0811 70.5359 8.94394L52.6585 -0.970235C52.6599 -0.972716 52.6592 -0.971447 52.6548 -0.963543C52.6491 -0.953561 52.6425 -0.942002 52.626 -0.913313L70.3641 9.24801ZM70.3888 9.2047L70.3889 9.20454L52.6013 -0.869842L52.6012 -0.869681L70.3888 9.2047ZM70.343 9.28473L70.3431 9.2845L52.6469 -0.949476L52.6467 -0.949238L70.343 9.28473ZM70.4837 9.0209C70.4247 9.13739 70.3775 9.22304 70.3574 9.25918C70.3474 9.27714 70.3417 9.28727 70.3435 9.28397C70.3463 9.27916 70.3505 9.27175 70.3643 9.24768L52.6254 -0.912186C52.6031 -0.873196 52.4253 -0.567659 52.2473 -0.216317L70.4837 9.0209ZM66.6408 16.7036C67.9302 14.127 69.2192 11.5502 70.5076 8.97335L52.2234 -0.168763C50.9361 2.40583 49.6481 4.98054 48.3596 7.5554L66.6408 16.7036ZM51.7697 22.198C53.9563 23.1231 57.0625 23.6569 60.3579 22.4213C63.637 21.1918 65.6097 18.7703 66.6463 16.6926L48.3541 7.56641C49.0249 6.22203 50.4976 4.28629 53.181 3.28013C55.8809 2.26785 58.2961 2.7625 59.7349 3.37122L51.7697 22.198ZM46.5454 19.968C48.2826 20.7133 50.0198 21.4548 51.7568 22.1925L59.7478 3.37668C58.0335 2.64864 56.3192 1.91692 54.605 1.18152L46.5454 19.968ZM45.0595 19.3383C45.5822 19.5591 46.0741 19.7669 46.562 19.9751L54.5884 1.17442C54.0587 0.948245 53.5306 0.725211 53.0141 0.507021L45.0595 19.3383ZM44.0453 18.9092C44.392 19.0563 44.7316 19.1998 45.0596 19.3383L53.0141 0.507008C52.6841 0.367648 52.3581 0.229929 52.0273 0.0896098L44.0453 18.9092ZM58.1389 7.93179C58.1318 7.8903 58.1082 7.75123 58.077 7.58701L37.9956 11.4118C37.9903 11.3842 37.9867 11.3639 37.9852 11.3556C37.9845 11.3517 37.9843 11.3505 37.9849 11.3536C37.9855 11.3575 37.9864 11.3624 37.9885 11.3749L58.1389 7.93179ZM57.9336 7.05686C58.029 7.38826 58.085 7.65337 58.1129 7.79402C58.1359 7.91066 58.1517 8.00711 58.1389 7.93185L37.9885 11.3748C37.9909 11.3889 38.0205 11.5661 38.0586 11.7587C38.1014 11.9752 38.1736 12.3112 38.289 12.7122L57.9336 7.05686ZM61.3248 18.963C60.1963 15.0057 59.0689 11.0473 57.9424 7.08771L38.2802 12.6813C39.4078 16.6449 40.5364 20.6076 41.6662 24.5692L61.3248 18.963ZM52.5083 12.3071C52.0886 12.3071 52.5639 12.2942 53.0977 12.3494C53.7294 12.4147 55.8142 12.678 57.9178 14.2552C60.0293 15.8384 60.8679 17.7754 61.1134 18.3843C61.32 18.8968 61.439 19.3642 61.3265 18.969L41.6645 24.5632C41.6849 24.6349 41.7386 24.8249 41.798 25.0184C41.856 25.2072 41.975 25.5846 42.1543 26.0291C42.4863 26.8525 43.4159 28.9323 45.6545 30.6108C47.8851 32.2833 50.133 32.5942 50.995 32.6834C51.4647 32.7319 51.8546 32.7423 52.0471 32.746C52.2435 32.7499 52.4386 32.7495 52.5084 32.7495L52.5083 12.3071ZM52.5134 12.3071H52.5084V32.7495H52.5134V12.3071ZM71.0773 12.3071H52.5134V32.7495H71.0773V12.3071ZM61.7327 19.3981C61.9181 18.7384 62.7249 16.0556 65.5385 14.085C68.1757 12.238 70.8074 12.3071 71.0773 12.3071V32.7495C71.6363 32.7495 74.4742 32.7843 77.2659 30.829C80.2341 28.7501 81.1439 25.8852 81.4124 24.9299L61.7327 19.3981ZM63.8354 11.9972C63.1361 14.4481 62.4315 16.9177 61.7343 19.3922L81.4108 24.9357C82.0972 22.4991 82.7925 20.062 83.4933 17.6057L63.8354 11.9972ZM64.8222 8.53511C64.4943 9.68756 64.1654 10.8403 63.8354 11.9971L83.4933 17.6057C83.8231 16.45 84.154 15.2901 84.4843 14.1292L64.8222 8.53511ZM65.1584 7.31213C65.0275 7.79833 64.9293 8.16201 64.8294 8.51006L84.4771 14.1543C84.6326 13.6131 84.7752 13.0822 84.8981 12.6258L65.1584 7.31213ZM65.2894 6.82668C65.2436 6.99543 65.1995 7.15951 65.1584 7.3121L84.8981 12.6259C84.9398 12.471 84.9797 12.3226 85.0205 12.1722L65.2894 6.82668ZM29.2951 43.2379V43.7172H49.7375V43.2379H29.2951ZM29.2951 32.9413V43.2379H49.7375V32.9413H29.2951ZM40.9736 21.2661C38.8753 21.2661 35.4512 21.8084 32.6271 24.6511C29.8152 27.4815 29.2951 30.8864 29.2951 32.9413H49.7375C49.7375 34.0376 49.4571 36.7155 47.1294 39.0585C44.7894 41.4139 42.094 41.7085 40.9736 41.7085V21.2661ZM80.0953 21.2661H40.9736V41.7085H80.0953V21.2661ZM91.7273 32.9471C91.7367 30.4084 90.9287 27.2647 88.431 24.7177C85.9095 22.1464 82.7276 21.2661 80.0953 21.2661V41.7085C78.3465 41.7085 75.8717 41.107 73.8355 39.0307C71.8232 36.9786 71.2789 34.546 71.2851 32.8717L91.7273 32.9471ZM91.7274 51.4286C91.7178 45.2437 91.7098 39.0889 91.7273 32.9385L71.285 32.8803C71.2674 39.0813 71.2754 45.2778 71.285 51.4603L91.7274 51.4286ZM91.7254 51.2421C91.7234 51.2063 91.7226 51.1917 91.722 51.1802C91.7215 51.1707 91.7218 51.1773 91.7225 51.1934C91.7238 51.2248 91.7274 51.3169 91.7274 51.4444H71.285C71.285 51.8968 71.3104 52.3033 71.3145 52.3775L91.7254 51.2421ZM91.7142 51.069L91.7142 51.0684L71.3257 52.5512L71.3257 52.5518L91.7142 51.069ZM91.7241 51.2196L91.724 51.2189L71.3159 52.4019L71.316 52.4027L91.7241 51.2196ZM91.7411 51.5471C91.7351 51.4154 91.7285 51.2975 91.7254 51.2421L71.3147 52.3803C71.3166 52.4137 71.3175 52.4312 71.3184 52.4471C71.3187 52.454 71.319 52.4588 71.3191 52.4621C71.3193 52.4653 71.3194 52.4667 71.3194 52.4666L91.7411 51.5471ZM100.233 41.7857H81.5302V62.2281H100.233V41.7857ZM119.714 41.7857H100.233V62.2281H119.714V41.7857ZM131.213 53.2852C131.213 50.7314 130.368 47.6853 127.97 45.2271C125.533 42.7281 122.418 41.7857 119.714 41.7857V62.2281C117.809 62.2281 115.333 61.5477 113.335 59.4993C111.377 57.4916 110.771 55.0848 110.771 53.2852H131.213ZM131.213 55.2761V53.2852H110.771V55.2761H131.213ZM131.213 59.7804V55.2761H110.771V59.7804H131.213ZM131.225 60.9494C131.219 60.4975 131.213 60.1324 131.213 59.7804H110.771C110.771 60.3061 110.779 60.8201 110.785 61.2471L131.225 60.9494ZM131.239 62.4137C131.239 61.8891 131.231 61.3758 131.225 60.9492L110.785 61.2473C110.791 61.6987 110.797 62.063 110.797 62.4137H131.239ZM131.239 87.7939V62.4137H110.797V87.7939H131.239ZM131.106 89.7504C131.204 89.0551 131.248 88.3538 131.238 87.6528L110.798 87.935C110.793 87.5899 110.815 87.2444 110.863 86.9016L131.106 89.7504ZM127.201 96.88C129.411 94.998 130.821 92.3436 131.143 89.4569L110.826 87.195C111.08 84.9082 112.198 82.8056 113.948 81.3151L127.201 96.88ZM119.244 99.5877C122.144 99.7308 124.99 98.7624 127.201 96.88L113.948 81.3151C115.7 79.8239 117.954 79.0568 120.251 79.1702L119.244 99.5877ZM91.0837 99.6001H119.747V79.1577H91.0837V99.6001ZM1.47281 99.6129C31.3431 99.6044 61.2135 99.6001 91.0837 99.6001V79.1577C61.2115 79.1577 31.3392 79.162 1.46698 79.1705L1.47281 99.6129ZM-10.2212 87.9137C-10.2212 90.4482 -9.41023 93.5827 -6.9237 96.1287C-4.40168 98.711 -1.20535 99.6129 1.4699 99.6129V79.1705C3.22159 79.1705 5.68297 79.7793 7.70093 81.8454C9.6834 83.8753 10.2212 86.2709 10.2212 87.9137H-10.2212ZM-10.2101 58.2936C-10.2016 68.1621 -10.2052 78.0299 -10.2212 87.8972L10.2212 87.9303C10.2372 78.046 10.2408 68.1612 10.2323 58.276L-10.2101 58.2936ZM-10.2004 55.1461C-10.2052 56.1727 -10.2101 57.227 -10.2101 58.2848H10.2323C10.2323 57.2827 10.237 56.2763 10.2418 55.2417L-10.2004 55.1461ZM-10.1909 51.8707C-10.1901 52.9487 -10.1952 54.0314 -10.2004 55.1461L10.2418 55.2417C10.247 54.1362 10.2523 52.9981 10.2515 51.8554L-10.1909 51.8707ZM-10.1909 51.8514V51.8631H10.2515V51.8514H-10.1909ZM-10.2188 45.2591C-10.1911 47.4238 -10.1909 49.5994 -10.1909 51.8514H10.2515C10.2515 49.6212 10.2516 47.3147 10.2219 44.9972L-10.2188 45.2591ZM-9.41815 40.8459C-9.99916 42.3237 -10.2706 43.9072 -10.2129 45.4981L10.2161 44.7581C10.2603 45.9786 10.052 47.193 9.60665 48.3258L-9.41815 40.8459ZM-6.8317 36.8982C-7.95612 38.0226 -8.83651 39.3665 -9.41818 40.846L9.60667 48.3257C9.16062 49.4603 8.48547 50.4909 7.62314 51.3533L-6.8317 36.8982ZM-2.88395 34.3118C-4.36347 34.8935 -5.70743 35.7739 -6.83181 36.8983L7.62324 51.3532C6.76094 52.2155 5.73029 52.8906 4.5957 53.3367L-2.88395 34.3118ZM1.76821 33.5171C0.179066 33.4595 -1.40456 33.7302 -2.88395 34.3118L4.5957 53.3367C3.46126 53.7827 2.24677 53.9903 1.02803 53.9461L1.76821 33.5171ZM38.9804 33.5248C26.4584 33.5354 13.9366 33.5307 1.41462 33.5104L1.38161 53.9528C13.9203 53.973 26.459 53.9778 38.9977 53.9672L38.9804 33.5248ZM38.9596 33.5112L38.4324 33.54L39.5457 53.952L40.073 53.9233L38.9596 33.5112ZM79.0119 76.6507H42.0345V97.0931H79.0119V76.6507ZM68.7907 34.0087V86.8719H89.2331V34.0087H68.7907ZM42.0345 44.2299H79.0119V23.7875H42.0345V44.2299ZM52.2557 86.8719V34.0087H31.8133V86.8719H52.2557ZM29.2711 46.1731V86.8815H49.7135V46.1731H29.2711ZM2.97521 56.3943H39.4923V35.9519H2.97521V56.3943ZM12.7008 46.6025C12.6983 46.2273 12.7176 46.819 12.6505 47.4545C12.5914 48.0148 12.2902 50.9401 9.7655 53.4638C7.25469 55.9737 4.3468 56.2809 3.80933 56.3403C3.18419 56.4093 2.60206 56.3943 2.97521 56.3943V35.9519C2.9438 35.9519 2.77616 35.9515 2.60341 35.955C2.44016 35.9583 2.04738 35.9682 1.56474 36.0215C0.887138 36.0963 -2.11405 36.4344 -4.6868 39.0062C-7.27343 41.5919 -7.60523 44.6101 -7.67904 45.3097C-7.7306 45.7984 -7.73814 46.1957 -7.74046 46.3604C-7.74293 46.5348 -7.7414 46.7036 -7.7412 46.7344L12.7008 46.6025ZM12.7125 49.6933C12.7084 48.6711 12.7044 47.6523 12.7009 46.634L-7.74135 46.703C-7.73789 47.7285 -7.73382 48.7533 -7.72976 49.7746L12.7125 49.6933ZM12.7126 49.734V49.7339H-7.72984V49.734H12.7126ZM12.733 56.5988C12.7307 54.2889 12.7216 51.9823 12.7125 49.6934L-7.72976 49.7746C-7.72064 52.0687 -7.71161 54.3445 -7.70942 56.6185L12.733 56.5988ZM12.7174 59.3707C12.7249 58.4863 12.733 57.5511 12.733 56.6087H-7.70942C-7.70942 57.4494 -7.71659 58.2974 -7.72426 59.1963L12.7174 59.3707ZM12.7025 61.9583C12.7025 61.1175 12.7097 60.2695 12.7174 59.3707L-7.72426 59.1963C-7.73181 60.0806 -7.73985 61.0158 -7.73985 61.9583H12.7025ZM12.7025 86.498V61.9583H-7.73985V86.498H12.7025ZM12.6747 85.8058C12.6689 85.7423 12.6762 85.8172 12.6827 85.9113C12.6903 86.0206 12.7025 86.2296 12.7025 86.498H-7.73985C-7.73985 86.8456 -7.72397 87.1337 -7.71083 87.3234C-7.69875 87.498 -7.68391 87.6546 -7.68201 87.6753L12.6747 85.8058ZM12.7065 86.1988C12.6935 86.0056 12.6776 85.8374 12.6747 85.8058L-7.68201 87.6753C-7.68082 87.6883 -7.68049 87.6919 -7.68028 87.6942C-7.68016 87.6956 -7.68059 87.6908 -7.68133 87.6822C-7.68279 87.6652 -7.68601 87.6263 -7.68955 87.5738L12.7065 86.1988ZM39.491 76.6603L2.50717 76.6651L2.50982 97.1075L39.4936 97.1027L39.491 76.6603ZM108.291 54.4532V86.8895H128.733V54.4532H108.291ZM81.5285 64.6744H118.512V44.232H81.5285V64.6744ZM91.7497 86.8895V54.4532H71.3073V86.8895H91.7497ZM118.512 76.6683H81.5285V97.1107H118.512V76.6683ZM55.1561 38.5756C54.8875 38.7338 54.6409 38.8851 54.4826 38.982L65.159 56.4149C65.338 56.3053 65.4369 56.245 65.5293 56.1906L55.1561 38.5756ZM70.5673 47.4963L70.5624 47.2103L50.1229 47.5559L50.1278 47.842L70.5673 47.4963ZM70.5771 49.5442C70.5741 48.9022 70.5711 48.2657 70.5686 47.6301L50.1264 47.7082C50.1289 48.3549 50.1319 49.0008 50.135 49.6412L70.5771 49.5442ZM70.591 53.9439C70.591 52.4652 70.584 50.9905 70.5771 49.5441L50.135 49.6412C50.1419 51.0957 50.1486 52.5218 50.1486 53.9439H70.591ZM70.5813 56.4885C70.586 55.665 70.591 54.8069 70.591 53.9439H50.1486C50.1486 54.7378 50.144 55.5367 50.1392 56.3701L70.5813 56.4885ZM70.5718 58.9148C70.5718 58.1208 70.5764 57.3219 70.5813 56.4885L50.1392 56.3701C50.1344 57.1937 50.1294 58.0518 50.1294 58.9148H70.5718ZM61.4996 49.9447C67.3602 49.9447 70.5621 54.8083 70.5718 58.8904L50.1295 58.9391C50.1424 64.3634 54.4022 70.3871 61.4996 70.3871V49.9447ZM52.5914 58.7658C52.673 55.9658 54.0182 53.5306 55.9276 51.9628C57.7332 50.4801 59.7876 49.9408 61.5225 49.9447L61.4766 70.3871C66.0992 70.3974 72.8011 67.0504 73.0251 59.361L52.5914 58.7658ZM52.5913 57.6695C52.5954 58.188 52.5972 58.5172 52.59 58.8201L73.0266 59.3066C73.0428 58.6254 73.0367 57.9719 73.0331 57.5071L52.5913 57.6695ZM52.5871 56.8504C52.5871 57.1438 52.5894 57.4303 52.5913 57.6695L73.0331 57.5071C73.031 57.2545 73.0295 57.0491 73.0295 56.8504H52.5871ZM52.6003 55.1704C52.5955 55.6959 52.5904 56.2423 52.5872 56.7916L73.0293 56.9092C73.0322 56.4015 73.0369 55.8908 73.0418 55.3593L52.6003 55.1704ZM52.6158 52.6848C52.6158 53.4897 52.6083 54.3025 52.6003 55.1704L73.0418 55.3594C73.0497 54.5072 73.0582 53.5999 73.0582 52.6848H52.6158ZM52.6158 44.7626V52.6848H73.0582V44.7626H52.6158ZM56.3379 51.8822C54.837 50.7885 53.7455 49.2801 53.1462 47.6419C52.6269 46.2222 52.6158 45.0732 52.6158 44.7626H73.0582C73.0582 43.0872 72.7151 38.5224 68.3774 35.3613L56.3379 51.8822ZM62.2355 53.5285C59.9932 53.7057 57.7673 53.027 56.0056 51.6296L68.7096 35.614C66.4232 33.8003 63.5346 32.9197 60.6248 33.1496L62.2355 53.5285ZM68.0896 50.6745C66.569 52.3317 64.4773 53.3513 62.2356 53.5285L60.6247 33.1496C57.7154 33.3796 55.0008 34.7028 53.0274 36.8535L68.0896 50.6745ZM62.133 55.2958C64.9386 53.8779 66.902 51.8724 67.7734 51.004L53.3436 36.5239C53.1296 36.7371 52.9777 36.8862 52.8458 37.0108C52.7178 37.1315 52.6408 37.1986 52.5991 37.2333C52.5173 37.3014 52.6339 37.1919 52.9121 37.0512L62.133 55.2958ZM66.259 51.0679C65.4238 52.837 64.0397 54.2858 62.3161 55.201L52.7291 37.1461C50.5622 38.2966 48.8226 40.1178 47.7731 42.3408L66.259 51.0679ZM66.9444 45.3965C67.3336 47.3113 67.0933 49.3007 66.2591 51.0678L47.773 42.3409C46.7246 44.5619 46.4225 47.0622 46.9117 49.4688L66.9444 45.3965ZM54.238 39.14C56.2931 38.1326 59.2558 37.7669 62.1452 39.1991C64.9675 40.598 66.391 43.0494 66.8709 45.0636L46.9852 49.8017C47.676 52.7011 49.5965 55.7949 53.0667 57.5149C56.6041 59.2683 60.3657 58.9026 63.2358 57.4957L54.238 39.14ZM54.4825 38.9821C54.3859 39.0412 54.3196 39.0818 54.2581 39.119C54.1993 39.1546 54.1631 39.176 54.1404 39.1892C54.0931 39.2167 54.1344 39.1909 54.2319 39.143L63.2419 57.4927C64.109 57.0669 64.865 56.595 65.1591 56.4149L54.4825 38.9821Z" fill="#FF6D63" mask="url(#path-1-inside-1_131_3584)"/>
</svg>
