<svg width="88" height="74" viewBox="0 0 88 74" fill="none" xmlns="http://www.w3.org/2000/svg">
<path fill-rule="evenodd" clip-rule="evenodd" d="M43.1663 8.41324L42.4115 8.51327L42.419 6.09777V1.27619C42.4187 1.10883 42.4519 0.943106 42.5167 0.788813C42.5815 0.634521 42.6766 0.494793 42.7964 0.37792C42.9248 0.253575 43.0768 0.156141 43.2433 0.0913285C43.4099 0.0265158 43.5878 -0.00436921 43.7664 0.000497423C43.9397 0.00110275 44.1109 0.0366799 44.2701 0.105093C44.4293 0.173505 44.573 0.273353 44.6927 0.398641C44.8123 0.523928 44.9054 0.672076 44.9664 0.834217C45.0275 0.996359 45.0552 1.16916 45.0478 1.34224V7.16587C45.0478 7.3074 45.0402 7.44327 45.0308 7.57726C45.0232 7.64142 45.0194 7.70432 45.0194 7.76597L44.9609 8.89823L44.0079 8.30002C43.9306 8.24907 43.8834 8.24718 43.5815 8.32456C43.4451 8.36261 43.3064 8.39223 43.1663 8.41324ZM57.3007 11.6854C57.3888 11.7041 57.4786 11.7136 57.5687 11.7137C57.8321 11.7082 58.0878 11.624 58.303 11.472C58.5183 11.32 58.6832 11.1071 58.7765 10.8607C59.6634 8.73392 60.4428 6.85247 61.1599 5.11066C61.2652 4.85396 61.2972 4.57304 61.2523 4.29921C61.2038 4.01977 61.0642 3.76422 60.8553 3.57239C60.6464 3.38055 60.38 3.26321 60.0975 3.23865C59.5049 3.15939 58.9501 3.52172 58.684 4.16334C57.9128 6.03032 57.1422 7.8973 56.3723 9.76429C56.3301 9.86829 56.2967 9.97558 56.2723 10.0851L56.2439 10.1832V10.2738C56.2326 11.0079 56.627 11.5344 57.3007 11.6854ZM27.7052 8.53964L27.3146 7.59608C26.9957 6.8167 26.6616 6.01091 26.3314 5.21833C26.2095 4.94755 26.1607 4.64954 26.1899 4.35402C26.2281 4.06957 26.3602 3.80605 26.5654 3.60534C26.7705 3.40463 27.0369 3.27825 27.3221 3.24629C27.9128 3.14627 28.4827 3.49917 28.745 4.12191C28.9225 4.54534 29.0978 4.96877 29.2734 5.39307L29.43 5.77125L30.2302 7.70177L31.0794 9.75117C31.1225 9.86051 31.1577 9.97275 31.185 10.0871L31.2134 10.1946V10.2928C31.2115 11.0136 30.8379 11.5175 30.1868 11.6798C30.0905 11.7037 29.9916 11.7157 29.8924 11.7157C29.6319 11.7116 29.3785 11.6306 29.1639 11.4828C28.9494 11.3351 28.7832 11.1272 28.6865 10.8853C28.3544 10.1041 28.0298 9.32279 27.7052 8.53964ZM18.9283 17.0581L18.5371 16.6674L18.5366 16.6669L18.5365 16.6668L18.5365 16.6668L18.536 16.6663L18.5352 16.6655L18.5344 16.6648L18.5337 16.664C17.278 15.4099 15.9899 14.1233 14.7125 12.863C14.562 12.7248 14.3889 12.6131 14.201 12.5328C14.1406 12.5045 14.0765 12.4743 14.0123 12.4366L13.6141 12.2139L13.2669 12.5064C13.2161 12.5497 13.1633 12.5874 13.1105 12.6251L13.1103 12.6253C12.8916 12.764 12.7066 12.9496 12.5687 13.1688C12.4343 13.4109 12.3847 13.691 12.4278 13.9645C12.4709 14.2381 12.6042 14.4893 12.8065 14.6784L14.3614 16.2315L17.2525 19.1169C17.3789 19.2466 17.5297 19.35 17.6961 19.4212C17.8626 19.4924 18.0414 19.5301 18.2224 19.5321H18.2508C18.4243 19.5282 18.5951 19.4889 18.7528 19.4165C18.9106 19.3441 19.0519 19.2403 19.1679 19.1113C19.4025 18.8486 19.5261 18.5052 19.5127 18.1532C19.4994 17.8013 19.3501 17.4683 19.0963 17.2242L18.9283 17.0581ZM73.5043 12.4578C73.7984 12.4103 74.1 12.4613 74.3621 12.6028C74.6262 12.743 74.8332 12.9707 74.9478 13.2468C75.0625 13.5229 75.0776 13.8302 74.9906 14.1162C74.9171 14.3481 74.7875 14.5581 74.6131 14.7277C73.6193 15.7266 72.6241 16.723 71.6277 17.7168L70.2426 19.102C70.0528 19.3152 69.7983 19.4604 69.5181 19.5152C69.238 19.5701 68.9475 19.5317 68.6913 19.4058C68.4645 19.3014 68.2712 19.136 68.1329 18.928C67.9946 18.7201 67.9168 18.4778 67.9082 18.2283L67.8893 18.0188L67.995 17.8301C68.0133 17.798 68.0305 17.7634 68.0473 17.7294L68.0592 17.7055C68.1401 17.5239 68.2504 17.3569 68.3857 17.2111C69.5991 15.9902 70.837 14.7579 72.0353 13.5652L72.7354 12.8651C72.9399 12.6484 73.2102 12.5052 73.5043 12.4578ZM69.6086 40.3054L69.7746 41.1452C69.8279 41.4269 69.8824 41.7114 69.9372 41.9977L69.9372 41.9981L69.9373 41.9985L69.9375 41.9995L69.9376 42.0001L69.9378 42.0011L69.9381 42.0025C70.0926 42.8096 70.2498 43.6311 70.3917 44.4476C70.603 45.8176 70.7239 47.2877 70.1898 48.754C69.7784 49.8806 69.033 50.7147 68.4291 51.3148C68.1811 51.5591 67.9331 51.7997 67.6832 52.0421L67.6743 52.0508C67.1666 52.5339 66.642 53.0415 66.1646 53.5605C63.8076 56.1194 62.1299 58.7349 61.0373 61.5656C60.5014 62.9564 59.8446 64.7907 59.5087 66.7306C59.3389 67.7251 59.2369 68.7555 59.1407 69.75L59.0973 70.1935C59.0596 70.5766 59.0426 70.9653 59.0426 71.3767C59.0411 71.4484 59.0384 71.5195 59.0357 71.591C59.0316 71.7001 59.0275 71.8099 59.0275 71.924C59.0291 72.0988 58.9953 72.2721 58.9281 72.4335C58.8609 72.595 58.7618 72.7411 58.6366 72.8631C58.5114 72.9852 58.3627 73.0806 58.1996 73.1436C58.0366 73.2066 57.8624 73.236 57.6877 73.2298H30.6907C29.8754 73.2298 29.3263 72.6618 29.3263 71.8164V68.4064V64.9435C29.3225 62.8451 29.3206 60.6768 29.3376 58.5424C29.3529 58.2387 29.2508 57.9408 29.0526 57.7102C27.1159 55.2327 25.8196 52.316 25.2784 49.2182C25.0923 48.1398 24.995 47.0479 24.9878 45.9535C24.9651 44.0362 24.9651 42.0944 24.9651 40.2073V38.4107V35.3404L24.9646 34.9907C24.9609 32.2012 24.9571 29.3266 24.9915 26.4955C25.0104 24.748 25.8955 23.261 27.4806 22.3061C28.4115 21.7187 29.5054 21.4431 30.6035 21.5195C31.7016 21.5958 32.7468 22.0201 33.5874 22.7307C33.9772 21.9708 34.5334 21.3086 35.2147 20.7934C35.8959 20.2782 36.6846 19.9233 37.5219 19.7552C38.3593 19.5871 39.2238 19.61 40.0511 19.8223C40.8784 20.0346 41.6472 20.4308 42.3002 20.9814C42.6883 20.184 43.2551 19.4869 43.9565 18.9443C44.6579 18.4016 45.4749 18.028 46.3442 17.8525C47.2306 17.673 48.1473 17.7095 49.0167 17.9587C49.8862 18.208 50.6828 18.6629 51.3394 19.2849C51.4772 19.0565 51.6225 18.8282 51.7867 18.6055C52.305 17.88 52.9673 17.2691 53.7322 16.8109C54.4972 16.3528 55.3485 16.0573 56.2327 15.9428C58.5369 15.6125 60.5334 16.2806 62.1639 17.9318C63.3093 19.0943 63.9359 20.4436 64.0265 21.9532C64.0793 22.8628 64.0925 23.7799 64.0925 24.6688V25.5652V26.5993V27.6372C65.5192 28.4619 66.3401 29.747 66.8402 30.6566C67.8724 32.5362 68.397 34.5365 68.7405 36.0688C69.0545 37.4698 69.3348 38.9044 69.6057 40.2907L69.6086 40.3054ZM56.4289 69.6783C56.4685 69.0499 56.5101 68.3988 56.6007 67.7534H56.5931C56.8657 65.8886 57.3026 64.0516 57.899 62.2638C59.235 58.1688 61.5449 54.4134 64.7681 51.0997C65.0754 50.7841 65.3899 50.4715 65.6976 50.1657L65.823 50.041C66.2325 49.6372 66.6571 49.2182 67.0572 48.7974C67.5145 48.3179 67.7856 47.6908 67.8214 47.0292C67.8764 46.1253 67.8129 45.2181 67.6327 44.3306C67.5157 43.7079 67.395 43.0851 67.2742 42.4643C67.0911 41.5226 66.9024 40.5507 66.7307 39.5883C66.4373 37.8177 66.0204 36.0697 65.4833 34.3572C65.0568 33.0646 64.5303 31.719 63.5716 30.6453C63.2869 30.3093 62.9269 30.0453 62.521 29.8744C62.1151 29.7036 61.6747 29.6309 61.2354 29.6621L61.0249 29.6716L61.0247 29.6716C59.853 29.7243 58.7845 29.7724 57.716 29.8508C57.2006 29.8885 56.6716 29.9535 56.1581 30.0167L56.0799 30.0263C55.8062 30.0621 55.5005 30.0999 55.2401 30.1282C55.0631 30.1474 54.8869 30.1684 54.7111 30.1894C54.6282 30.1992 54.5454 30.2091 54.4625 30.2188C53.8058 30.298 53.1265 30.3792 52.449 30.4264C51.3894 30.4998 50.3898 30.2897 49.4223 30.0864L49.4145 30.0848L48.9767 29.9942L48.5484 29.9055C47.6312 29.713 46.7632 29.5319 45.8857 29.5828C45.2189 29.6204 45.1877 29.8673 45.167 30.0315L45.1667 30.0338C45.0855 30.7113 45.2554 31.3756 45.7007 32.1304C46.2612 33.074 47.1198 33.8458 48.4031 34.5837C51.2205 36.2009 54.4758 37.1936 58.9577 37.8031C59.6993 37.905 60.1711 38.373 60.2164 39.0561C60.2425 39.3904 60.1431 39.7223 59.9376 39.9872C59.732 40.252 59.4351 40.4308 59.1049 40.4884L58.9916 40.513C58.673 40.5774 58.3581 40.6586 58.0481 40.7564C56.4516 41.2999 55.2495 41.9585 54.2625 42.8322C52.9076 44.0324 52.2018 45.4478 52.1037 47.1632V47.2934C52.0974 47.5328 52.0722 47.7713 52.0282 48.0067C51.8961 48.6728 51.2601 49.088 50.5185 48.9974C50.2103 48.9541 49.9286 48.7995 49.7266 48.5628C49.5246 48.326 49.4163 48.0235 49.4221 47.7123V47.4519C49.4184 47.0392 49.4443 46.6267 49.4995 46.2177C49.6711 45.0505 50.076 43.9298 50.6901 42.9225C51.3041 41.9151 52.1148 41.0418 53.0737 40.3545C53.4171 40.0978 53.7738 39.8657 54.1305 39.643C52.54 39.257 50.9806 38.7524 49.4655 38.1333C48.665 38.4337 47.8073 38.5504 46.9557 38.4749C46.2091 38.4226 45.4811 38.2182 44.8164 37.8742C44.1518 37.5302 43.5646 37.0539 43.0909 36.4746L43.0493 36.4255C42.5255 37.0589 41.8714 37.5721 41.1316 37.9303C40.3918 38.2885 39.5836 38.4832 38.7618 38.5013C37.9273 38.5237 37.0981 38.3612 36.3337 38.0255C35.5692 37.6898 34.8885 37.1891 34.3403 36.5595C33.5189 37.5963 32.3265 38.273 31.0152 38.4466C29.8431 38.6298 28.6436 38.4039 27.6184 37.8069V38.5617V41.3527V43.4003V45.3345C27.6021 46.9558 27.8078 48.5718 28.2299 50.1373C29.4848 54.6342 32.1721 58.1273 36.2218 60.5164C36.8574 60.8706 37.5162 61.1814 38.1938 61.4467C38.4976 61.5731 38.8109 61.7053 39.1204 61.843C39.8224 62.1544 40.145 62.8696 39.8884 63.5414C39.833 63.7082 39.7447 63.8622 39.6285 63.9941C39.5122 64.126 39.3706 64.2331 39.2121 64.309C39.0535 64.3849 38.8813 64.4281 38.7057 64.436C38.5301 64.4438 38.3547 64.4162 38.19 64.3547C36.2492 63.6939 34.4284 62.7226 32.7985 61.4788C32.5362 61.2825 32.2815 61.075 32.0324 60.8674V70.535H56.3685C56.3912 70.2444 56.41 69.9632 56.4289 69.6783ZM32.8061 29.0224V26.7465L32.8117 26.7427C32.8028 26.0672 32.5265 25.4227 32.0433 24.9505C31.5602 24.4783 30.9095 24.2169 30.234 24.2234C30.0932 24.2233 29.9525 24.2334 29.8132 24.2536C29.1912 24.3522 28.6262 24.6733 28.2232 25.1571C27.8202 25.641 27.6066 26.2548 27.6222 26.8843V33.1683C27.6242 33.3721 27.6476 33.5752 27.692 33.7741C27.9789 35.0837 29.315 36.0066 30.6076 35.7895C31.8248 35.5876 32.8061 34.4855 32.8061 33.3363V31.0586V30.0433V29.0224ZM50.1977 27.49L50.3864 27.5278L50.3845 26.8201V23.4573C50.3843 23.2346 50.3654 23.0124 50.3279 22.793C50.2505 22.4151 50.097 22.0569 49.8767 21.7403C49.6564 21.4237 49.374 21.1552 49.0466 20.9512C48.7139 20.7294 48.3396 20.5775 47.9464 20.5049C47.5532 20.4322 47.1494 20.4402 46.7594 20.5285C45.3365 20.8776 44.4099 22.0872 44.4099 23.6082V27.222C44.5508 27.1584 44.6959 27.1042 44.844 27.0598C45.2801 26.9311 45.7328 26.8675 46.1875 26.871C46.787 26.8819 47.3844 26.945 47.9728 27.0598C48.6594 27.1838 49.3555 27.3224 50.0345 27.4575L50.035 27.4576L50.0352 27.4577L50.0356 27.4578L50.1977 27.49ZM39.8714 35.5461C41.0377 34.9573 41.6113 34.0364 41.6226 32.7154L41.6151 32.706C41.6297 31.0716 41.6276 29.409 41.6255 27.8068L41.6246 27.0466V25.7256C41.6237 25.4478 41.6041 25.1704 41.5661 24.8952C41.4757 24.2365 41.1656 23.6276 40.6862 23.167C40.2067 22.7064 39.5859 22.421 38.9241 22.3571C38.8182 22.3452 38.7118 22.3389 38.6052 22.3382C37.8816 22.3371 37.1836 22.6063 36.6482 23.093C36.332 23.3771 36.0791 23.7246 35.9058 24.1127C35.7325 24.5009 35.6428 24.9212 35.6424 25.3463V29.6621V30.9963V31.6719C35.6273 32.2307 35.65 32.79 35.7104 33.3457C35.7729 33.7976 35.9437 34.2276 36.2082 34.5992C36.4727 34.9708 36.823 35.273 37.2295 35.48C37.6329 35.7001 38.083 35.8209 38.5424 35.8324C39.0019 35.8439 39.4575 35.7457 39.8714 35.5461ZM61.3204 21.9061C60.8675 19.8963 59.2049 18.5621 57.2555 18.5621L57.248 18.547C57.0551 18.552 56.8627 18.5703 56.6723 18.6017C55.6831 18.727 54.7735 19.2084 54.1135 19.9559C53.4536 20.7034 53.0886 21.6657 53.0868 22.6628V26.3634V27.7014C53.2303 27.6901 53.3699 27.6787 53.5077 27.6599C53.8681 27.6146 54.2267 27.5636 54.5871 27.5108C55.1363 27.4315 55.7024 27.3504 56.2686 27.2919C57.4178 27.1711 58.4539 27.09 59.437 27.0447C59.8896 27.0233 60.3325 27.0256 60.7877 27.028H60.7877H60.7879H60.7883C60.9346 27.0288 61.0821 27.0296 61.2316 27.0296H61.3807V26.1011V22.576C61.3837 22.3512 61.3634 22.1267 61.3204 21.9061ZM8.83779 27.8712L10.8174 28.6902C11.0692 28.7794 11.2871 28.9442 11.4415 29.1621C11.5959 29.38 11.6792 29.6403 11.6798 29.9074C11.6859 30.122 11.6396 30.3349 11.5449 30.5276C11.4502 30.7203 11.31 30.887 11.1363 31.0133C10.9209 31.1665 10.6628 31.2483 10.3984 31.2473C10.2342 31.2467 10.0713 31.2174 9.91726 31.1605C9.49001 31.0061 9.07024 30.8293 8.66362 30.658L8.66041 30.6566L8.19241 30.4679L7.32248 30.1075C6.24809 29.6671 5.17552 29.223 4.1049 28.7751C3.38025 28.4694 3.04815 27.7731 3.29348 27.0767C3.34909 26.9114 3.43785 26.7592 3.55434 26.6294C3.67083 26.4997 3.81257 26.395 3.97092 26.3219C4.14676 26.2462 4.33622 26.2072 4.52766 26.2072C4.7191 26.2072 4.90856 26.2462 5.08439 26.3219C5.60089 26.5282 6.11984 26.7431 6.62825 26.9537L6.98468 27.1013L8.83779 27.8712ZM84.1506 27.0334C84.024 26.7092 83.7746 26.4481 83.4566 26.3068C83.1386 26.1654 82.7776 26.1553 82.4522 26.2786C82.2635 26.3446 82.0748 26.422 81.9106 26.4956L81.6916 26.5899L80.7047 26.9995L76.6644 28.6714C76.404 28.7604 76.1787 28.93 76.0213 29.1557C75.8638 29.3813 75.7824 29.6513 75.7888 29.9264C75.7852 30.1404 75.8351 30.3519 75.9339 30.5417C76.0328 30.7315 76.1775 30.8936 76.3549 31.0133C76.5713 31.1549 76.8248 31.2291 77.0833 31.2266C77.3029 31.2245 77.5201 31.1803 77.7231 31.0964C79.5215 30.3604 81.2991 29.6206 83.4146 28.7337C83.5755 28.6717 83.7226 28.5782 83.847 28.4588C83.9714 28.3393 84.0707 28.1962 84.1393 28.0379C84.2078 27.8797 84.244 27.7093 84.246 27.5368C84.2479 27.3643 84.2155 27.1932 84.1506 27.0334ZM7.35837 42.417C7.54831 42.4124 7.73818 42.4289 7.9245 42.466C8.22242 42.5345 8.48743 42.7041 8.67428 42.946C8.86114 43.1879 8.95831 43.4871 8.94924 43.7927C8.93787 44.1184 8.80473 44.4279 8.57624 44.6602C8.34775 44.8926 8.04049 45.0308 7.71506 45.0476C7.34917 45.0608 6.98517 45.0608 6.63059 45.0608H6.62997H1.46492C0.589305 45.0608 0.000477993 44.5287 0.000477993 43.7398C-0.00418894 43.57 0.0253608 43.401 0.0872778 43.2428C0.149195 43.0846 0.242246 42.9405 0.360946 42.8189C0.507753 42.6812 0.680881 42.5746 0.86995 42.5055C1.05902 42.4364 1.26014 42.4063 1.46115 42.417H7.35837ZM86.1302 42.4246H79.8706C79.5323 42.4349 79.2075 42.56 78.9498 42.7794C78.7427 42.9504 78.5979 43.185 78.5379 43.4467C78.4778 43.7084 78.5058 43.9827 78.6176 44.2268C78.7159 44.4762 78.8889 44.6891 79.1128 44.8364C79.3368 44.9837 79.6009 45.0581 79.8688 45.0496H82.0767H83.8789H84.764H86.0963C86.4466 45.0541 86.7844 44.9193 87.0353 44.6747C87.2862 44.4302 87.4297 44.096 87.4342 43.7456C87.4387 43.3953 87.3038 43.0575 87.0593 42.8065C86.8147 42.5556 86.4805 42.4121 86.1302 42.4076V42.4246Z" fill="#FF6D63"/>
</svg>
