<svg width="71" height="60" viewBox="0 0 71 60" fill="none" xmlns="http://www.w3.org/2000/svg">
<path fill-rule="evenodd" clip-rule="evenodd" d="M40.6504 59.6938C42.7837 59.6697 44.9171 59.6456 47.0492 59.6456C54.1183 59.6494 61.1906 59.6488 68.266 59.6438C70.7324 59.6419 70.9419 59.4249 70.9419 56.9037C70.9436 55.3832 70.9375 53.8625 70.9314 52.3418C70.9176 48.9196 70.9038 45.4972 70.9796 42.0766C71.023 40.1065 70.1738 39.5762 68.4056 39.6083C66.8183 39.6366 65.2303 39.6287 63.6424 39.6208C61.7301 39.6114 59.818 39.6019 57.9076 39.6555C56.2715 39.7008 55.6411 39.3026 55.6921 37.5004C55.7683 34.839 55.7604 32.1756 55.7526 29.512C55.7455 27.095 55.7383 24.6778 55.794 22.262C55.9186 17.0705 54.2107 12.6849 50.6347 8.95595C45.481 3.58145 39.0704 1.10179 31.7767 0.258252C24.4038 -0.594722 17.4951 0.64132 11.1148 4.32308C3.94943 8.45774 -0.364511 14.3606 0.0242339 23.1093C0.20129 27.2462 0.144697 31.3945 0.0881319 35.5407C0.075365 36.4765 0.0625995 37.4123 0.0525221 38.3477C0.00534434 42.7258 1.56977 46.4679 4.36081 49.7383C10.0939 56.464 17.748 59.189 26.2513 59.5815C31.042 59.8023 35.8463 59.7481 40.6504 59.6938ZM46.2113 8.90499C50.2818 12.1055 52.8067 16.6761 52.8067 22.4318C52.5633 27.3911 49.3854 31.7372 44.4166 34.9547C33.7563 41.8502 18.5557 41.2444 8.88988 33.0676C0.760203 26.1909 0.892291 16.1647 9.16161 9.25788C19.2067 0.867779 36.1473 0.979119 46.2113 8.90499ZM26.4325 54.4957V56.4545C10.5939 56.113 1.46782 46.3057 3.12848 31.4258C6.28561 35.3132 9.9636 38.21 14.4511 40.0556C18.6146 41.7822 23.0727 42.6876 27.5798 42.722C37.1955 42.7898 46.8121 42.7777 56.49 42.7656C60.2801 42.7608 64.0797 42.756 67.8923 42.756V56.6187H63.5236C63.5236 56.2666 63.5401 55.9053 63.5567 55.5401C63.597 54.6563 63.6383 53.7494 63.4501 52.8936C63.3399 52.3989 62.882 51.9817 62.4229 51.5635C62.2217 51.3802 62.0204 51.1968 61.8479 51.0064C61.681 51.1915 61.4835 51.3697 61.2859 51.548C60.8467 51.9444 60.4076 52.3406 60.3061 52.8105C60.1227 53.637 60.1621 54.5103 60.2014 55.3836C60.2179 55.7505 60.2344 56.1175 60.2344 56.481C60.1391 56.5208 60.0563 56.5626 59.9808 56.6007C59.8381 56.6728 59.7219 56.7314 59.5984 56.7376C54.8712 56.9886 54.8712 56.9867 54.8712 52.252C54.8712 52.0413 54.8883 51.824 54.9055 51.6066C54.9441 51.1171 54.9827 50.6269 54.8259 50.2101C54.5372 49.4496 54.0183 48.3513 53.4219 48.223C52.1821 47.9569 51.9348 49.0269 51.9575 50.1101C51.9688 50.766 51.9618 51.4229 51.9548 52.0798C51.9442 53.0709 51.9337 54.0621 51.9859 55.0505C52.0651 56.4262 51.499 56.8905 50.178 56.7848C49.4417 56.7259 48.7002 56.7382 47.8579 56.7523C47.4589 56.7589 47.0373 56.7659 46.583 56.7659C46.583 56.3498 46.5884 55.9465 46.5938 55.5503C46.6042 54.7787 46.6142 54.0341 46.583 53.2748C46.5358 52.1255 46.366 50.9574 44.8374 51.0253C43.4485 51.0857 43.3013 52.1255 43.3277 53.2408C43.3426 53.9536 43.3379 54.6672 43.333 55.4193C43.3304 55.8101 43.3277 56.2113 43.3277 56.6282H37.9703C37.9703 56.2634 37.9847 55.8934 37.9993 55.5217C38.0342 54.6262 38.0696 53.7208 37.9042 52.8539C37.8143 52.382 37.4064 51.9705 36.9986 51.5589C36.816 51.3747 36.6335 51.1905 36.4794 51.0008C36.3106 51.1708 36.1093 51.3349 35.9076 51.4993C35.4533 51.8697 34.9971 52.2416 34.9056 52.686C34.7261 53.5697 34.7656 54.4969 34.8028 55.3675C34.8175 55.7145 34.832 56.0526 34.832 56.3753C34.6745 56.4622 34.5618 56.5333 34.4757 56.5876C34.3431 56.6712 34.2738 56.715 34.2017 56.715C29.3631 56.9678 29.3631 56.9678 29.3631 52.1444C29.3631 51.897 29.3799 51.6439 29.3967 51.3907C29.436 50.7999 29.4752 50.209 29.3008 49.6911C29.157 49.2662 28.7668 48.9237 28.3769 48.5815C28.204 48.4297 28.0312 48.278 27.8799 48.1192C27.7296 48.2888 27.5469 48.4544 27.3641 48.62C26.9591 48.9871 26.5537 49.3544 26.5004 49.7666C26.3597 50.881 26.3858 52.0156 26.4118 53.1505C26.4222 53.5993 26.4325 54.0481 26.4325 54.4957ZM43.6259 39.4536L52.7237 31.9768V39.4536H43.6259ZM37.3437 14.5002C34.6935 12.3447 31.3389 11.2469 27.9271 11.4186C24.434 11.2318 21.2165 12.3018 18.3953 14.5776C14.6494 17.5989 14.0681 22.8488 17.0592 26.5928C21.9261 32.6863 33.4601 32.8807 38.5327 26.9552C41.8276 23.1055 41.335 17.6744 37.3437 14.5002ZM25.6932 14.5472C26.1096 14.4321 26.471 14.3323 26.7495 14.2379C30.6483 14.3757 33.2129 14.9626 35.2887 16.7987C38.5742 19.7238 38.4685 23.2489 35.1 26.0456C31.3654 29.148 24.1019 29.0461 20.4485 25.838C16.9969 22.8073 17.4045 18.3103 21.5467 16.0665C22.9527 15.3045 24.5354 14.8672 25.6932 14.5472Z" fill="#FF6D63"/>
</svg>
