<svg width="125" height="125" viewBox="0 0 125 125" fill="none" xmlns="http://www.w3.org/2000/svg">
<path fill-rule="evenodd" clip-rule="evenodd" d="M64.632 0L64.7218 2.06957L60.9363 2.22253L61.2598 9.70233L59.1651 9.79106L58.8415 2.31123L55.056 2.47184L54.9662 0.40227L64.632 0ZM37.2541 13.5631L42.2535 11.3406L39.1446 4.51391L41.0675 3.66037L44.2197 10.5834C44.4363 11.0589 44.4529 11.5999 44.266 12.0875C44.079 12.5751 43.7037 12.9694 43.2226 13.1837L38.0283 15.4919C37.7901 15.5989 37.5329 15.6583 37.2715 15.6666C37.01 15.675 36.7494 15.6322 36.5047 15.5406C36.2601 15.449 36.0362 15.3106 35.846 15.1331C35.6557 14.9557 35.5029 14.7429 35.3962 14.5068L32.244 7.58381L34.1421 6.73946L37.2541 13.5631ZM34.7351 2.79156L36.6596 1.93649L37.1535 4.67146L35.2306 5.52649L34.7351 2.79156ZM24.7032 12.6398C24.4537 12.7192 24.2225 12.8463 24.0228 13.014L19.683 16.6269C19.4827 16.7927 19.3177 16.996 19.1972 17.225C19.0768 17.454 19.0034 17.7043 18.9813 17.9615C18.9591 18.2186 18.9886 18.4776 19.0681 18.7234C19.1476 18.9693 19.2756 19.1972 19.4446 19.394L24.399 25.1974L25.9906 23.8712L23.9779 21.5171L28.1659 18.0326L30.1786 20.3867L31.7904 19.0437L26.8359 13.2403C26.6663 13.043 26.4589 12.8806 26.2257 12.7624C25.9925 12.6442 25.7381 12.5725 25.4768 12.5515C25.2156 12.5305 24.9527 12.5605 24.7032 12.6398ZM25.2846 14.6644L26.8096 16.4495L22.6262 19.9385L21.1028 18.1519L25.2846 14.6644ZM17.2862 30.5525L20.6924 26.3109L14.7564 21.6563L16.0678 20.0242L22.0889 24.7446C22.499 25.0691 22.7627 25.5404 22.8227 26.0561C22.8827 26.5717 22.7342 27.0899 22.4095 27.4979L18.8686 31.9185C18.7068 32.1202 18.5063 32.2884 18.2787 32.4136C18.0511 32.5388 17.8006 32.6184 17.5418 32.6479C17.283 32.6775 17.0209 32.6564 16.7704 32.5858C16.5198 32.5152 16.2858 32.3966 16.0817 32.2366L10.0621 27.5178L11.3565 25.9055L17.2862 30.5525ZM62.5278 30.2359C64.7665 37.9042 68.9364 44.8867 74.6478 50.5309C80.3591 56.1751 87.4256 60.2968 95.1867 62.5107C87.4266 64.7233 80.3608 68.8432 74.6495 74.4855C68.9381 80.1277 64.7677 87.1083 62.5278 94.7748C60.2884 87.1082 56.1183 80.1276 50.4072 74.4853C44.6962 68.843 37.6305 64.7231 29.8705 62.5107C37.6316 60.2969 44.6979 56.1753 50.409 50.5311C56.1201 44.8868 60.2896 37.9043 62.5278 30.2359ZM1.12868 47.7255C1.22878 47.2121 1.53114 46.7591 1.96926 46.4659C2.40737 46.1728 2.94534 46.0636 3.46497 46.1622L11.0066 47.6199L10.6009 49.665L7.54313 49.073L6.49027 54.3884L9.54966 54.9789L9.1502 57.0041L1.60865 55.5464C1.35214 55.4973 1.10794 55.3987 0.890091 55.2562C0.672247 55.1137 0.485064 54.93 0.339206 54.7159C0.193348 54.5017 0.0917006 54.2612 0.0401386 54.0082C-0.0114235 53.7551 -0.011918 53.4945 0.0387022 53.2412L1.12868 47.7255ZM5.48549 48.6754L3.16311 48.2272L2.11184 53.5426L4.43422 53.9908L5.48549 48.6754ZM10.1024 33.0687L11.0623 31.2133L10.2557 30.8079C9.78565 30.5725 9.2404 30.5304 8.73909 30.6909C8.23778 30.8514 7.82114 31.2015 7.58024 31.6645L4.99001 36.6755C4.8705 36.9051 4.79806 37.1557 4.7769 37.413C4.75573 37.6703 4.78628 37.9292 4.86671 38.1748C4.94713 38.4204 5.07592 38.6479 5.24561 38.8443C5.4153 39.0406 5.62258 39.2018 5.85554 39.3187L7.55862 40.1768C7.79111 40.2946 8.04485 40.3659 8.3053 40.3866C8.56576 40.4073 8.82777 40.377 9.07633 40.2974C9.3249 40.2178 9.55511 40.0905 9.75377 39.9229C9.95243 39.7552 10.1156 39.5503 10.234 39.3202L12.7747 34.4132L14.2826 35.178L11.7884 39.9994L11.0824 39.643L10.1349 41.4785L10.9369 41.8838C11.1694 42.0016 11.4231 42.073 11.6836 42.0937C11.944 42.1144 12.206 42.084 12.4546 42.0045C12.7032 41.9249 12.9334 41.7976 13.132 41.6299C13.3307 41.4622 13.4939 41.2574 13.6122 41.0273L16.2041 36.0163C16.4428 35.552 16.4855 35.0131 16.323 34.5178C16.1606 34.0224 15.806 33.6108 15.337 33.3731L13.6339 32.5165C13.1642 32.2805 12.619 32.2381 12.1176 32.3983C11.6162 32.5585 11.1994 32.9085 10.9586 33.3716L8.41016 38.3L6.90371 37.5352L9.39634 32.7123L10.1024 33.0687ZM45.8949 2.2822L43.8667 2.74108L46.056 12.0687L55.4786 9.9104L55.0048 7.89281L47.6104 9.58763L45.8949 2.2822ZM68.597 0.419136L66.5068 0.266174L65.7977 9.79568L67.8879 9.94864L68.597 0.419136ZM78.992 2.20875L81.1068 2.65845L79.0725 12.0013L77.0241 11.5669L78.3881 5.2955C77.8034 5.74183 77.1979 6.21017 76.5914 6.67932L76.5913 6.6794L76.5906 6.67989L76.5887 6.68137L76.5879 6.68199C75.8112 7.28277 75.0329 7.88478 74.2945 8.44346L71.8545 3.92651L70.4921 10.1811L68.4561 9.74976L70.4905 0.405334L72.593 0.85197L74.9758 5.30928L78.992 2.20875ZM92.1995 7.94299C92.0121 7.4558 91.6372 7.06165 91.1567 6.84657L85.9809 4.52153C85.7432 4.4143 85.4864 4.35455 85.2253 4.34567C84.9642 4.33679 84.7038 4.37898 84.4593 4.4698C84.2147 4.56063 83.9907 4.6983 83.8001 4.87491C83.6096 5.05153 83.4562 5.26362 83.3489 5.49897L80.1733 12.4143L82.07 13.2633L83.3581 10.4595L88.3497 12.6958L87.0631 15.5011L88.9829 16.3608L92.1569 9.44691C92.3715 8.97084 92.3869 8.43018 92.1995 7.94299ZM90.1921 8.68364L89.2152 10.8098L84.2236 8.57347L85.2006 6.44579L90.1921 8.68364ZM105.551 16.789C105.955 17.1262 106.207 17.6082 106.252 18.1291C106.297 18.65 106.13 19.1672 105.789 19.5668L102.101 23.8497C101.931 24.0466 101.723 24.2084 101.49 24.3259C101.256 24.4434 101.002 24.5142 100.74 24.5344C100.479 24.5546 100.216 24.5237 99.9671 24.4435C99.7179 24.3632 99.4872 24.2353 99.2881 24.0669L93.4419 19.1599L99.7045 11.8759L105.551 16.789ZM96.3851 18.9198L100.565 22.4256L104.116 18.2957L99.9353 14.7898L96.3851 18.9198ZM110.075 21.4712L108.661 19.9416L101.519 26.3858L102.933 27.9155L110.075 21.4712ZM114.816 31.0802L110.838 25.5996L109.462 26.574L112.664 30.9869L110.96 32.1938L107.759 27.7885L106.382 28.7629L110.36 34.2435L108.657 35.4503L103.45 28.2764L111.312 22.7071L116.519 29.881L114.816 31.0802ZM119.869 41.2873L121.767 40.4093L117.663 31.7548L115.765 32.6328L117.373 36.0224L110.51 39.1994L111.4 41.0747L118.262 37.8977L119.869 41.2873ZM124.457 50.0734C124.586 50.5801 124.507 51.1168 124.236 51.5657C123.965 52.0146 123.525 52.3388 123.012 52.4673L115.557 54.3028L115.046 52.2807L118.07 51.5342L116.742 46.2815L113.718 47.028L113.213 45.0395L120.668 43.2039C120.921 43.1408 121.185 43.1277 121.443 43.1655C121.702 43.2033 121.95 43.2911 122.174 43.424C122.398 43.5569 122.593 43.7322 122.749 43.9399C122.904 44.1476 123.016 44.3835 123.079 44.6341L124.457 50.0734ZM120.103 51.0371L122.396 50.4711L121.069 45.2184L118.774 45.7844L120.103 51.0371ZM123.836 77.6539C123.732 78.1666 123.427 78.6179 122.988 78.9084C122.548 79.199 122.009 79.3051 121.49 79.2034L113.958 77.6998L114.374 75.6577L117.431 76.2696L118.514 70.9618L115.46 70.35L115.871 68.3324L123.404 69.836C123.659 69.8873 123.902 69.9879 124.118 70.132C124.335 70.2761 124.52 70.4609 124.664 70.6759C124.807 70.8909 124.907 71.1317 124.956 71.3848C125.006 71.6378 125.004 71.8979 124.952 72.1503L123.836 77.6539ZM119.485 76.6765L121.807 77.1354L122.891 71.8276L120.569 71.3687L119.485 76.6765ZM114.772 92.2586L113.8 94.108L114.6 94.5118C115.068 94.7508 115.613 94.7969 116.116 94.6397C116.618 94.4826 117.037 94.1352 117.28 93.6735L119.903 88.6778C120.024 88.4489 120.097 88.1987 120.12 87.9417C120.143 87.6846 120.114 87.4256 120.035 87.1796C119.956 86.9336 119.828 86.7055 119.66 86.5082C119.491 86.3109 119.285 86.1484 119.053 86.03L117.359 85.1612C117.128 85.0421 116.874 84.9693 116.614 84.947C116.354 84.9248 116.092 84.9534 115.843 85.0315C115.594 85.1095 115.363 85.2353 115.163 85.4017C114.964 85.568 114.799 85.7717 114.679 86.001L112.112 90.8958L110.609 90.131L113.133 85.3249L113.837 85.6843L114.796 83.858L113.997 83.4496C113.765 83.33 113.512 83.2569 113.251 83.2344C112.991 83.2119 112.729 83.2405 112.48 83.3186C112.231 83.3967 112 83.5226 111.8 83.6892C111.6 83.8558 111.436 84.0597 111.317 84.2893L108.694 89.2835C108.452 89.7464 108.406 90.2851 108.565 90.7817C108.724 91.2783 109.076 91.6922 109.544 91.9328L111.236 92.8001C111.705 93.0392 112.25 93.085 112.752 92.9276C113.255 92.7702 113.674 92.4224 113.918 91.9604L116.495 87.0472L117.999 87.812L115.475 92.6181L114.772 92.2586ZM107.571 94.732L104.139 98.9538L110.045 103.644L108.725 105.268L102.733 100.512C102.322 100.186 102.059 99.712 102.001 99.1943C101.943 98.6767 102.095 98.1573 102.423 97.7499L105.984 93.363C106.147 93.1612 106.349 92.9932 106.578 92.8686C106.807 92.7439 107.058 92.6652 107.318 92.6368C107.578 92.6084 107.841 92.6309 108.092 92.703C108.343 92.7751 108.577 92.8954 108.78 93.0571L114.771 97.8127L113.465 99.4172L107.571 94.732ZM99.272 112.685C99.7989 112.731 100.323 112.568 100.728 112.232L105.094 108.645C105.295 108.481 105.461 108.278 105.583 108.05C105.705 107.822 105.78 107.572 105.803 107.315C105.827 107.058 105.799 106.799 105.721 106.553C105.643 106.306 105.517 106.078 105.35 105.88L100.431 100.046L98.8298 101.363L100.826 103.722L96.6142 107.188L94.6201 104.821L92.999 106.155L97.9178 111.989C98.258 112.389 98.7451 112.64 99.272 112.685ZM99.4692 110.573L97.9566 108.778L102.168 105.312L103.681 107.107L99.4692 110.573ZM87.5013 111.611L82.488 113.802L85.5552 120.647L83.626 121.491L80.5248 114.547C80.3126 114.07 80.2999 113.53 80.4897 113.045C80.6794 112.559 81.0562 112.167 81.5374 111.955L86.7458 109.678C86.9845 109.573 87.2418 109.516 87.503 109.509C87.7641 109.503 88.024 109.548 88.2676 109.641C88.5113 109.734 88.734 109.874 88.9229 110.052C89.1118 110.23 89.2633 110.444 89.3685 110.68L92.4789 117.623L90.5746 118.455L87.5013 111.611ZM89.9522 122.397L88.0231 123.239L87.5462 120.503L89.4753 119.659L89.9522 122.397ZM78.7861 122.843L80.8174 122.384L78.6932 113.048L69.2488 115.148L69.7133 117.168L77.1186 115.519L78.7861 122.843ZM60.0398 125L59.9624 122.93L63.7494 122.793L63.4708 115.311L65.5655 115.236L65.8427 122.716L69.6297 122.579L69.7071 124.648L60.0398 125ZM56.0763 124.559L58.1664 124.723L58.9391 115.197L56.8504 115.032L56.0763 124.559ZM45.6984 122.706L43.5865 122.247L45.6767 112.916L47.7235 113.363L46.3208 119.622C46.8691 119.208 47.4351 118.775 48.0032 118.34L48.0037 118.339C48.8245 117.711 49.6498 117.079 50.433 116.498L52.8436 121.035L54.237 114.788L56.2698 115.233L54.1797 124.564L52.0818 124.105L49.7254 119.634L45.6984 122.706ZM32.9275 117.545C33.1059 117.734 33.3203 117.887 33.5585 117.994L38.722 120.345C39.2002 120.562 39.7459 120.583 40.2394 120.402C40.7328 120.222 41.1337 119.855 41.354 119.383L44.5743 112.488L42.6839 111.627L41.3788 114.423L36.4011 112.156L37.7048 109.36L35.7896 108.488L32.5739 115.383C32.465 115.619 32.4041 115.873 32.3946 116.131C32.3852 116.39 32.4274 116.648 32.5188 116.89C32.6103 117.133 32.7491 117.355 32.9275 117.545ZM34.534 116.159L35.5232 114.037L40.5024 116.304L39.5131 118.426L34.534 116.159ZM19.2247 107.962C19.0254 107.794 18.8615 107.589 18.7425 107.358C18.6235 107.128 18.5516 106.876 18.531 106.618C18.5105 106.36 18.5416 106.101 18.6227 105.854C18.7037 105.608 18.8331 105.38 19.0034 105.184L22.7192 100.916C22.8907 100.721 23.0995 100.56 23.3337 100.445C23.5679 100.329 23.8228 100.26 24.0841 100.241C24.3453 100.223 24.6076 100.255 24.8561 100.337C25.1046 100.419 25.3344 100.548 25.5324 100.717L31.3476 105.661L25.04 112.905L19.2247 107.962ZM28.4028 105.889L24.2473 102.356L20.6724 106.461L24.8279 109.993L28.4028 105.889ZM14.7301 103.258L16.1343 104.795L23.3152 98.3847L21.9109 96.8551L14.7301 103.258ZM10.0512 93.6215L13.9947 99.1281L15.3757 98.1614L12.2018 93.7255L13.9049 92.5294L17.0804 96.9652L18.4629 95.9985L14.5195 90.4919L16.2303 89.2958L21.3922 96.5002L13.4961 102.022L8.33423 94.8177L10.0512 93.6215ZM5.05967 83.3823L3.15686 84.2496L7.20554 92.9332L9.10994 92.0659L7.52297 88.6671L14.4034 85.5268L13.5255 83.6469L6.64505 86.7811L5.05967 83.3823ZM0.526305 74.5702C0.399631 74.0629 0.482157 73.5266 0.75567 73.0794C1.02918 72.6322 1.47134 72.3106 1.98483 72.1855L9.45206 70.3912L9.95056 72.4149L6.92216 73.143L8.21807 78.4049L11.2465 77.6784L11.7388 79.6776L4.2716 81.478C4.01774 81.5395 3.754 81.5509 3.49566 81.5115C3.23732 81.4721 2.98941 81.3828 2.76614 81.2484C2.54287 81.1141 2.34863 80.9376 2.19461 80.7289C2.0406 80.5202 1.92989 80.2836 1.86871 80.0325L0.526305 74.5702ZM4.88622 73.6325L2.58863 74.1847L3.88295 79.4466L6.18054 78.8944L4.88622 73.6325ZM4.3522 66.636C5.93923 66.636 7.22576 65.365 7.22576 63.7971C7.22576 62.2292 5.93923 60.9581 4.3522 60.9581C2.76518 60.9581 1.47864 62.2292 1.47864 63.7971C1.47864 65.365 2.76518 66.636 4.3522 66.636ZM123.577 61.9049C123.577 63.4729 122.291 64.7439 120.704 64.7439C119.117 64.7439 117.83 63.4729 117.83 61.9049C117.83 60.337 119.117 59.066 120.704 59.066C122.291 59.066 123.577 60.337 123.577 61.9049Z" fill="white"/>
</svg>
