<svg width="15" height="16" viewBox="0 0 15 16" fill="none" xmlns="http://www.w3.org/2000/svg">
<path fill-rule="evenodd" clip-rule="evenodd" d="M1.6 7.95475C1.6 4.8081 4.15087 2.25723 7.29753 2.25723C10.4442 2.25723 12.9951 4.8081 12.9951 7.95475C12.9951 11.1014 10.4442 13.6523 7.29753 13.6523C4.15087 13.6523 1.6 11.1014 1.6 7.95475ZM7.29753 0.657227C3.26721 0.657227 0 3.92444 0 7.95475C0 11.9851 3.26721 15.2523 7.29753 15.2523C11.3278 15.2523 14.595 11.9851 14.595 7.95475C14.595 3.92444 11.3278 0.657227 7.29753 0.657227ZM4.69851 7.15475C4.25669 7.15475 3.89851 7.51292 3.89851 7.95475C3.89851 8.39658 4.25669 8.75475 4.69851 8.75475H9.89653C10.3384 8.75475 10.6965 8.39658 10.6965 7.95475C10.6965 7.51292 10.3384 7.15475 9.89653 7.15475H4.69851Z" fill="white"/>
</svg>
