<svg width="23" height="22" viewBox="0 0 23 22" fill="none" xmlns="http://www.w3.org/2000/svg">
<path fill-rule="evenodd" clip-rule="evenodd" d="M11.5 2C6.52944 2 2.5 6.02944 2.5 11C2.5 15.9706 6.52944 20 11.5 20C16.4706 20 20.5 15.9706 20.5 11C20.5 6.02944 16.4706 2 11.5 2ZM0.5 11C0.5 4.92487 5.42487 0 11.5 0C17.5751 0 22.5 4.92487 22.5 11C22.5 17.0751 17.5751 22 11.5 22C5.42487 22 0.5 17.0751 0.5 11ZM12.2071 6.29289L16.2064 10.2922C16.2088 10.2946 16.2112 10.297 16.2136 10.2995C16.3901 10.4792 16.4992 10.7254 16.5 10.997C16.5 10.998 16.5 10.999 16.5 11C16.5 11.001 16.5 11.002 16.5 11.003C16.4996 11.1375 16.4727 11.2657 16.4241 11.3828C16.3764 11.498 16.3063 11.6062 16.2136 11.7005C16.2112 11.703 16.2088 11.7054 16.2064 11.7078L12.2071 15.7071C11.8166 16.0976 11.1834 16.0976 10.7929 15.7071C10.4024 15.3166 10.4024 14.6834 10.7929 14.2929L13.0858 12H7.5C6.94772 12 6.5 11.5523 6.5 11C6.5 10.4477 6.94772 10 7.5 10H13.0858L10.7929 7.70711C10.4024 7.31658 10.4024 6.68342 10.7929 6.29289C11.1834 5.90237 11.8166 5.90237 12.2071 6.29289Z" fill="white"/>
</svg>
