<svg width="293" height="21" viewBox="0 0 293 21" fill="none" xmlns="http://www.w3.org/2000/svg">
<path d="M23.3333 11.3137C23.5161 10.8751 24.1374 9.23035 24.1374 9.23035C24.1374 9.2669 24.3202 8.79175 24.3933 8.5359L24.5395 9.1938C24.5395 9.1938 24.9415 10.9847 25.0146 11.3502H23.3333V11.3137Z" fill="#FFD3D6"/>
<path fill-rule="evenodd" clip-rule="evenodd" d="M2.5 0.253784C1.11929 0.253784 0 1.37307 0 2.75378V17.7538C0 19.1345 1.11929 20.2538 2.5 20.2538H27.5C28.8807 20.2538 30 19.1345 30 17.7538V2.75378C30 1.37307 28.8807 0.253784 27.5 0.253784H2.5ZM20.3363 11.533C20.3363 13.0681 18.9474 14.0915 16.7909 14.0915C15.8772 14.0915 15 13.9087 14.5249 13.6894L14.8173 12.0082L15.0731 12.1178C15.731 12.4102 16.1696 12.5198 16.9737 12.5198C17.5585 12.5198 18.1798 12.3005 18.1798 11.7889C18.1798 11.4599 17.924 11.2406 17.1199 10.8751C16.3523 10.5096 15.3289 9.92482 15.3289 8.86488C15.3289 7.40289 16.7544 6.41605 18.7646 6.41605C19.5322 6.41605 20.1901 6.56224 20.5921 6.74499L20.2997 8.35318L20.1535 8.20698C19.788 8.06078 19.3129 7.91458 18.6184 7.91458C17.8509 7.95113 17.4854 8.28008 17.4854 8.57248C17.4854 8.90143 17.924 9.15727 18.6184 9.48622C19.788 10.0345 20.3363 10.6558 20.3363 11.533ZM25.8187 6.52567H24.2471C23.7719 6.52567 23.4064 6.67187 23.1871 7.14702L20.1901 13.9818H22.3099C22.3099 13.9818 22.6754 13.0681 22.7485 12.8488H25.3436C25.4167 13.1046 25.5994 13.9453 25.5994 13.9453H27.5L25.8187 6.52567ZM2.53655 6.45262L2.5 6.59882C4.94883 7.18361 6.55702 8.60905 7.25146 10.3634L6.55702 7.07396C6.44737 6.59882 6.11842 6.45262 5.67982 6.45262H2.53655ZM11.674 6.52569L8.49415 13.9453H6.33772L4.51023 7.73184C5.82602 8.57248 6.92251 9.88827 7.32456 10.802L7.54386 11.5696L9.51754 6.48915H11.674V6.52569ZM14.5249 6.48915H12.5146L11.2354 13.9453H13.2456L14.5249 6.48915Z" fill="#FFD3D6"/>
<path d="M225.259 10.8605C225.259 10.9273 225.262 10.994 225.27 11.0569L228.157 9.82769C227.862 9.47425 227.422 9.2504 226.928 9.24254C226.02 9.22684 225.274 9.95336 225.259 10.8605Z" fill="#FFD3D6"/>
<path fill-rule="evenodd" clip-rule="evenodd" d="M210.345 2.75378C210.345 1.37307 211.464 0.253784 212.845 0.253784H237.845C239.226 0.253784 240.345 1.37307 240.345 2.75378V17.7538C240.345 19.1345 239.226 20.2538 237.845 20.2538H212.845C211.464 20.2538 210.345 19.1345 210.345 17.7538V2.75378ZM216.568 7.69919C216.835 7.60887 217.122 7.56174 217.42 7.56174C218.724 7.56174 219.812 8.48855 220.059 9.71774L221.905 9.34073C221.481 7.2515 219.635 5.67672 217.42 5.67672C216.913 5.67672 216.426 5.75919 215.971 5.91235L216.568 7.69919ZM215.637 12.2704L214.388 13.6841C213.442 12.8437 212.845 11.6185 212.845 10.2558C212.845 8.88912 213.442 7.66778 214.388 6.82738L215.637 8.23722C215.08 8.72811 214.73 9.4507 214.73 10.2518C214.73 11.0569 215.08 11.7756 215.637 12.2704ZM220.059 10.7938C219.808 12.023 218.724 12.9459 217.42 12.9459C217.122 12.9459 216.835 12.8987 216.564 12.8084L215.967 14.5953C216.423 14.7484 216.913 14.8309 217.42 14.8309C219.635 14.8309 221.481 13.26 221.905 11.1708L220.059 10.7938ZM226.88 12.5296C227.336 12.5374 227.748 12.3568 228.055 12.0583L228.86 12.883C228.345 13.3818 227.638 13.6881 226.865 13.6763C226.331 13.6685 225.84 13.5114 225.419 13.2483L226.032 12.2743C226.276 12.4314 226.566 12.5257 226.88 12.5296ZM224.112 10.837C224.135 9.29756 225.408 8.06444 226.947 8.08801C228.255 8.11157 229.339 9.02659 229.622 10.24L224.563 12.4039C224.269 11.9562 224.104 11.4143 224.112 10.837ZM231.212 12.2232V6.83129H230.14V12.2389C230.14 12.5295 230.218 12.7495 230.321 12.9066C230.427 13.0636 230.568 13.2011 230.776 13.2914L231.703 13.6763L232.147 12.612L231.212 12.2232ZM235.108 9.24254C234.923 9.24254 234.75 9.27003 234.585 9.32501L234.224 8.23327C234.499 8.14295 234.798 8.0919 235.108 8.0919C236.459 8.0919 237.586 9.05011 237.845 10.3264L236.718 10.5581C236.565 9.80805 235.905 9.24254 235.108 9.24254ZM234.016 12.1133L233.254 12.9733C232.677 12.4628 232.312 11.7166 232.312 10.8841C232.312 10.0515 232.677 9.30145 233.254 8.79092L234.016 9.65097C233.678 9.94943 233.462 10.3893 233.462 10.8802C233.462 11.371 233.674 11.8109 234.016 12.1133ZM235.108 12.5295C235.901 12.5295 236.565 11.964 236.718 11.2139L237.845 11.4457C237.586 12.722 236.459 13.6802 235.108 13.6802C234.798 13.6802 234.499 13.6291 234.22 13.5349L234.585 12.4432C234.75 12.4981 234.927 12.5295 235.108 12.5295Z" fill="#FFD3D6"/>
<path d="M287.246 11.567L287.351 11.5615L287.456 11.5559L287.676 11.4859L287.752 11.4352C287.794 11.4073 287.85 11.365 287.875 11.3412C287.901 11.3174 287.941 11.2698 287.965 11.2355C287.989 11.2012 288.026 11.1369 288.047 11.0926C288.068 11.0484 288.094 10.9796 288.105 10.94C288.121 10.8814 288.137 10.8227 288.152 10.7639C288.168 10.7067 288.196 10.5756 288.216 10.4726C288.236 10.3697 288.27 10.1855 288.292 10.0634C288.315 9.94134 288.346 9.76654 288.362 9.67498C288.378 9.58346 288.395 9.49142 288.399 9.47046L288.407 9.43238L288.367 9.41714C288.346 9.40874 288.269 9.38542 288.196 9.36534L288.065 9.32874L287.607 9.32886L287.389 9.40438L287.327 9.44258C287.292 9.46358 287.235 9.50934 287.199 9.54414C287.163 9.57902 287.108 9.64146 287.077 9.6829C287.046 9.72434 287.002 9.79566 286.978 9.84146C286.948 9.89978 286.919 9.9589 286.892 10.0187C286.869 10.0704 286.851 10.1203 286.851 10.1296C286.85 10.139 286.835 10.1966 286.816 10.2576L286.781 10.3686L286.736 10.6876L286.733 11.0483L286.752 11.1385L286.771 11.2287L286.856 11.3905L286.969 11.4837L287.037 11.5126C287.074 11.5285 287.136 11.5473 287.175 11.5543L287.246 11.567Z" fill="#FFD3D6"/>
<path d="M282.488 11.568L282.71 11.5565L282.935 11.4853L282.986 11.4507C283.014 11.4316 283.042 11.4159 283.048 11.4159C283.054 11.4159 283.097 11.3789 283.143 11.3335L283.226 11.2511L283.277 11.166C283.304 11.1192 283.327 11.0772 283.327 11.0725C283.327 11.0679 283.346 11.0169 283.368 10.9591C283.391 10.9013 283.425 10.7948 283.444 10.7223C283.464 10.6498 283.488 10.5415 283.498 10.4817L283.517 10.3728L283.473 10.3547H282.779L282.557 10.4075L282.379 10.4934L282.211 10.6605L282.167 10.7511C282.142 10.8009 282.112 10.8782 282.099 10.9227L282.076 11.0036L282.087 11.2702L282.117 11.3273C282.133 11.3587 282.162 11.4027 282.181 11.4252L282.215 11.4659L282.278 11.4983C282.313 11.516 282.374 11.539 282.414 11.5492L282.488 11.568Z" fill="#FFD3D6"/>
<path d="M275.296 9.9949C275.296 9.9983 275.61 10.001 275.994 10.001H276.692L276.721 9.7305L276.696 9.56794L276.676 9.5313C276.666 9.51118 276.638 9.4741 276.615 9.44894L276.572 9.40314L276.417 9.33226L276.204 9.30486L276.065 9.31378C275.989 9.31862 275.902 9.32902 275.871 9.33686C275.841 9.3447 275.775 9.37054 275.726 9.39426L275.635 9.43734L275.452 9.6199L275.41 9.70298C275.387 9.74866 275.352 9.83162 275.332 9.88738C275.312 9.94318 275.296 9.99158 275.296 9.9949Z" fill="#FFD3D6"/>
<path d="M272.66 11.5673L272.736 11.5808L272.968 11.5669L273.203 11.4868L273.254 11.4489C273.288 11.4233 273.321 11.3967 273.353 11.3692C273.38 11.3463 273.425 11.2953 273.453 11.256C273.481 11.2167 273.53 11.1352 273.562 11.0748L273.62 10.9651L273.667 10.8296C273.693 10.7551 273.731 10.6241 273.75 10.5383L273.786 10.3825L273.8 9.85538L273.777 9.76622C273.764 9.71718 273.739 9.64826 273.721 9.61302L273.689 9.54898L273.568 9.42802L273.425 9.36194L273.222 9.31862L272.972 9.33326L272.778 9.39338L272.703 9.43562C272.662 9.45882 272.593 9.50762 272.549 9.54398L272.47 9.61014L272.434 9.80214C272.414 9.9077 272.378 10.1034 272.355 10.2369C272.329 10.3803 272.303 10.5237 272.276 10.6669L272.24 10.8542L272.226 11.0932L272.244 11.1678C272.254 11.2089 272.275 11.2738 272.293 11.3119L272.324 11.3813L272.377 11.4325L272.431 11.4838L272.585 11.554L272.66 11.5673Z" fill="#FFD3D6"/>
<path fill-rule="evenodd" clip-rule="evenodd" d="M265.431 0.253784C264.051 0.253784 262.931 1.37307 262.931 2.75378V17.7538C262.931 19.1345 264.051 20.2538 265.431 20.2538H290.431C291.812 20.2538 292.931 19.1345 292.931 17.7538V2.75378C292.931 1.37307 291.812 0.253784 290.431 0.253784H265.431ZM271.337 8.5029L271.169 8.50226L271.053 8.4495L271.023 8.39046L270.993 8.33138L271.005 8.0937L271.069 7.94114L271.152 7.85278L271.294 7.78922H271.502L271.599 7.84902L271.627 7.89506L271.655 7.94114L271.652 8.1769L271.621 8.25698L271.59 8.3371L271.471 8.4573L271.337 8.5029ZM284.978 11.8875H284.373L284.465 11.4229C284.488 11.3085 284.525 11.1181 284.547 10.9998C284.57 10.8816 284.604 10.7005 284.623 10.5975C284.65 10.4521 284.676 10.3064 284.7 10.1606C284.728 9.99186 284.756 9.8231 284.783 9.65426C284.806 9.5131 284.837 9.31266 284.853 9.20878C284.868 9.10494 284.881 9.01598 284.881 9.01114V9.00226H285.394L285.394 9.0335C285.393 9.05066 285.375 9.15522 285.354 9.26586C285.332 9.37646 285.316 9.46898 285.318 9.47138C285.32 9.47382 285.346 9.4395 285.376 9.3951L285.429 9.31438L285.628 9.10634L285.78 9.01418L285.984 8.94258L286.234 8.94194L286.303 8.96382C286.338 8.9749 286.374 8.98694 286.409 8.9999L286.445 9.01418L286.413 9.17122C286.395 9.25762 286.38 9.34818 286.38 9.37254L286.379 9.41678L286.368 9.4239L286.356 9.43102L286.22 9.38722L285.873 9.38478L285.793 9.42338C285.749 9.44462 285.676 9.48986 285.631 9.52402L285.548 9.58606L285.398 9.78642L285.34 9.90734C285.309 9.97382 285.283 10.0361 285.283 10.0458C285.283 10.0555 285.273 10.0915 285.261 10.1259C285.249 10.1602 285.22 10.2757 285.197 10.3825C285.175 10.4893 285.148 10.6297 285.137 10.6945C285.127 10.7595 285.103 10.9092 285.083 11.0275C285.064 11.1457 285.032 11.3459 285.013 11.4723L284.978 11.7022V11.8875ZM277.941 11.8875L277.349 11.8875V11.8753C277.349 11.8687 277.357 11.8203 277.368 11.7679C277.379 11.7154 277.407 11.5758 277.43 11.4575C277.485 11.1803 277.538 10.9029 277.591 10.6252C277.617 10.4799 277.643 10.3341 277.667 10.1883C277.69 10.051 277.724 9.83874 277.743 9.71666C277.763 9.59458 277.794 9.39898 277.813 9.2819C277.832 9.16486 277.848 9.0541 277.848 9.0357V9.00226H278.377L278.37 9.02658C278.366 9.03986 278.349 9.12574 278.333 9.2173C278.317 9.30882 278.299 9.4087 278.292 9.43926L278.28 9.4947L278.3 9.46698C278.33 9.42526 278.361 9.38366 278.391 9.34214C278.43 9.28874 278.493 9.21518 278.53 9.1787C278.567 9.14226 278.632 9.09082 278.673 9.06438C278.714 9.03798 278.781 9.00422 278.822 8.98934C278.862 8.97442 278.936 8.95506 278.985 8.9463L279.076 8.93034L279.145 8.9389C279.183 8.94366 279.26 8.96126 279.315 8.97806C279.37 8.99486 279.415 9.01258 279.415 9.01742C279.415 9.02226 279.4 9.10282 279.381 9.19646C279.362 9.29014 279.346 9.3815 279.346 9.3995C279.346 9.41754 279.342 9.43226 279.338 9.43226C279.333 9.43226 279.294 9.4217 279.251 9.40882L279.173 9.38542L278.854 9.3837L278.645 9.48342L278.476 9.64014L278.413 9.7339C278.378 9.78546 278.327 9.87602 278.3 9.93518C278.273 9.99434 278.25 10.0513 278.25 10.0618C278.25 10.0722 278.241 10.1071 278.23 10.1393C278.218 10.1715 278.185 10.3205 278.155 10.4705C278.12 10.6487 278.088 10.8275 278.058 11.0067C278.035 11.1516 278.003 11.3527 277.987 11.4536C277.972 11.5544 277.955 11.6933 277.95 11.7622L277.941 11.8875ZM270.965 11.8875H270.368L270.376 11.8563C270.381 11.8392 270.397 11.7659 270.412 11.6934C270.427 11.6209 270.458 11.4649 270.481 11.3466C270.504 11.2283 270.539 11.0473 270.558 10.9442L270.634 10.542C270.66 10.3966 270.686 10.2509 270.71 10.105C270.729 9.98302 270.764 9.76762 270.787 9.62646C270.81 9.48538 270.841 9.28874 270.854 9.18954L270.88 9.00918L271.483 9.00174L271.475 9.01394C271.471 9.02062 271.446 9.13774 271.419 9.27426C271.391 9.41078 271.353 9.60674 271.334 9.70974C271.315 9.8127 271.281 9.99062 271.259 10.105C271.233 10.2412 271.208 10.3776 271.184 10.5143C271.129 10.8385 271.076 11.1631 271.023 11.4877C271 11.6302 270.982 11.7687 270.982 11.7953C270.982 11.8219 270.978 11.8535 270.973 11.8656L270.965 11.8875ZM267.272 11.8875L266.598 11.8875V11.865C266.598 11.8526 266.614 11.7637 266.634 11.6673C266.654 11.571 266.675 11.4609 266.682 11.4228C266.688 11.3847 266.709 11.2786 266.728 11.187C266.755 11.0554 266.781 10.9236 266.806 10.7917L266.882 10.3894C266.908 10.2531 266.933 10.1167 266.958 9.98014C266.987 9.81394 267.015 9.64746 267.042 9.48078L267.118 9.00222C267.137 8.88398 267.172 8.66862 267.195 8.52366C267.219 8.3787 267.244 8.21954 267.251 8.16994C267.259 8.12034 267.275 8.02518 267.287 7.95842L267.309 7.83702H267.988L267.98 7.85902C267.975 7.8711 267.959 7.95226 267.944 8.03934C267.928 8.12642 267.906 8.24294 267.895 8.29822C267.883 8.35358 267.867 8.44254 267.86 8.49594C267.852 8.54934 267.83 8.6773 267.811 8.78026C267.791 8.88674 267.77 8.9931 267.749 9.09934C267.732 9.18222 267.717 9.26526 267.702 9.3485C267.691 9.41306 267.683 9.46694 267.684 9.4683C267.686 9.46958 267.877 9.47522 268.109 9.4807L268.53 9.4907L269.536 9.47034L269.559 9.31606C269.58 9.18126 269.601 9.04662 269.624 8.9121C269.646 8.77474 269.68 8.57814 269.699 8.4751C269.717 8.3721 269.745 8.2161 269.76 8.12834C269.775 8.04062 269.791 7.93914 269.796 7.90294L269.806 7.83702H270.491L270.468 7.93758C270.455 7.99294 270.425 8.1443 270.401 8.27398C270.378 8.40366 270.343 8.59718 270.323 8.70398C270.304 8.81082 270.269 9.00122 270.246 9.12706C270.223 9.25298 270.186 9.4527 270.163 9.57098C270.137 9.70954 270.112 9.84826 270.088 9.98714C270.069 10.0977 270.034 10.3037 270.011 10.4449C269.988 10.586 269.95 10.8076 269.928 10.9373C269.906 11.067 269.875 11.2481 269.859 11.3396C269.844 11.4311 269.824 11.5529 269.817 11.6101C269.809 11.6673 269.795 11.7532 269.787 11.8009L269.772 11.8875H269.095L269.095 11.8702C269.095 11.8606 269.117 11.7311 269.144 11.5823C269.171 11.4336 269.208 11.2338 269.226 11.1385C269.252 11.0022 269.278 10.8658 269.303 10.7293L269.387 10.2715C269.41 10.1494 269.435 10.0135 269.444 9.96946L269.46 9.88938L269.45 9.8793L269.44 9.86926H267.627L267.619 9.87702C267.615 9.8813 267.596 9.96866 267.578 10.0713C267.56 10.1738 267.529 10.3513 267.509 10.4657C267.489 10.5801 267.454 10.7892 267.431 10.9304L267.354 11.3882C267.336 11.4987 267.31 11.6564 267.297 11.7384L267.272 11.8875ZM287.246 11.9567L287.114 11.955C287.042 11.9541 286.944 11.9483 286.896 11.9422C286.849 11.9361 286.771 11.9203 286.723 11.9071C286.675 11.8939 286.598 11.8645 286.552 11.8418L286.469 11.8005L286.408 11.7505L286.347 11.7006L286.24 11.556L286.211 11.4824C286.195 11.4421 286.173 11.3809 286.163 11.3466L286.145 11.2841L286.113 10.9373L286.155 10.5063L286.197 10.3403C286.221 10.2491 286.256 10.1307 286.277 10.0773C286.297 10.0239 286.347 9.90958 286.389 9.82326L286.464 9.66638L286.528 9.57454C286.564 9.52402 286.63 9.44222 286.676 9.39278L286.76 9.30282L286.955 9.1591L287.218 9.03054L287.496 8.96042L287.801 8.93198L288.161 8.96006L288.293 8.99314C288.366 9.01134 288.436 9.03074 288.448 9.03622L288.472 9.04618L288.479 8.99994C288.495 8.90126 288.512 8.80262 288.528 8.70398C288.556 8.53298 288.584 8.36194 288.611 8.19078C288.634 8.04578 288.657 7.88818 288.662 7.8405L288.67 7.75378H289.264V7.76422C289.264 7.7699 289.249 7.84642 289.231 7.9341C289.204 8.0611 289.179 8.1883 289.154 8.31562C289.131 8.43766 289.096 8.62494 289.076 8.73174L289 9.14098C288.978 9.25922 288.941 9.45894 288.918 9.58486C288.896 9.7107 288.861 9.90426 288.842 10.0149C288.823 10.1255 288.794 10.2909 288.778 10.3825C288.762 10.474 288.733 10.6487 288.715 10.7708C288.696 10.8929 288.663 11.1519 288.64 11.3465L288.598 11.7003V11.8875H288.054L288.063 11.7939C288.068 11.7424 288.078 11.6691 288.085 11.6309C288.093 11.5849 288.099 11.5386 288.104 11.4922L288.111 11.4228L288.103 11.4437C288.098 11.4551 288.061 11.5097 288.019 11.5651L287.944 11.6655L287.801 11.7916L287.718 11.8343C287.672 11.8577 287.603 11.8857 287.565 11.8965C287.527 11.9073 287.44 11.9253 287.371 11.9364L287.246 11.9567ZM282.613 11.9447L282.238 11.9554L282.157 11.9425C282.112 11.9354 282.032 11.9175 281.98 11.9027L281.885 11.8759L281.719 11.7751L281.672 11.7205C281.647 11.6905 281.609 11.6349 281.588 11.597L281.551 11.5279L281.51 11.3163V11.0621L281.552 10.8199L281.599 10.7121C281.624 10.6528 281.666 10.5731 281.692 10.535C281.717 10.4969 281.776 10.4282 281.822 10.3824L281.905 10.2991L282.011 10.2333C282.069 10.1971 282.123 10.1675 282.13 10.1675C282.137 10.1675 282.169 10.1549 282.201 10.1395C282.232 10.1242 282.332 10.0915 282.422 10.0669L282.585 10.0221L283.583 10.0185L283.631 9.78598L283.632 9.5741L283.542 9.43974L283.381 9.36026L283.14 9.31794L282.765 9.33338L282.557 9.36882C282.443 9.38834 282.29 9.42002 282.219 9.43934C282.147 9.45862 282.086 9.47242 282.084 9.46994C282.082 9.46746 282.097 9.39714 282.119 9.31362C282.141 9.23006 282.166 9.12586 282.175 9.08202L282.192 9.00222L282.419 9.00134L282.585 8.98118C282.677 8.97002 282.855 8.9545 282.983 8.94666L283.214 8.93234L283.573 8.95962L283.833 9.01762L284.008 9.10626L284.115 9.20854L284.193 9.36914L284.191 9.71662L284.154 9.91774C284.133 10.0284 284.099 10.2187 284.077 10.3408C284.055 10.4629 284.021 10.6565 284.001 10.7708C283.982 10.8853 283.95 11.0943 283.93 11.2355L283.893 11.4921L283.878 11.8874H283.369L283.369 11.8008C283.369 11.7531 283.378 11.6518 283.389 11.5755C283.4 11.4994 283.407 11.4353 283.404 11.4331C283.402 11.4308 283.375 11.4619 283.345 11.5022C283.315 11.5425 283.259 11.6057 283.222 11.6429C283.184 11.68 283.119 11.7333 283.077 11.7612C283.036 11.7893 282.967 11.8285 282.925 11.8483L282.849 11.8843L282.613 11.9447ZM280.296 11.9569L280.144 11.9552C280.06 11.9543 279.955 11.948 279.91 11.9415C279.865 11.935 279.781 11.9164 279.723 11.9002L279.617 11.8707L279.536 11.8281L279.455 11.7854L279.379 11.7103L279.303 11.6352L279.255 11.5602L279.207 11.4852L279.124 11.2777L279.097 11.0759L279.097 10.7292L279.123 10.4656L279.159 10.3199C279.178 10.2398 279.217 10.1087 279.245 10.0286L279.296 9.88302L279.362 9.74846C279.398 9.67442 279.455 9.57482 279.487 9.52702L279.547 9.44014L279.653 9.33558C279.711 9.27806 279.777 9.21854 279.798 9.20326C279.834 9.1787 279.871 9.1551 279.908 9.13246C279.947 9.10878 280.019 9.0733 280.068 9.05366L280.157 9.01794L280.435 8.95966L280.81 8.9309L281.075 8.94614C281.221 8.95458 281.392 8.9673 281.455 8.97446C281.518 8.98162 281.572 8.99022 281.575 8.99358C281.579 8.9969 281.572 9.0517 281.561 9.11538C281.549 9.17898 281.532 9.28254 281.523 9.34546C281.513 9.40842 281.503 9.45994 281.501 9.45994C281.499 9.45994 281.464 9.44758 281.424 9.43254L281.351 9.40518L280.99 9.33302L280.685 9.3177L280.581 9.33394C280.523 9.34282 280.436 9.36254 280.387 9.37774L280.297 9.40538L280.158 9.49198L280.026 9.6287L279.972 9.72114C279.942 9.77202 279.898 9.86046 279.873 9.91766C279.848 9.9749 279.822 10.0404 279.816 10.0633C279.81 10.0862 279.792 10.1486 279.776 10.202L279.748 10.2991L279.693 10.6598L279.693 10.9575L279.738 11.1869L279.832 11.3585L279.974 11.4826L280.158 11.5464L280.481 11.5574L280.861 11.4837L280.995 11.4341C281.068 11.4069 281.136 11.3783 281.146 11.3705C281.156 11.3628 281.166 11.3589 281.169 11.3619C281.172 11.3649 281.168 11.4048 281.16 11.4506C281.153 11.4963 281.135 11.5924 281.121 11.6641C281.107 11.7357 281.09 11.7987 281.084 11.804C281.078 11.8092 281.025 11.8271 280.967 11.8437C280.896 11.8631 280.824 11.8801 280.752 11.8947C280.692 11.9063 280.565 11.9251 280.47 11.9363L280.296 11.9569ZM275.885 11.9569L275.733 11.9551C275.649 11.9542 275.537 11.9478 275.484 11.941C275.431 11.9342 275.337 11.9163 275.274 11.9012L275.161 11.8737L275.079 11.8365C275.034 11.8161 274.966 11.7761 274.928 11.7478C274.89 11.7194 274.833 11.6689 274.802 11.6357C274.77 11.6025 274.728 11.5472 274.709 11.5129C274.689 11.4785 274.661 11.4161 274.645 11.3742C274.63 11.3322 274.608 11.2573 274.596 11.2077L274.575 11.1175L274.574 10.7047L274.597 10.5643C274.612 10.4708 274.63 10.3777 274.652 10.2853C274.669 10.209 274.7 10.0997 274.72 10.0425C274.739 9.9853 274.769 9.90726 274.785 9.86914C274.801 9.83098 274.836 9.7561 274.863 9.70266C274.89 9.64926 274.937 9.56814 274.968 9.52234C274.999 9.47654 275.056 9.40782 275.094 9.3695C275.133 9.33122 275.192 9.27714 275.226 9.2493C275.261 9.2215 275.329 9.17574 275.379 9.14762C275.429 9.1195 275.516 9.07774 275.573 9.0549L275.677 9.01334L276.01 8.94938L276.288 8.93134L276.586 8.9599L276.829 9.01826L276.898 9.05514C276.936 9.07542 276.989 9.10778 277.017 9.12702C277.044 9.14626 277.085 9.18378 277.108 9.21038C277.131 9.23702 277.167 9.28702 277.186 9.3215L277.223 9.38422L277.267 9.5737L277.266 9.8275L277.246 9.97838C277.234 10.0613 277.215 10.1737 277.202 10.2281L277.179 10.3269L275.636 10.3169L275.218 10.3365L275.17 10.6459L275.171 10.9928L275.224 11.1802L275.31 11.3297L275.419 11.4287L275.486 11.4615C275.522 11.4797 275.59 11.5064 275.635 11.521L275.719 11.5475L276.204 11.5466L276.357 11.5171L276.51 11.4874L276.655 11.4395C276.735 11.4132 276.824 11.3803 276.852 11.3665L276.904 11.3415L276.912 11.349L276.919 11.3564L276.885 11.5214C276.867 11.6121 276.848 11.7145 276.843 11.7489L276.835 11.8114L276.665 11.8487C276.572 11.8692 276.427 11.8957 276.343 11.9075C276.259 11.9193 276.122 11.9353 276.038 11.9429L275.885 11.9569ZM271.875 13.1556L271.866 13.1776L271.27 13.1775L271.277 13.1463C271.281 13.1292 271.303 13.0214 271.326 12.9071C271.354 12.7638 271.382 12.6205 271.409 12.4771C271.438 12.3245 271.466 12.1719 271.494 12.0193L271.646 11.194C271.669 11.0681 271.707 10.8558 271.729 10.7223C271.781 10.4196 271.832 10.1167 271.882 9.81378C271.905 9.67642 271.943 9.4377 271.968 9.28318L272.012 9.00226H272.521L272.521 9.01958C272.52 9.02918 272.509 9.09178 272.495 9.15878L272.469 9.28066L272.506 9.25678C272.526 9.24374 272.55 9.2245 272.561 9.21414C272.571 9.20378 272.612 9.17446 272.652 9.14894C272.692 9.12342 272.767 9.08314 272.818 9.0595L272.911 9.01634L273.125 8.96162L273.388 8.93146L273.624 8.94874L273.86 9.00522L274.074 9.11586L274.255 9.30778L274.349 9.4947L274.407 9.74442L274.425 9.9941L274.409 10.1412C274.4 10.2221 274.381 10.3532 274.365 10.4325L274.337 10.5767L274.284 10.7431C274.254 10.8347 274.203 10.9721 274.171 11.0483C274.138 11.1245 274.094 11.2131 274.073 11.245C274.051 11.277 274.033 11.3065 274.033 11.3108C274.033 11.315 274.004 11.3576 273.968 11.4053C273.932 11.4532 273.861 11.533 273.812 11.5827L273.721 11.6733L273.624 11.7365C273.571 11.7712 273.489 11.8169 273.444 11.8377L273.36 11.8757L273.05 11.9559L272.764 11.9735L272.538 11.9443L272.349 11.8685L272.195 11.7135L272.161 11.6479C272.141 11.6119 272.122 11.5824 272.118 11.5824C272.113 11.5824 272.102 11.637 272.093 11.7038C272.077 11.816 272.06 11.9281 272.042 12.0402L271.968 12.5118C271.945 12.6529 271.917 12.8321 271.905 12.91C271.893 12.9878 271.883 13.07 271.883 13.0926C271.883 13.1152 271.879 13.1436 271.875 13.1556Z" fill="#FFD3D6"/>
<path fill-rule="evenodd" clip-rule="evenodd" d="M55.0862 0.253784C53.7055 0.253784 52.5862 1.37307 52.5862 2.75378V17.7538C52.5862 19.1345 53.7055 20.2538 55.0862 20.2538H80.0862C81.4669 20.2538 82.5862 19.1345 82.5862 17.7538V2.75378C82.5862 1.37307 81.4669 0.253784 80.0862 0.253784H55.0862ZM72.3628 17.7379C76.4617 17.7238 79.7219 14.3471 79.6528 10.1875C79.584 6.04872 76.2115 2.67383 72.1127 2.68787C70.3825 2.69379 68.8065 3.30541 67.5668 4.31304L67.6057 4.34409L67.385 4.34485C66.1158 3.35706 64.5289 2.76387 62.8096 2.76976C58.7107 2.78379 55.4505 6.1605 55.5196 10.3201C55.5887 14.4798 58.9608 17.8338 63.0597 17.8197C64.7899 17.8138 66.3658 17.2022 67.6056 16.1946L67.5661 16.1635L67.7874 16.1628C69.0565 17.1506 70.6434 17.7437 72.3628 17.7379Z" fill="#FFD3D6"/>
<path fill-rule="evenodd" clip-rule="evenodd" d="M118.99 13.5628H120.042C120.78 13.5628 121.511 13.3787 121.511 12.4868C121.511 11.5977 120.759 11.4291 120.09 11.4291H117.395L116.322 12.4815L115.285 11.4291H111.893V14.6397H115.233L116.312 13.5769L117.351 14.6397H118.99V13.5628ZM118.972 12.0868H120.072C120.376 12.0868 120.587 12.1997 120.588 12.4805C120.587 12.7582 120.386 12.9045 120.062 12.9045H118.972V12.0868ZM112.733 12.6705V12.0868H114.847L115.769 13.0225L114.806 13.9643H112.733V13.3256H114.584V12.6705H112.733ZM118.147 11.758V14.332L116.852 13.0243L118.147 11.758Z" fill="#FFD3D6"/>
<path fill-rule="evenodd" clip-rule="evenodd" d="M125.242 14.0032C125.239 13.7202 125.222 13.5739 125.103 13.4172C125.031 13.3237 124.877 13.2107 124.689 13.1477C124.912 13.0674 125.287 12.806 125.287 12.2936C125.287 11.9273 125.12 11.7269 124.854 11.5806C124.577 11.4464 124.266 11.4291 123.839 11.4291H121.892V14.6397H122.739V13.4672H123.64C123.948 13.4672 124.136 13.4946 124.259 13.6096C124.4 13.7439 124.398 13.989 124.396 14.1775C124.396 14.1985 124.396 14.2187 124.396 14.2381V14.6397H125.242V14.0032ZM123.81 12.0868C123.96 12.0868 124.111 12.0898 124.212 12.1448C124.322 12.1968 124.387 12.2963 124.387 12.4336C124.387 12.5709 124.322 12.6816 124.212 12.7417C124.1 12.8026 123.96 12.8079 123.796 12.8079H122.772V12.0868H123.81Z" fill="#FFD3D6"/>
<path d="M126.611 12.0931H128.586V11.4291H125.772V14.6397H128.586V13.9735L126.611 13.9706V13.3318H128.538V12.6767H126.611V12.0931Z" fill="#FFD3D6"/>
<path d="M129.111 14.6396H130.753C131.604 14.6396 132.078 14.3172 132.078 13.6265C132.078 13.2961 131.99 13.1009 131.826 12.9463C131.635 12.7704 131.321 12.6982 130.863 12.6882L130.409 12.6769C130.265 12.6769 130.17 12.6687 130.081 12.6405C129.975 12.6049 129.896 12.5225 129.896 12.4014C129.896 12.2996 129.93 12.2225 130.023 12.1705C130.108 12.1177 130.207 12.1123 130.361 12.1123H131.908V11.4291H130.217C129.333 11.4291 129.011 11.9193 129.011 12.385C129.011 13.3343 129.874 13.3557 130.63 13.3745C130.683 13.3759 130.736 13.3772 130.788 13.3788C130.935 13.3788 131.024 13.4009 131.088 13.4499C131.146 13.4944 131.191 13.5687 131.191 13.6624C131.191 13.7498 131.149 13.822 131.091 13.8716C131.02 13.9319 130.907 13.9512 130.747 13.9512H129.111V14.6396Z" fill="#FFD3D6"/>
<path fill-rule="evenodd" clip-rule="evenodd" d="M107.673 0.253784C106.292 0.253784 105.173 1.37307 105.173 2.75378V9.08491H106.089L106.416 8.36893H108.172L108.496 9.08491H110.211V6.56876L111.437 9.08491H112.178L113.401 6.57099L113.404 9.08491H114.268V5.87502H112.864L111.85 8.05253L110.747 5.87502H109.37V8.91411L107.936 5.87502H106.683L105.173 9.08491L105.173 7.38231L106.194 5.25378H108.393L108.677 5.78248V5.25378H111.255L111.82 6.41008L112.369 5.25378H120.556C120.928 5.25378 121.263 5.31689 121.509 5.51519V5.25378H123.75V5.51519C124.136 5.32281 124.614 5.25378 125.157 5.25378H128.405L128.706 5.78248V5.25378H131.11L131.438 5.78248V5.25378H133.781V9.7304H131.414L130.966 9.05321V9.73044H128.012L127.691 9.01749H126.964L126.636 9.73044H125.103C124.501 9.73044 124.044 9.60126 123.75 9.45796V9.73044H120.106V8.71452C120.106 8.57111 120.078 8.56311 119.982 8.56008H119.846L119.849 9.7304H112.803V9.17719L112.55 9.73292H111.078L110.825 9.18552V9.73065H107.99L107.666 9.01768H106.939L106.614 9.73065H105.173V17.7538C105.173 19.1345 106.292 20.2538 107.673 20.2538H132.673C134.053 20.2538 135.173 19.1345 135.173 17.7538V13.0004C135.169 12.9962 135.166 12.992 135.162 12.9878C135.143 12.9646 135.123 12.9417 135.094 12.921C134.907 12.745 134.599 12.6728 134.137 12.6624L133.68 12.6513C133.54 12.6513 133.444 12.6431 133.355 12.615C133.246 12.5793 133.171 12.4968 133.171 12.3758C133.171 12.2739 133.205 12.1968 133.294 12.1448C133.38 12.0921 133.482 12.0868 133.635 12.0868L135.173 12.0868V2.75378C135.173 1.37307 134.053 0.253784 132.673 0.253784H107.673ZM106.733 7.70263L107.307 6.42301L107.884 7.70263H106.733ZM132.398 14.6206H134.027C134.567 14.6206 134.966 14.4827 135.171 14.2102V15.0447C134.833 15.1932 134.389 15.2512 133.934 15.2512H131.749V14.9644C131.496 15.1494 131.038 15.2512 130.601 15.2512H123.712V14.2159C123.712 14.089 123.698 14.0837 123.558 14.0837H123.449V15.2514H121.181V14.0424C120.801 14.1917 120.371 14.2052 120.006 14.1999H119.736V15.2538L116.986 15.2516L116.311 14.5549L115.593 15.2516H111.133V10.7713H115.679L116.331 11.457L117.027 10.7713H120.071C120.422 10.7713 121 10.8049 121.259 11.0336V10.7713H123.979C124.234 10.7713 124.788 10.8182 125.116 11.0336V10.7713H129.239V11.0336C129.444 10.8546 129.877 10.7713 130.246 10.7713H132.555V11.0336C132.797 10.8739 133.139 10.7713 133.61 10.7713H135.171V11.4101H133.491C132.606 11.4101 132.281 11.9003 132.281 12.3659C132.281 13.3155 133.144 13.3368 133.903 13.3555C133.956 13.3568 134.009 13.3581 134.061 13.3597C134.208 13.3597 134.297 13.382 134.358 13.431C134.42 13.4754 134.461 13.5497 134.461 13.6433C134.462 13.7228 134.425 13.7988 134.361 13.8526C134.293 13.913 134.181 13.9322 134.02 13.9322H132.398V14.6206Z" fill="#FFD3D6"/>
<path fill-rule="evenodd" clip-rule="evenodd" d="M125.187 5.87484C124.606 5.87484 124.179 5.99298 123.906 6.24917C123.544 6.59308 123.452 7.02825 123.452 7.50436C123.452 8.08802 123.606 8.4572 123.902 8.72972C124.196 9.0023 124.715 9.08476 125.125 9.08476H126.112L126.43 8.36879H128.182L128.511 9.08476H130.228V6.67561L131.827 9.08476H133.022V5.87499H132.158V8.11048L130.676 5.87499H129.391V8.911L127.964 5.87495H126.7L125.511 8.39921H125.132C124.911 8.39921 124.674 8.36068 124.545 8.23367C124.388 8.0717 124.313 7.82377 124.313 7.47986C124.313 7.14344 124.411 6.88794 124.555 6.75282C124.723 6.60426 124.897 6.56262 125.204 6.56262H126.003V5.87484H125.187ZM126.731 7.70263L127.312 6.42301L127.895 7.70263H126.731Z" fill="#FFD3D6"/>
<path d="M123.032 5.87488H122.172V9.08476H123.032V5.87488Z" fill="#FFD3D6"/>
<path fill-rule="evenodd" clip-rule="evenodd" d="M120.232 5.87488H118.292L118.292 9.08476H119.135V7.91722H120.041C120.344 7.91722 120.532 7.9418 120.655 8.05464C120.793 8.19334 120.791 8.43173 120.789 8.61883C120.789 8.63992 120.789 8.66036 120.789 8.67994L120.792 9.08473H121.642V8.45414C121.642 8.16749 121.622 8.02488 121.503 7.86522C121.428 7.77172 121.27 7.65884 121.086 7.59493C121.304 7.5155 121.68 7.25113 121.68 6.73931C121.68 6.38134 121.52 6.17201 121.253 6.02863C120.98 5.88529 120.663 5.87488 120.232 5.87488ZM120.787 6.9108C120.787 7.05108 120.723 7.16403 120.614 7.21596C120.498 7.27998 120.361 7.28217 120.196 7.28214H119.172V6.56916H120.21C120.357 6.56916 120.511 6.57515 120.61 6.62701C120.72 6.67379 120.787 6.77334 120.787 6.9108Z" fill="#FFD3D6"/>
<path d="M117.709 5.87488H114.892V9.08473H117.709V8.4209H115.736V7.77987H117.662V7.12189H115.736V6.5433H117.709V5.87488Z" fill="#FFD3D6"/>
<path fill-rule="evenodd" clip-rule="evenodd" d="M164.031 10.2543C164.032 6.46168 167.098 3.3887 170.881 3.38753C174.666 3.38888 177.732 6.46159 177.733 10.2543C177.732 14.0463 174.666 17.119 170.881 17.1201C167.098 17.1188 164.032 14.0462 164.031 10.2543ZM169.339 6.1741C167.71 6.80208 166.555 8.38245 166.552 10.2357C166.555 12.0892 167.71 13.6688 169.339 14.2965V6.1741ZM172.447 6.17432V14.2985C174.077 13.6708 175.234 12.0909 175.237 10.2362C175.234 8.38209 174.077 6.80082 172.447 6.17432Z" fill="#FFD3D6"/>
<path fill-rule="evenodd" clip-rule="evenodd" d="M157.759 2.75378C157.759 1.37307 158.878 0.253784 160.259 0.253784H185.259C186.64 0.253784 187.759 1.37307 187.759 2.75378V17.7538C187.759 19.1345 186.64 20.2538 185.259 20.2538H160.259C158.878 20.2538 157.759 19.1345 157.759 17.7538V2.75378ZM174.381 2.75378C178.472 2.75244 182.207 5.84486 182.207 10.319C182.207 14.4102 178.472 17.7734 174.381 17.7537H170.859C166.719 17.7735 163.311 14.4113 163.311 10.319C163.311 5.8458 166.719 2.7523 170.859 2.75378H174.381Z" fill="#FFD3D6"/>
</svg>
