<svg width="16" height="15" viewBox="0 0 16 15" fill="none" xmlns="http://www.w3.org/2000/svg">
<path fill-rule="evenodd" clip-rule="evenodd" d="M6.47923 1.83992C7.67621 1.56948 8.92855 1.69321 10.0495 2.19266C10.4783 2.38372 10.9808 2.19099 11.1718 1.76219C11.3629 1.33339 11.1702 0.830892 10.7414 0.63983C9.28559 -0.00882397 7.65914 -0.169518 6.10458 0.181715C4.55002 0.532947 3.15064 1.37729 2.11515 2.58881C1.07966 3.80033 0.463535 5.31412 0.358672 6.90441C0.253809 8.4947 0.665822 10.0763 1.53326 11.4133C2.40071 12.7503 3.6771 13.7711 5.17208 14.3234C6.66706 14.8757 8.30053 14.93 9.82887 14.4781C11.3572 14.0262 12.6985 13.0924 13.6528 11.8159C14.6071 10.5394 15.1231 8.98866 15.124 7.39492V7.39443V6.79269C15.124 6.32325 14.7435 5.94269 14.274 5.94269C13.8046 5.94269 13.424 6.32325 13.424 6.79269V7.39395C13.4233 8.6211 13.026 9.81515 12.2912 10.798C11.5565 11.7809 10.5237 12.4999 9.34686 12.8478C8.17007 13.1958 6.91233 13.154 5.76122 12.7287C4.61011 12.3035 3.62731 11.5175 2.9594 10.488C2.29149 9.45855 1.97425 8.24076 2.05499 7.01626C2.13573 5.79177 2.61013 4.62618 3.40744 3.69333C4.20475 2.76049 5.28224 2.11036 6.47923 1.83992ZM14.8754 2.76262C15.2072 2.43051 15.2069 1.89232 14.8748 1.56054C14.5427 1.22876 14.0045 1.22903 13.6727 1.56114L7.73305 7.50673L6.37218 6.14586C6.04024 5.81392 5.50205 5.81392 5.1701 6.14586C4.83816 6.47781 4.83816 7.016 5.1701 7.34795L7.13231 9.31015C7.29177 9.46961 7.50806 9.55917 7.73356 9.55911C7.95907 9.55905 8.17531 9.46939 8.33469 9.30985L14.8754 2.76262Z" fill="white"/>
</svg>
