<svg width="31" height="31" viewBox="0 0 31 31" fill="none" xmlns="http://www.w3.org/2000/svg">
<path fill-rule="evenodd" clip-rule="evenodd" d="M30.017 14.7362C29.9898 17.2874 29.3023 19.7881 28.0213 21.9946C26.7404 24.201 24.9098 26.0381 22.7078 27.3268C20.5058 28.6154 18.0075 29.3117 15.4564 29.3478C12.9053 29.3839 10.3884 28.7585 8.15089 27.5326L0 30.1191L2.65456 22.2746C1.26842 20.005 0.53809 17.3956 0.544539 14.7362C0.544539 10.8279 2.09707 7.0797 4.86066 4.31612C7.62424 1.55253 11.3724 0 15.2807 0C19.189 0 22.9373 1.55253 25.7009 4.31612C28.4645 7.0797 30.017 10.8279 30.017 14.7362ZM15.2807 2.45037C12.0101 2.44131 8.86941 3.72953 6.54719 6.03261C4.22497 8.3357 2.91077 11.4656 2.89277 14.7362C2.88659 17.3275 3.71608 19.8517 5.25808 21.9342L3.70957 26.4946L8.45718 24.9972C10.0574 26.072 11.8875 26.7563 13.8003 26.9951C15.7131 27.2339 17.6553 27.0205 19.4707 26.3721C21.286 25.7236 22.9239 24.6583 24.2525 23.2617C25.5812 21.865 26.5636 20.176 27.1207 18.3306C27.6778 16.4852 27.7941 14.5348 27.4602 12.6363C27.1263 10.7377 26.3516 8.94404 25.1983 7.39941C24.045 5.85479 22.5454 4.60236 20.8199 3.74281C19.0945 2.88326 17.1914 2.44055 15.2638 2.45037H15.2807ZM22.6999 18.1055C22.6149 17.9524 22.3766 17.8673 22.0023 17.6801C21.6279 17.4929 19.8752 16.6421 19.5349 16.523C19.1945 16.4039 18.9733 16.3358 18.7351 16.6931C18.4968 17.0505 17.7992 17.8673 17.578 18.1055C17.3568 18.3438 17.1696 18.3608 16.7952 18.1906C15.7446 17.7849 14.7675 17.2101 13.9024 16.4889C13.113 15.7656 12.4362 14.9281 11.8945 14.0045C11.854 13.9472 11.8257 13.8822 11.8115 13.8135C11.7973 13.7448 11.7973 13.674 11.8117 13.6054C11.8261 13.5367 11.8545 13.4717 11.8951 13.4145C11.9356 13.3573 11.9876 13.3091 12.0476 13.2728L12.5922 12.6432C12.737 12.4613 12.8572 12.2611 12.9495 12.0477C13.0048 11.952 13.0339 11.8434 13.0339 11.7329C13.0339 11.6224 13.0048 11.5138 12.9495 11.4181C12.8644 11.2309 12.1327 9.4782 11.8434 8.76351C11.5542 8.04882 11.2308 8.06578 11.0266 8.06578C10.8283 8.05354 10.6294 8.05354 10.4311 8.06578C10.044 8.10783 9.67736 8.26157 9.37603 8.50823C8.96741 8.89086 8.64408 9.35534 8.42711 9.87139C8.21014 10.3874 8.1044 10.9435 8.11683 11.5031C8.23942 12.8491 8.74755 14.1311 9.58027 15.1957C11.0871 17.5464 13.2286 19.4225 15.7572 20.6069C19.4157 22.0363 19.4157 21.5599 20.0794 21.5088C20.5834 21.4102 21.0614 21.2081 21.4832 20.9152C21.905 20.6222 22.2614 20.245 22.5298 19.8072C22.7557 19.2702 22.8264 18.6807 22.734 18.1055" fill="white"/>
</svg>
