<svg width="22" height="22" viewBox="0 0 22 22" fill="none" xmlns="http://www.w3.org/2000/svg">
<path fill-rule="evenodd" clip-rule="evenodd" d="M11 2C6.02944 2 2 6.02944 2 11C2 15.9706 6.02944 20 11 20C15.9706 20 20 15.9706 20 11C20 6.02944 15.9706 2 11 2ZM0 11C0 4.92487 4.92487 0 11 0C17.0751 0 22 4.92487 22 11C22 17.0751 17.0751 22 11 22C4.92487 22 0 17.0751 0 11ZM11.7071 6.29289L15.7064 10.2922C15.7088 10.2946 15.7112 10.297 15.7136 10.2995C15.8901 10.4792 15.9992 10.7254 16 10.997C16 10.998 16 10.999 16 11C16 11.001 16 11.002 16 11.003C15.9996 11.1375 15.9727 11.2657 15.9241 11.3828C15.8764 11.498 15.8063 11.6062 15.7136 11.7005C15.7112 11.703 15.7088 11.7054 15.7064 11.7078L11.7071 15.7071C11.3166 16.0976 10.6834 16.0976 10.2929 15.7071C9.90237 15.3166 9.90237 14.6834 10.2929 14.2929L12.5858 12H7C6.44772 12 6 11.5523 6 11C6 10.4477 6.44772 10 7 10H12.5858L10.2929 7.70711C9.90237 7.31658 9.90237 6.68342 10.2929 6.29289C10.6834 5.90237 11.3166 5.90237 11.7071 6.29289Z" fill="black"/>
</svg>
