<svg width="353" height="162" viewBox="0 0 353 162" fill="none" xmlns="http://www.w3.org/2000/svg">
<g clip-path="url(#clip0_120_251)">
<path d="M62.8576 28.1342H47.1757L42.449 46.9571H58.1274L62.8576 28.1342Z" fill="white"/>
<path d="M64.2155 46.1534V86.3261H39.5258V46.1534H24.1211V89.0777C24.1257 92.4515 25.4678 95.6859 27.853 98.0715C30.2381 100.457 33.4718 101.799 36.8449 101.804H67.0403C70.4131 101.799 73.6464 100.457 76.0311 98.0713C78.4157 95.6855 79.7569 92.4512 79.7606 89.0777V46.1534H64.2155Z" fill="white"/>
<path d="M101.127 86.3261V46.0832H85.7261V101.804H141.366V86.3261H101.127Z" fill="white"/>
<path d="M125.957 46.1534V61.6314H146.04V101.804H161.514V61.6314H181.597V46.1534H125.957Z" fill="white"/>
<path d="M202.971 46.1534H187.496V101.804H202.971V46.1534Z" fill="white"/>
<path d="M254.21 46.1534L237.921 65.6606L221.565 46.1534H206.971V101.804H222.376V71.2692L237.917 89.6884L239.587 87.7265C242.795 83.9535 246.209 79.8541 249.514 75.8881L253.403 71.2236V101.815H268.877V46.1534H254.21Z" fill="white"/>
<path d="M316.046 46.1533H285.925C282.552 46.157 279.318 47.4986 276.933 49.8837C274.548 52.2688 273.205 55.5027 273.201 58.8762V101.804H288.623V61.6279H313.313V101.804H328.858V58.8762C328.845 55.4901 327.488 52.2477 325.085 49.8619C322.683 47.4761 319.432 46.1421 316.046 46.1533Z" fill="white"/>
<path d="M353 70.9042H0V82.2407H353V70.9042Z" fill="#F9C000"/>
<path d="M349.315 82.2372V76.2425" stroke="black" stroke-width="1.27" stroke-miterlimit="10"/>
<path d="M339.55 82.2372V76.2425" stroke="black" stroke-width="1.27" stroke-miterlimit="10"/>
<path d="M344.434 82.2372V78.6221" stroke="black" stroke-width="1.27" stroke-miterlimit="10"/>
<path d="M339.55 82.2372V76.2425" stroke="black" stroke-width="1.27" stroke-miterlimit="10"/>
<path d="M329.784 82.2372V76.2425" stroke="black" stroke-width="1.27" stroke-miterlimit="10"/>
<path d="M334.669 82.2372V78.6221" stroke="black" stroke-width="1.27" stroke-miterlimit="10"/>
<path d="M329.784 82.2372V76.2425" stroke="black" stroke-width="1.27" stroke-miterlimit="10"/>
<path d="M320.018 82.2372V76.2425" stroke="black" stroke-width="1.27" stroke-miterlimit="10"/>
<path d="M324.903 82.2372V78.6221" stroke="black" stroke-width="1.27" stroke-miterlimit="10"/>
<path d="M320.018 82.2372V76.2425" stroke="black" stroke-width="1.27" stroke-miterlimit="10"/>
<path d="M310.253 82.2372V76.2425" stroke="black" stroke-width="1.27" stroke-miterlimit="10"/>
<path d="M315.137 82.2372V78.6221" stroke="black" stroke-width="1.27" stroke-miterlimit="10"/>
<path d="M310.253 82.2372V76.2425" stroke="black" stroke-width="1.27" stroke-miterlimit="10"/>
<path d="M300.487 82.2372V76.2425" stroke="black" stroke-width="1.27" stroke-miterlimit="10"/>
<path d="M305.372 82.2372V78.6221" stroke="black" stroke-width="1.27" stroke-miterlimit="10"/>
<path d="M300.487 82.2372V76.2425" stroke="black" stroke-width="1.27" stroke-miterlimit="10"/>
<path d="M290.721 82.2372V76.2425" stroke="black" stroke-width="1.27" stroke-miterlimit="10"/>
<path d="M295.606 82.2372V78.6221" stroke="black" stroke-width="1.27" stroke-miterlimit="10"/>
<path d="M290.721 82.2372V76.2425" stroke="black" stroke-width="1.27" stroke-miterlimit="10"/>
<path d="M280.956 82.2372V76.2425" stroke="black" stroke-width="1.27" stroke-miterlimit="10"/>
<path d="M285.84 82.2372V78.6221" stroke="black" stroke-width="1.27" stroke-miterlimit="10"/>
<path d="M280.956 82.2372V76.2425" stroke="black" stroke-width="1.27" stroke-miterlimit="10"/>
<path d="M271.19 82.2372V76.2425" stroke="black" stroke-width="1.27" stroke-miterlimit="10"/>
<path d="M276.075 82.2372V78.6221" stroke="black" stroke-width="1.27" stroke-miterlimit="10"/>
<path d="M271.19 82.2372V76.2425" stroke="black" stroke-width="1.27" stroke-miterlimit="10"/>
<path d="M261.424 82.2372V76.2425" stroke="black" stroke-width="1.27" stroke-miterlimit="10"/>
<path d="M266.309 82.2372V78.6221" stroke="black" stroke-width="1.27" stroke-miterlimit="10"/>
<path d="M261.424 82.2372V76.2425" stroke="black" stroke-width="1.27" stroke-miterlimit="10"/>
<path d="M251.659 82.2372V76.2425" stroke="black" stroke-width="1.27" stroke-miterlimit="10"/>
<path d="M256.543 82.2372V78.6221" stroke="black" stroke-width="1.27" stroke-miterlimit="10"/>
<path d="M251.659 82.2372V76.2425" stroke="black" stroke-width="1.27" stroke-miterlimit="10"/>
<path d="M241.893 82.2372V76.2425" stroke="black" stroke-width="1.27" stroke-miterlimit="10"/>
<path d="M246.774 82.2372V78.6221" stroke="black" stroke-width="1.27" stroke-miterlimit="10"/>
<path d="M241.893 82.2372V76.2425" stroke="black" stroke-width="1.27" stroke-miterlimit="10"/>
<path d="M232.127 82.2372V76.2425" stroke="black" stroke-width="1.27" stroke-miterlimit="10"/>
<path d="M237.008 82.2372V78.6221" stroke="black" stroke-width="1.27" stroke-miterlimit="10"/>
<path d="M232.127 82.2372V76.2425" stroke="black" stroke-width="1.27" stroke-miterlimit="10"/>
<path d="M222.362 82.2372V76.2425" stroke="black" stroke-width="1.27" stroke-miterlimit="10"/>
<path d="M227.243 82.2372V78.6221" stroke="black" stroke-width="1.27" stroke-miterlimit="10"/>
<path d="M222.362 82.2372V76.2425" stroke="black" stroke-width="1.27" stroke-miterlimit="10"/>
<path d="M212.596 82.2372V76.2425" stroke="black" stroke-width="1.27" stroke-miterlimit="10"/>
<path d="M217.477 82.2372V78.6221" stroke="black" stroke-width="1.27" stroke-miterlimit="10"/>
<path d="M212.596 82.2372V76.2425" stroke="black" stroke-width="1.27" stroke-miterlimit="10"/>
<path d="M202.83 82.2372V76.2425" stroke="black" stroke-width="1.27" stroke-miterlimit="10"/>
<path d="M207.711 82.2372V78.6221" stroke="black" stroke-width="1.27" stroke-miterlimit="10"/>
<path d="M202.83 82.2372V76.2425" stroke="black" stroke-width="1.27" stroke-miterlimit="10"/>
<path d="M193.064 82.2372V76.2425" stroke="black" stroke-width="1.27" stroke-miterlimit="10"/>
<path d="M197.946 82.2372V78.6221" stroke="black" stroke-width="1.27" stroke-miterlimit="10"/>
<path d="M193.064 82.2372V76.2425" stroke="black" stroke-width="1.27" stroke-miterlimit="10"/>
<path d="M183.299 82.2372V76.2425" stroke="black" stroke-width="1.27" stroke-miterlimit="10"/>
<path d="M188.18 82.2372V78.6221" stroke="black" stroke-width="1.27" stroke-miterlimit="10"/>
<path d="M183.299 82.2372V76.2425" stroke="black" stroke-width="1.27" stroke-miterlimit="10"/>
<path d="M173.533 82.2372V76.2425" stroke="black" stroke-width="1.27" stroke-miterlimit="10"/>
<path d="M178.414 82.2372V78.6221" stroke="black" stroke-width="1.27" stroke-miterlimit="10"/>
<path d="M173.533 82.2372V76.2425" stroke="black" stroke-width="1.27" stroke-miterlimit="10"/>
<path d="M163.767 82.2372V76.2425" stroke="black" stroke-width="1.27" stroke-miterlimit="10"/>
<path d="M168.648 82.2372V78.6221" stroke="black" stroke-width="1.27" stroke-miterlimit="10"/>
<path d="M163.767 82.2372V76.2425" stroke="black" stroke-width="1.27" stroke-miterlimit="10"/>
<path d="M154.002 82.2372V76.2425" stroke="black" stroke-width="1.27" stroke-miterlimit="10"/>
<path d="M158.883 82.2372V78.6221" stroke="black" stroke-width="1.27" stroke-miterlimit="10"/>
<path d="M154.002 82.2372V76.2425" stroke="black" stroke-width="1.27" stroke-miterlimit="10"/>
<path d="M144.232 82.2372V76.2425" stroke="black" stroke-width="1.27" stroke-miterlimit="10"/>
<path d="M149.117 82.2372V78.6221" stroke="black" stroke-width="1.27" stroke-miterlimit="10"/>
<path d="M144.232 82.2372V76.2425" stroke="black" stroke-width="1.27" stroke-miterlimit="10"/>
<path d="M134.467 82.2372V76.2425" stroke="black" stroke-width="1.27" stroke-miterlimit="10"/>
<path d="M139.351 82.2372V78.6221" stroke="black" stroke-width="1.27" stroke-miterlimit="10"/>
<path d="M134.467 82.2372V76.2425" stroke="black" stroke-width="1.27" stroke-miterlimit="10"/>
<path d="M124.701 82.2372V76.2425" stroke="black" stroke-width="1.27" stroke-miterlimit="10"/>
<path d="M129.586 82.2372V78.6221" stroke="black" stroke-width="1.27" stroke-miterlimit="10"/>
<path d="M124.701 82.2372V76.2425" stroke="black" stroke-width="1.27" stroke-miterlimit="10"/>
<path d="M114.936 82.2372V76.2425" stroke="black" stroke-width="1.27" stroke-miterlimit="10"/>
<path d="M119.82 82.2372V78.6221" stroke="black" stroke-width="1.27" stroke-miterlimit="10"/>
<path d="M114.936 82.2372V76.2425" stroke="black" stroke-width="1.27" stroke-miterlimit="10"/>
<path d="M105.17 82.2372V76.2425" stroke="black" stroke-width="1.27" stroke-miterlimit="10"/>
<path d="M110.054 82.2372V78.6221" stroke="black" stroke-width="1.27" stroke-miterlimit="10"/>
<path d="M105.17 82.2372V76.2425" stroke="black" stroke-width="1.27" stroke-miterlimit="10"/>
<path d="M95.4041 82.2372V76.2425" stroke="black" stroke-width="1.27" stroke-miterlimit="10"/>
<path d="M100.289 82.2372V78.6221" stroke="black" stroke-width="1.27" stroke-miterlimit="10"/>
<path d="M95.4041 82.2372V76.2425" stroke="black" stroke-width="1.27" stroke-miterlimit="10"/>
<path d="M85.6384 82.2372V76.2425" stroke="black" stroke-width="1.27" stroke-miterlimit="10"/>
<path d="M90.5229 82.2372V78.6221" stroke="black" stroke-width="1.27" stroke-miterlimit="10"/>
<path d="M85.6384 82.2372V76.2425" stroke="black" stroke-width="1.27" stroke-miterlimit="10"/>
<path d="M75.8728 82.2372V76.2425" stroke="black" stroke-width="1.27" stroke-miterlimit="10"/>
<path d="M80.7573 82.2372V78.6221" stroke="black" stroke-width="1.27" stroke-miterlimit="10"/>
<path d="M75.8728 82.2372V76.2425" stroke="black" stroke-width="1.27" stroke-miterlimit="10"/>
<path d="M66.1069 82.2372V76.2425" stroke="black" stroke-width="1.27" stroke-miterlimit="10"/>
<path d="M70.9917 82.2372V78.6221" stroke="black" stroke-width="1.27" stroke-miterlimit="10"/>
<path d="M66.1069 82.2372V76.2425" stroke="black" stroke-width="1.27" stroke-miterlimit="10"/>
<path d="M56.3413 82.2372V76.2425" stroke="black" stroke-width="1.27" stroke-miterlimit="10"/>
<path d="M61.2258 82.2372V78.6221" stroke="black" stroke-width="1.27" stroke-miterlimit="10"/>
<path d="M56.3413 82.2372V76.2425" stroke="black" stroke-width="1.27" stroke-miterlimit="10"/>
<path d="M46.5757 82.2372V76.2425" stroke="black" stroke-width="1.27" stroke-miterlimit="10"/>
<path d="M51.4602 82.2372V78.6221" stroke="black" stroke-width="1.27" stroke-miterlimit="10"/>
<path d="M46.5757 82.2372V76.2425" stroke="black" stroke-width="1.27" stroke-miterlimit="10"/>
<path d="M36.8101 82.2372V76.2425" stroke="black" stroke-width="1.27" stroke-miterlimit="10"/>
<path d="M41.6909 82.2372V78.6221" stroke="black" stroke-width="1.27" stroke-miterlimit="10"/>
<path d="M36.8101 82.2372V76.2425" stroke="black" stroke-width="1.27" stroke-miterlimit="10"/>
<path d="M27.0442 82.2372V76.2425" stroke="black" stroke-width="1.27" stroke-miterlimit="10"/>
<path d="M31.9253 82.2372V78.6221" stroke="black" stroke-width="1.27" stroke-miterlimit="10"/>
<path d="M27.0442 82.2372V76.2425" stroke="black" stroke-width="1.27" stroke-miterlimit="10"/>
<path d="M17.2786 82.2372V76.2425" stroke="black" stroke-width="1.27" stroke-miterlimit="10"/>
<path d="M22.1597 82.2372V78.6221" stroke="black" stroke-width="1.27" stroke-miterlimit="10"/>
<path d="M17.2786 82.2372V76.2425" stroke="black" stroke-width="1.27" stroke-miterlimit="10"/>
<path d="M7.51294 82.2372V76.2425" stroke="black" stroke-width="1.27" stroke-miterlimit="10"/>
<path d="M12.394 82.2372V78.6221" stroke="black" stroke-width="1.27" stroke-miterlimit="10"/>
<path d="M105.37 114.088C107.989 114.082 110.503 115.115 112.361 116.962C114.218 118.809 115.267 121.317 115.276 123.937V152.152C115.272 153.449 115.012 154.734 114.512 155.931C114.011 157.128 113.28 158.215 112.359 159.13C111.439 160.044 110.347 160.769 109.147 161.261C107.946 161.754 106.66 162.005 105.363 162H67.3809V114.088H105.37ZM77.6939 151.618H104.836V124.47H77.6939V151.618Z" fill="white"/>
<path d="M122.803 114.088H133.172V162H122.796L122.803 114.088Z" fill="white"/>
<path d="M181.744 124.47H147.948V132.855H175.158V143.237H147.948V151.618H181.744V162H137.506V114.088H181.744V124.47Z" fill="white"/>
<path d="M233.84 114.088V124.47H215.077V162H204.7V124.47H185.938V114.088H233.84Z" fill="white"/>
<path d="M276.952 114.088C278.25 114.084 279.535 114.335 280.736 114.827C281.937 115.32 283.029 116.044 283.949 116.958C284.87 117.873 285.602 118.96 286.103 120.157C286.604 121.354 286.864 122.639 286.868 123.937V162H276.426V146.557H249.283V162H238.97V123.937C238.967 122.643 239.22 121.361 239.714 120.165C240.208 118.968 240.933 117.882 241.848 116.967C242.763 116.052 243.849 115.326 245.045 114.832C246.241 114.338 247.522 114.085 248.816 114.088H276.952ZM276.419 136.182V124.47H249.276V136.182H276.419Z" fill="white"/>
<path d="M114.925 1.9826e-05C115.942 -0.00367335 116.95 0.193139 117.891 0.579267C118.832 0.965396 119.688 1.53325 120.409 2.25035C121.131 2.96744 121.704 3.81974 122.096 4.7585C122.488 5.69727 122.691 6.70411 122.694 7.72147V37.5544H114.511V25.4458H93.2391V37.5439H85.1683V7.71095C85.165 6.69605 85.3625 5.69053 85.7493 4.75225C86.1361 3.81397 86.7046 2.96144 87.4221 2.24379C88.1397 1.52614 88.992 0.957504 89.9301 0.570613C90.8681 0.183722 91.8735 -0.0137645 92.8882 -0.0105197L114.925 1.9826e-05ZM114.511 17.3101V8.14265H93.2391V17.3207L114.511 17.3101Z" fill="white"/>
<path d="M182.702 11.2101H174.516V8.14262H153.244V14.7129H175C177.047 14.7129 179.011 15.5264 180.459 16.9745C181.906 18.4225 182.72 20.3865 182.72 22.4344V29.84C182.72 31.8878 181.906 33.8518 180.459 35.2999C179.011 36.7479 177.047 37.5614 175 37.5614H152.893C150.845 37.5614 148.882 36.7479 147.434 35.2999C145.986 33.8518 145.173 31.8878 145.173 29.84V26.3477H153.244V29.4223H174.516V22.852H152.879C151.864 22.8548 150.859 22.657 149.921 22.2699C148.983 21.8829 148.131 21.3142 147.414 20.5967C146.696 19.8791 146.128 19.0268 145.741 18.0887C145.354 17.1506 145.156 16.1453 145.159 15.1305V7.72496C145.156 6.71018 145.354 5.70486 145.741 4.76679C146.128 3.82872 146.696 2.9764 147.414 2.25885C148.131 1.54129 148.983 0.972639 149.921 0.585583C150.859 0.198527 151.864 0.000728925 152.879 0.00350788H174.986C177.033 0.00350788 178.997 0.817001 180.445 2.26506C181.892 3.71311 182.706 5.6771 182.706 7.72496L182.702 11.2101Z" fill="white"/>
<path d="M196.258 29.4083H217.53V3.05176e-05H225.713V29.833C225.713 31.8808 224.899 33.8448 223.452 35.2929C222.004 36.7409 220.04 37.5544 217.993 37.5544H195.886C194.871 37.5572 193.866 37.3594 192.928 36.9723C191.99 36.5853 191.138 36.0166 190.421 35.2991C189.703 34.5815 189.135 33.7292 188.748 32.7911C188.361 31.8531 188.163 30.8477 188.166 29.833V3.05176e-05H196.237L196.258 29.4083Z" fill="white"/>
<path d="M261.323 9.36259e-06C262.339 -0.0032217 263.347 0.19395 264.287 0.580285C265.228 0.966621 266.083 1.53453 266.805 2.25158C267.526 2.96863 268.099 3.82077 268.49 4.75931C268.882 5.69785 269.085 6.7044 269.088 7.72146V37.5544H260.901V25.4458H239.63V37.5439H231.559V7.71094C231.556 6.69617 231.754 5.69082 232.141 4.75275C232.528 3.81469 233.096 2.96241 233.814 2.24485C234.531 1.52729 235.383 0.958601 236.321 0.571545C237.259 0.184489 238.264 -0.0133092 239.279 -0.0105302L261.323 9.36259e-06ZM260.901 17.3101V8.14264H239.63V17.3207L260.901 17.3101Z" fill="white"/>
<path d="M79.7607 59.0938H64.2156V87.8458H79.7607V59.0938Z" fill="white"/>
<path d="M161.515 59.0938H146.047V87.8458H161.515V59.0938Z" fill="white"/>
<path d="M222.502 59.0938H206.971V87.8458H222.502V59.0938Z" fill="white"/>
<path d="M268.877 59.0938H253.403V87.8458H268.877V59.0938Z" fill="white"/>
<path d="M328.816 59.0938H313.341V88.9795H328.816V59.0938Z" fill="white"/>
</g>
<defs>
<clipPath id="clip0_120_251">
<rect width="353" height="162" fill="white"/>
</clipPath>
</defs>
</svg>
