<svg width="301" height="67" viewBox="0 0 301 67" fill="none" xmlns="http://www.w3.org/2000/svg">
<path d="M28.6439 15.408H35.7654V47.2793H28.8636V25.8815C25.2808 30.1274 21.4306 34.8202 17.8735 38.9781L6.85781 25.9255V47.2536H0V15.3823H7.07756L17.8735 28.2591L28.6439 15.408Z" fill="white"/>
<path d="M66.4316 15.4082C67.2946 15.4053 68.1498 15.5725 68.9482 15.9001C69.7467 16.2277 70.4729 16.7094 71.0852 17.3176C71.6975 17.9258 72.184 18.6487 72.517 19.445C72.8499 20.2412 73.0227 21.0953 73.0256 21.9583V47.2686H66.0652V37.0111H48.0121V47.2686H41.1543V21.9583C41.1519 21.0978 41.3196 20.2453 41.6477 19.4497C41.9757 18.6542 42.4578 17.9313 43.0661 17.3226C43.6745 16.714 44.3971 16.2315 45.1924 15.903C45.9878 15.5744 46.8403 15.4063 47.7008 15.4082H66.4316ZM66.0652 30.0983V22.31H48.0121V30.0983H66.0652Z" fill="white"/>
<path d="M102.981 15.4082H109.941V47.2795H102.864L84.9425 25.9514V47.2795H78.0811V15.4082H85.1624L102.996 36.6557L102.981 15.4082Z" fill="white"/>
<path d="M121.653 40.3631H139.706V15.4082H146.667V40.7184C146.663 42.4538 145.972 44.117 144.745 45.3445C143.518 46.5719 141.856 47.2637 140.12 47.2685H121.342C120.481 47.27 119.629 47.1015 118.834 46.7728C118.039 46.4441 117.316 45.9616 116.708 45.353C116.1 44.7445 115.618 44.0218 115.29 43.2265C114.961 42.4311 114.793 41.5788 114.795 40.7184V15.4082H121.653V40.3631Z" fill="white"/>
<path d="M176.875 15.4082C177.738 15.4053 178.593 15.5725 179.391 15.9001C180.19 16.2277 180.916 16.7094 181.528 17.3176C182.141 17.9258 182.627 18.6487 182.96 19.445C183.293 20.2412 183.466 21.0953 183.469 21.9583V47.2686H176.508V37.0111H158.455V47.2686H151.597V21.9583C151.595 21.0976 151.764 20.245 152.092 19.4494C152.421 18.6539 152.903 17.931 153.512 17.3224C154.12 16.7138 154.843 16.2314 155.639 15.9029C156.434 15.5744 157.287 15.4063 158.148 15.4082H176.875ZM176.508 30.0983V22.31H158.455V30.0983H176.508Z" fill="white"/>
<path d="M188.557 15.3638H195.415V40.3626H220.399V47.268H188.528L188.557 15.3638Z" fill="white"/>
<path d="M280.226 9.43279e-05C283.429 9.06513e-05 286.501 1.27125 288.767 3.53444C291.034 5.79763 292.31 8.86783 292.315 12.0709V46.6567C292.315 49.863 291.041 52.9379 288.774 55.205C286.507 57.4722 283.432 58.7459 280.226 58.7459H245.64C244.05 58.7522 242.476 58.4438 241.006 57.8385C239.537 57.2331 238.201 56.3429 237.077 55.2191C235.954 54.0952 235.063 52.76 234.458 51.2905C233.853 49.8209 233.544 48.2461 233.551 46.6567V12.0709C233.547 10.4831 233.857 8.91022 234.463 7.44277C235.07 5.97533 235.96 4.64231 237.084 3.52042C238.208 2.39853 239.542 1.50992 241.01 0.905763C242.479 0.301601 244.052 -0.00619009 245.64 9.43279e-05H280.226ZM246.211 46.0047H279.489V12.723H246.211V46.0047Z" fill="#E7565E"/>
<path d="M278.313 53.1222L287.311 44.125L300.023 56.8369C300.649 57.464 301 58.3138 301 59.1998C301 60.0858 300.649 60.9356 300.023 61.5626L295.755 65.8341C295.127 66.4603 294.277 66.8119 293.39 66.8119C292.503 66.8119 291.653 66.4603 291.025 65.8341L278.313 53.1222Z" fill="#E7565E"/>
</svg>
