<svg width="246" height="114" viewBox="0 0 246 114" fill="none" xmlns="http://www.w3.org/2000/svg">
<path d="M137.64 10.2056L134.888 17.7827H133.763L136.932 9.46897H137.657L137.64 10.2056ZM139.947 17.7827L137.189 10.2056L137.172 9.46897H137.897L141.077 17.7827H139.947ZM139.804 14.705V15.6072H135.133V14.705H139.804ZM146.844 9.46897H147.941V15.0933C147.941 15.7176 147.802 16.2372 147.524 16.6521C147.246 17.0671 146.877 17.3792 146.416 17.5886C145.959 17.7941 145.463 17.8969 144.926 17.8969C144.362 17.8969 143.852 17.7941 143.396 17.5886C142.943 17.3792 142.583 17.0671 142.316 16.6521C142.054 16.2372 141.922 15.7176 141.922 15.0933V9.46897H143.013V15.0933C143.013 15.5273 143.093 15.8851 143.253 16.1668C143.413 16.4485 143.635 16.6578 143.921 16.7949C144.21 16.9319 144.545 17.0004 144.926 17.0004C145.31 17.0004 145.645 16.9319 145.931 16.7949C146.22 16.6578 146.445 16.4485 146.605 16.1668C146.764 15.8851 146.844 15.5273 146.844 15.0933V9.46897ZM154.713 16.8862V17.7827H150.556V16.8862H154.713ZM150.773 9.46897V17.7827H149.671V9.46897H150.773ZM159.166 10.2056L156.414 17.7827H155.289L158.458 9.46897H159.184L159.166 10.2056ZM161.473 17.7827L158.715 10.2056L158.698 9.46897H159.423L162.604 17.7827H161.473ZM161.331 14.705V15.6072H156.66V14.705H161.331ZM169.696 10.2056L166.943 17.7827H165.819L168.988 9.46897H169.713L169.696 10.2056ZM172.003 17.7827L169.245 10.2056L169.227 9.46897H169.953L173.133 17.7827H172.003ZM171.86 14.705V15.6072H167.189V14.705H171.86ZM180.579 13.3632V13.8885C180.579 14.5128 180.501 15.0724 180.345 15.5672C180.189 16.0621 179.964 16.4827 179.671 16.8291C179.378 17.1756 179.026 17.4401 178.615 17.6228C178.207 17.8056 177.751 17.8969 177.244 17.8969C176.753 17.8969 176.302 17.8056 175.891 17.6228C175.484 17.4401 175.13 17.1756 174.829 16.8291C174.532 16.4827 174.302 16.0621 174.138 15.5672C173.974 15.0724 173.893 14.5128 173.893 13.8885V13.3632C173.893 12.7389 173.972 12.1812 174.132 11.6902C174.296 11.1953 174.526 10.7747 174.823 10.4283C175.12 10.078 175.472 9.81157 175.88 9.62885C176.291 9.44613 176.742 9.35478 177.233 9.35478C177.739 9.35478 178.196 9.44613 178.603 9.62885C179.014 9.81157 179.367 10.078 179.66 10.4283C179.957 10.7747 180.183 11.1953 180.339 11.6902C180.499 12.1812 180.579 12.7389 180.579 13.3632ZM179.488 13.8885V13.3518C179.488 12.8569 179.437 12.4191 179.334 12.0385C179.235 11.6578 179.089 11.338 178.894 11.0792C178.7 10.8203 178.462 10.6243 178.181 10.4911C177.903 10.3578 177.587 10.2912 177.233 10.2912C176.89 10.2912 176.58 10.3578 176.302 10.4911C176.028 10.6243 175.792 10.8203 175.594 11.0792C175.4 11.338 175.25 11.6578 175.143 12.0385C175.036 12.4191 174.983 12.8569 174.983 13.3518V13.8885C174.983 14.3872 175.036 14.8287 175.143 15.2132C175.25 15.5939 175.402 15.9155 175.6 16.1782C175.802 16.4371 176.039 16.6331 176.314 16.7663C176.591 16.8996 176.902 16.9662 177.244 16.9662C177.602 16.9662 177.92 16.8996 178.198 16.7663C178.476 16.6331 178.71 16.4371 178.9 16.1782C179.094 15.9155 179.241 15.5939 179.34 15.2132C179.439 14.8287 179.488 14.3872 179.488 13.8885ZM187.813 16.5208L190.263 9.46897H191.456L188.379 17.7827H187.528L187.813 16.5208ZM185.524 9.46897L187.951 16.5208L188.253 17.7827H187.402L184.33 9.46897H185.524ZM193.758 9.46897V17.7827H192.656V9.46897H193.758ZM198.445 16.5208L200.895 9.46897H202.088L199.011 17.7827H198.16L198.445 16.5208ZM196.156 9.46897L198.583 16.5208L198.885 17.7827H198.034L194.962 9.46897H196.156ZM209.529 13.3632V13.8885C209.529 14.5128 209.451 15.0724 209.294 15.5672C209.138 16.0621 208.914 16.4827 208.621 16.8291C208.328 17.1756 207.975 17.4401 207.564 17.6228C207.157 17.8056 206.7 17.8969 206.194 17.8969C205.703 17.8969 205.252 17.8056 204.841 17.6228C204.433 17.4401 204.079 17.1756 203.779 16.8291C203.482 16.4827 203.251 16.0621 203.088 15.5672C202.924 15.0724 202.842 14.5128 202.842 13.8885V13.3632C202.842 12.7389 202.922 12.1812 203.082 11.6902C203.246 11.1953 203.476 10.7747 203.773 10.4283C204.07 10.078 204.422 9.81157 204.829 9.62885C205.24 9.44613 205.691 9.35478 206.183 9.35478C206.689 9.35478 207.146 9.44613 207.553 9.62885C207.964 9.81157 208.316 10.078 208.609 10.4283C208.906 10.7747 209.133 11.1953 209.289 11.6902C209.449 12.1812 209.529 12.7389 209.529 13.3632ZM208.438 13.8885V13.3518C208.438 12.8569 208.387 12.4191 208.284 12.0385C208.185 11.6578 208.038 11.338 207.844 11.0792C207.65 10.8203 207.412 10.6243 207.13 10.4911C206.852 10.3578 206.537 10.2912 206.183 10.2912C205.84 10.2912 205.53 10.3578 205.252 10.4911C204.978 10.6243 204.742 10.8203 204.544 11.0792C204.35 11.338 204.199 11.6578 204.093 12.0385C203.986 12.4191 203.933 12.8569 203.933 13.3518V13.8885C203.933 14.3872 203.986 14.8287 204.093 15.2132C204.199 15.5939 204.352 15.9155 204.549 16.1782C204.751 16.4371 204.989 16.6331 205.263 16.7663C205.541 16.8996 205.851 16.9662 206.194 16.9662C206.552 16.9662 206.87 16.8996 207.147 16.7663C207.425 16.6331 207.659 16.4371 207.85 16.1782C208.044 15.9155 208.191 15.5939 208.289 15.2132C208.388 14.8287 208.438 14.3872 208.438 13.8885Z" fill="white"/>
<path d="M211.886 2H119C112.373 2 107 7.37258 107 14C107 20.6274 112.373 26 119 26H211.886C218.514 26 223.886 20.6274 223.886 14C223.886 7.37258 218.514 2 211.886 2Z" stroke="white" stroke-width="1.35977" stroke-miterlimit="10"/>
<path d="M120.496 18.0655C122.741 18.0655 124.561 16.2452 124.561 13.9998C124.561 11.7544 122.741 9.93408 120.496 9.93408C118.25 9.93408 116.43 11.7544 116.43 13.9998C116.43 16.2452 118.25 18.0655 120.496 18.0655Z" fill="#E7565E"/>
<path d="M37.1641 53.3768H30.3272V50.8147H12.5943V56.2915H30.7194C32.4259 56.2924 34.0624 56.9697 35.2704 58.175C36.4784 59.3803 37.1594 61.0153 37.1641 62.7218V68.8966C37.1594 70.6012 36.4798 72.2345 35.2742 73.4395C34.0685 74.6445 32.4348 75.3231 30.7302 75.3269H12.2992C11.4534 75.3302 10.6152 75.1663 9.83291 74.8444C9.05064 74.5226 8.33981 74.0492 7.74117 73.4516C7.14254 72.8539 6.66793 72.1438 6.34478 71.3621C6.02162 70.5804 5.85627 69.7425 5.85817 68.8966V65.9819H12.5943V68.5476H30.3272V63.0708H12.2992C11.4532 63.0737 10.6149 62.9092 9.83265 62.587C9.05036 62.2648 8.33949 61.7911 7.74091 61.1931C7.14232 60.5952 6.66789 59.8849 6.34478 59.103C6.02167 58.321 5.85627 57.4829 5.85817 56.6369V50.4657C5.85627 49.6202 6.02141 48.7827 6.34408 48.0013C6.66674 47.2198 7.14054 46.5098 7.73836 45.912C8.33618 45.3142 9.04627 44.8403 9.82773 44.5176C10.6092 44.195 11.4466 44.0299 12.292 44.0318H30.7194C32.4265 44.0327 34.0635 44.7105 35.2716 45.9166C36.4797 47.1227 37.1603 48.7586 37.1641 50.4657V53.3768Z" fill="white"/>
<path d="M48.4594 68.5475H66.1922V44.0317H73.0292V68.8966C73.0244 70.6012 72.345 72.2345 71.1393 73.4395C69.9336 74.6445 68.2999 75.3231 66.5953 75.3269H48.1644C47.3194 75.3288 46.4823 75.1638 45.7013 74.8413C44.9203 74.5188 44.2106 74.0452 43.6132 73.4477C43.0157 72.8502 42.5421 72.1406 42.2197 71.3596C41.8972 70.5786 41.7321 69.7415 41.734 68.8966V44.0317H48.4702L48.4594 68.5475Z" fill="white"/>
<path d="M102.615 44.0781C104.325 44.0781 105.965 44.7541 107.179 45.9587C108.392 47.1632 109.08 48.7987 109.092 50.5084V58.594C109.081 60.3043 108.393 61.9407 107.18 63.1461C105.966 64.3515 104.325 65.028 102.615 65.0279L84.5332 65.0711C84.6195 65.0711 84.6627 65.1575 84.6627 65.3302C84.616 65.3304 84.5704 65.3153 84.5332 65.287V75.3265H77.797V44.0781H102.615ZM84.5332 58.245H102.266V50.8143H84.5332V58.245Z" fill="white"/>
<path d="M136.951 44.0318C138.656 44.0356 140.29 44.7146 141.496 45.9204C142.702 47.1262 143.381 48.7605 143.385 50.4657V68.8966C143.38 70.6012 142.701 72.2345 141.495 73.4395C140.289 74.6445 138.655 75.3231 136.951 75.3269H118.524C117.678 75.3293 116.841 75.1646 116.059 74.8423C115.278 74.5201 114.568 74.0466 113.97 73.449C113.372 72.8515 112.898 72.1417 112.576 71.3604C112.253 70.5792 112.088 69.7419 112.09 68.8966V50.4657C112.088 49.6202 112.253 48.7827 112.576 48.0013C112.898 47.2198 113.372 46.5098 113.97 45.912C114.568 45.3142 115.278 44.8403 116.059 44.5176C116.841 44.195 117.678 44.0299 118.524 44.0318H136.951ZM118.826 68.5475H136.559V50.8147H118.826V68.5475Z" fill="white"/>
<path d="M179.415 58.594C179.404 60.3043 178.717 61.9407 177.503 63.1461C176.29 64.3515 174.649 65.028 172.938 65.0279H172.636C174.853 67.6331 177.242 70.4255 179.415 73.0235V75.3265H172.463L163.827 65.0279L154.871 65.0711C154.961 65.0711 155.004 65.1575 155.004 65.3302C154.956 65.3304 154.909 65.3153 154.871 65.287V75.3265H148.135V44.0781H172.963C174.673 44.0781 176.314 44.7541 177.527 45.9587C178.74 47.1632 179.428 48.7987 179.441 50.5084L179.415 58.594ZM154.856 58.2342H172.593V50.8143H154.856V58.2342Z" fill="white"/>
<path d="M213.751 44.0317V50.8147H201.495V75.3269H194.712V50.8147H182.456V44.0317H213.751Z" fill="white"/>
<path d="M246 50.8147H223.92V56.2915H241.7V63.0708H223.92V68.5476H246V75.3269H217.083V44.021H245.986L246 50.8147Z" fill="white"/>
<path d="M30.9858 82.6746C32.6973 82.6688 34.341 83.343 35.5556 84.5488C36.7702 85.7546 37.4563 87.3934 37.4629 89.1049V113.966H30.626V103.891H12.8932V113.966H6.157V89.0905C6.1551 88.2455 6.32007 87.4085 6.64255 86.6275C6.96503 85.8464 7.43865 85.1368 8.03614 84.5393C8.63362 83.9418 9.34325 83.4683 10.1243 83.1458C10.9053 82.8233 11.7423 82.6583 12.5873 82.6602L30.9858 82.6746ZM30.626 97.1041V89.4503H12.8932V97.1005L30.626 97.1041Z" fill="#E7565E"/>
<path d="M67.1926 82.6746C68.8947 82.6784 70.5263 83.355 71.7315 84.5568C72.9368 85.7587 73.618 87.3884 73.6266 89.0905V107.521C73.6218 109.226 72.9423 110.859 71.7366 112.064C70.531 113.269 68.8972 113.948 67.1926 113.952H48.7653C47.92 113.954 47.0826 113.789 46.3012 113.467C45.5197 113.145 44.8097 112.671 44.2118 112.074C43.6139 111.476 43.14 110.767 42.8173 109.985C42.4946 109.204 42.3295 108.367 42.3314 107.521V89.0905C42.3295 88.2452 42.4946 87.4079 42.8173 86.6266C43.14 85.8454 43.6139 85.1356 44.2118 84.5381C44.8097 83.9405 45.5197 83.467 46.3012 83.1448C47.0826 82.8225 47.92 82.6578 48.7653 82.6602L67.1926 82.6746ZM49.0676 107.187H66.8005V89.4503H49.0676V107.187Z" fill="#E7565E"/>
<path d="M125.566 82.6743H133.345L115.22 113.98H109.614L91.4889 82.6743H99.3118L112.439 105.405L125.566 82.6743Z" fill="#E7565E"/>
<path d="M136.037 82.6743H142.82V113.98H136.037V82.6743Z" fill="#E7565E"/>
<path d="M178.721 82.6743H186.497L168.372 113.98H162.766L144.641 82.6743H152.464L165.59 105.405L178.721 82.6743Z" fill="#E7565E"/>
<path d="M213.924 82.6743C215.626 82.6772 217.259 83.3535 218.464 84.5556C219.669 85.7577 220.35 87.3879 220.358 89.0903V107.521C220.354 109.226 219.675 110.86 218.469 112.065C217.263 113.27 215.629 113.949 213.924 113.951H195.493C194.648 113.954 193.81 113.789 193.029 113.467C192.248 113.145 191.537 112.671 190.94 112.074C190.342 111.476 189.868 110.766 189.545 109.985C189.222 109.204 189.057 108.366 189.059 107.521V89.0903C189.059 88.2462 189.226 87.4104 189.549 86.6308C189.873 85.8512 190.347 85.1432 190.945 84.5471C191.542 83.9511 192.252 83.4789 193.032 83.1576C193.813 82.8362 194.649 82.672 195.493 82.6743H213.924ZM195.799 107.187H213.535V89.4501H195.799V107.187Z" fill="#E7565E"/>
<path d="M36.4214 9.25586H46.295C46.295 9.25586 48.2317 9.30538 47.984 11.6356L40.6857 18.9809H46.209C46.209 18.9809 48.8885 18.6812 48.6409 21.4597H39.1635C39.1635 21.4597 37.1303 21.5588 37.0782 18.9809L44.4208 11.6826H38.9106C38.9106 11.6826 36.1242 11.6852 36.4214 9.25586Z" fill="white"/>
<path d="M54.1485 19.0798C53.4123 19.0798 52.6927 18.8615 52.0805 18.4525C51.4684 18.0436 50.9914 17.4622 50.7097 16.7821C50.428 16.102 50.3542 15.3536 50.4978 14.6315C50.6415 13.9095 50.996 13.2463 51.5165 12.7257C52.0371 12.2052 52.7003 11.8507 53.4223 11.707C54.1444 11.5634 54.8928 11.6371 55.5729 11.9189C56.2531 12.2006 56.8344 12.6777 57.2434 13.2898C57.6524 13.9019 57.8706 14.6215 57.8706 15.3577C57.8706 16.3449 57.4785 17.2916 56.7804 17.9897C56.0824 18.6877 55.1357 19.0798 54.1485 19.0798ZM60.3 15.3577C60.3 14.1404 59.939 12.9505 59.2626 11.9384C58.5863 10.9263 57.625 10.1375 56.5004 9.67182C55.3757 9.20611 54.1382 9.08439 52.9443 9.32206C51.7505 9.55972 50.6539 10.1461 49.7934 11.007C48.9328 11.8679 48.3469 12.9647 48.1098 14.1587C47.8726 15.3526 47.9948 16.5901 48.461 17.7146C48.9272 18.839 49.7164 19.8 50.7288 20.4759C51.7412 21.1518 52.9312 21.5123 54.1485 21.5118C54.9565 21.5118 55.7567 21.3526 56.5032 21.0433C57.2497 20.734 57.9279 20.2806 58.4992 19.7091C59.0704 19.1376 59.5234 18.4592 59.8324 17.7126C60.1414 16.9659 60.3003 16.1657 60.3 15.3577Z" fill="white"/>
<path d="M67.0614 19.0798C66.3252 19.0798 65.6056 18.8615 64.9935 18.4525C64.3814 18.0436 63.9043 17.4622 63.6225 16.7821C63.3408 16.102 63.2671 15.3536 63.4108 14.6315C63.5544 13.9095 63.9089 13.2463 64.4295 12.7257C64.95 12.2052 65.6132 11.8507 66.3352 11.7071C67.0573 11.5634 67.8056 11.6371 68.4858 11.9189C69.1659 12.2006 69.7472 12.6777 70.1562 13.2898C70.5652 13.9019 70.7836 14.6215 70.7836 15.3577C70.7839 15.8466 70.6878 16.3308 70.5009 16.7825C70.314 17.2342 70.0398 17.6447 69.6941 17.9904C69.3484 18.3361 68.938 18.6103 68.4862 18.7972C68.0345 18.9841 67.5503 19.0802 67.0614 19.0798ZM73.2155 15.3577C73.2155 14.1405 72.8546 12.9507 72.1784 11.9387C71.5021 10.9266 70.541 10.1379 69.4165 9.67207C68.292 9.20628 67.0545 9.08441 65.8608 9.32186C64.667 9.55932 63.5705 10.1454 62.7098 11.0061C61.8491 11.8668 61.2631 12.9633 61.0256 14.1571C60.7881 15.3509 60.91 16.5882 61.3758 17.7127C61.8416 18.8373 62.6304 19.7984 63.6424 20.4746C64.6544 21.1508 65.8442 21.5118 67.0614 21.5118C68.6915 21.509 70.2539 20.8593 71.4053 19.7054C72.5567 18.5515 73.2031 16.9878 73.2025 15.3577H73.2155Z" fill="white"/>
<path d="M73.7837 9.20651V21.4573C73.7837 21.4573 76.1166 21.903 76.2156 19.4216V14.1668C76.2156 14.1668 76.3147 11.6853 78.744 11.6358C78.744 11.6358 81.0768 11.7349 81.1758 14.0677V19.4763C81.1758 19.4763 81.3245 21.6606 83.7069 21.4625V14.1173C83.7069 14.1173 83.7564 11.4872 86.2378 11.6358C86.2378 11.6358 88.323 11.7844 88.469 13.7211V18.8377C88.469 18.8377 88.2709 21.7649 91 21.4677V13.9192C91 13.9192 90.8514 9.70176 86.4854 9.20651C86.4854 9.20651 83.7068 9.10746 82.3905 10.893C82.3905 10.893 79.4816 7.59566 76.0149 10.098C75.3921 9.55922 74.6063 9.24529 73.7837 9.20651Z" fill="white"/>
<path d="M30.6531 15.3265C30.6531 12.2952 29.7542 9.33201 28.0701 6.81157C26.386 4.29114 23.9923 2.3267 21.1917 1.16667C18.3912 0.0066407 15.3095 -0.296876 12.3365 0.294502C9.3634 0.885879 6.6325 2.34559 4.48905 4.48904C2.34559 6.6325 0.885887 9.36342 0.294509 12.3365C-0.296868 15.3095 0.00661932 18.3912 1.16665 21.1917C2.32668 23.9923 4.29116 26.386 6.81159 28.0701C9.33203 29.7542 12.2952 30.6531 15.3265 30.6531C19.3912 30.6524 23.2891 29.0374 26.1633 26.1633C29.0374 23.2891 30.6524 19.3912 30.6531 15.3265Z" fill="white"/>
<path d="M5.4165 9.74316H16.7029C16.7029 9.74316 19.4554 10.0195 19.5466 12.222V20.7558H8.62779C8.62779 20.7558 5.49991 21.1234 5.4165 17.9121V9.74316Z" fill="#008FF9"/>
<path d="M25.0515 9.74316V20.7689L20.1903 17.5446V13.0457L25.0515 9.74316Z" fill="#008FF9"/>
</svg>
