<svg width="33" height="32" viewBox="0 0 33 32" fill="none" xmlns="http://www.w3.org/2000/svg">
<circle cx="16.4" cy="16" r="16" fill="#3D3D3D"/>
<path d="M16.4 7.79489C14.1378 7.79489 12.2974 9.6353 12.2974 11.8975V14.359H11.4769C11.0417 14.359 10.6243 14.5319 10.3165 14.8396C10.0088 15.1474 9.83588 15.5648 9.83588 16V22.5641C9.83588 22.9994 10.0088 23.4168 10.3165 23.7245C10.6243 24.0323 11.0417 24.2051 11.4769 24.2051H21.3231C21.7583 24.2051 22.1757 24.0323 22.4834 23.7245C22.7912 23.4168 22.9641 22.9994 22.9641 22.5641V16C22.9641 15.5648 22.7912 15.1474 22.4834 14.8396C22.1757 14.5319 21.7583 14.359 21.3231 14.359H20.5025V11.8975C20.5025 9.6353 18.6621 7.79489 16.4 7.79489ZM13.9384 11.8975C13.9384 10.5403 15.0429 9.43592 16.4 9.43592C17.7571 9.43592 18.8615 10.5403 18.8615 11.8975V14.359H13.9384V11.8975ZM17.2205 20.6958V22.5641H15.5795V20.6958C15.2926 20.5315 15.0623 20.2842 14.9188 19.9864C14.7754 19.6885 14.7255 19.3542 14.7759 19.0275C14.8263 18.7008 14.9745 18.397 15.201 18.1563C15.4275 17.9155 15.7217 17.749 16.0447 17.6788C16.2846 17.6257 16.5334 17.6272 16.7727 17.6831C17.012 17.739 17.2357 17.8479 17.4272 18.0018C17.6188 18.1557 17.7734 18.3506 17.8797 18.5722C17.9859 18.7937 18.041 19.0363 18.041 19.2821C18.0405 19.569 17.9644 19.8508 17.8204 20.099C17.6763 20.3472 17.4694 20.5531 17.2205 20.6958Z" fill="white"/>
</svg>
