<svg width="33" height="32" viewBox="0 0 33 32" fill="none" xmlns="http://www.w3.org/2000/svg">
<circle cx="16.4" cy="16" r="16" fill="#C08D4C"/>
<path d="M20.7675 14.2042H13.3838V11.7429C13.3838 10.386 14.488 9.28167 15.845 9.28167C17.202 9.28167 18.3063 10.386 18.3063 11.7429H19.9471C19.9471 9.48103 18.1069 7.64084 15.845 7.64084C13.5831 7.64084 11.7429 9.48103 11.7429 11.7429V14.2042H10.9225C10.4873 14.2042 10.07 14.377 9.76227 14.6848C9.45455 14.9925 9.28168 15.4098 9.28168 15.845V22.4083C9.28168 22.8435 9.45455 23.2609 9.76227 23.5686C10.07 23.8763 10.4873 24.0492 10.9225 24.0492H20.7675C21.2027 24.0492 21.62 23.8763 21.9278 23.5686C22.2355 23.2609 22.4083 22.8435 22.4083 22.4083V15.845C22.4083 15.4098 22.2355 14.9925 21.9278 14.6848C21.62 14.377 21.2027 14.2042 20.7675 14.2042ZM14.2542 18.7156C14.3551 18.3296 14.593 17.9934 14.9236 17.77C15.2542 17.5465 15.6548 17.4511 16.0506 17.5014C16.4464 17.5518 16.8104 17.7445 17.0745 18.0436C17.3386 18.3426 17.4849 18.7277 17.4858 19.1267C17.4854 19.4136 17.4093 19.6953 17.2653 19.9435C17.1212 20.1917 16.9143 20.3975 16.6654 20.5403V22.4083H15.0246V20.5403C14.7142 20.3624 14.4707 20.0875 14.3315 19.7579C14.1924 19.4283 14.1652 19.0622 14.2542 18.7156V18.7156Z" fill="white"/>
</svg>
