<svg width="15" height="20" viewBox="0 0 15 20" fill="none" xmlns="http://www.w3.org/2000/svg">
<g clip-path="url(#clip0_845_377)">
<path d="M6.10445 5.73085V0.669312H13.5479C14.0429 0.669312 14.4411 1.06754 14.4411 1.56252V18.8313C14.4411 19.3263 14.0429 19.7245 13.5479 19.7245H1.04292C0.54793 19.7245 0.149706 19.3263 0.149706 18.8313V6.62406H5.21124C5.70251 6.62406 6.10445 6.22211 6.10445 5.73085ZM3.2592 13.5971L6.84768 17.1588C7.09518 17.4048 7.49489 17.4048 7.74238 17.1588L11.3309 13.5971C11.7086 13.2223 11.4436 12.5788 10.9122 12.5788H8.48635V9.60143C8.48635 9.27243 8.21988 9.00596 7.89088 9.00596H6.69993C6.37093 9.00596 6.10445 9.27243 6.10445 9.60143V12.5788H3.67864C3.14718 12.5788 2.88219 13.2223 3.2592 13.5971ZM0.410227 4.57712L4.05379 0.929832C4.22126 0.762354 4.44829 0.669312 4.68648 0.669312H4.9135V5.43311H0.149706V5.20609C0.149706 4.97162 0.242749 4.74459 0.410227 4.57712Z" fill="white"/>
</g>
<defs>
<clipPath id="clip0_845_377">
<rect width="14.2914" height="19.0552" fill="white" transform="matrix(-1 0 0 1 14.4411 0.669312)"/>
</clipPath>
</defs>
</svg>
