<svg width="41" height="47" viewBox="0 0 41 47" fill="none" xmlns="http://www.w3.org/2000/svg">
<g clip-path="url(#clip0_701_101)">
<path d="M40.7464 10.4877V37.2189C40.7464 38.9563 39.5098 40.3631 37.9825 40.3631H31.5308V22.5435L20.4737 31.9799L9.41658 22.5435V40.365H2.96478C2.60168 40.365 2.24214 40.2836 1.90671 40.1255C1.57127 39.9673 1.26651 39.7356 1.00984 39.4434C0.753174 39.1512 0.549626 38.8044 0.410829 38.4227C0.272032 38.041 0.200706 37.632 0.200928 37.2189V10.4877C0.200928 6.59976 4.10174 4.38 6.83518 6.71315L9.41658 8.91752L20.4737 18.35L31.5308 8.91368L34.1121 6.71315C36.8439 4.38192 40.7464 6.59976 40.7464 10.4877Z" fill="#F8F8F8"/>
</g>
<defs>
<clipPath id="clip0_701_101">
<rect width="40.5455" height="46.1248" fill="white" transform="translate(0.200928)"/>
</clipPath>
</defs>
</svg>
