<svg width="36" height="37" viewBox="0 0 36 37" fill="none" xmlns="http://www.w3.org/2000/svg">
<g clip-path="url(#clip0_701_105)">
<path d="M0.425835 4.0876V31.8492L21.1262 36.2775V0L0.425835 4.0876ZM10.8547 24.4248C4.2742 23.9918 4.95195 11.8902 11.0084 11.7941C17.4965 12.2316 16.86 24.3283 10.8547 24.4248ZM10.9496 14.1635C7.4828 14.4091 7.63802 21.9864 10.8961 22.0472C14.348 21.8202 14.1453 14.2224 10.9496 14.1635ZM24.6532 18.9896C24.9658 19.224 25.3423 18.9896 25.3423 18.9896C24.967 19.224 35.595 12.0217 35.595 12.0217V25.0639C35.595 26.4836 34.7042 27.079 33.7026 27.079H22.4336L22.4343 17.435L24.6532 18.9896ZM22.4348 7.69154V14.7876L24.8655 16.349C24.9296 16.3682 25.0685 16.3695 25.1326 16.349L35.5936 9.15348C35.5936 8.30195 34.815 7.69154 34.3756 7.69154H22.4348Z" fill="#F8F8F8"/>
</g>
<defs>
<clipPath id="clip0_701_105">
<rect width="35.2105" height="36.2775" fill="white" transform="translate(0.425835)"/>
</clipPath>
</defs>
</svg>
