<svg width="16" height="16" viewBox="0 0 16 16" fill="none" xmlns="http://www.w3.org/2000/svg">
<path d="M13.8774 7.14677L3.91431 2.16523C3.7799 2.10296 3.63205 2.07529 3.48422 2.08475C3.33639 2.09421 3.19327 2.14049 3.0679 2.21938C2.94252 2.29828 2.83887 2.40728 2.76638 2.53646C2.69388 2.66564 2.65485 2.8109 2.65283 2.95902V12.9178C2.65158 13.0698 2.68956 13.2196 2.76312 13.3527C2.83668 13.4858 2.94333 13.5976 3.07275 13.6774C3.20217 13.7572 3.34999 13.8023 3.50192 13.8083C3.65385 13.8143 3.80476 13.781 3.94005 13.7116L13.8774 8.73005C14.0246 8.65615 14.1483 8.54279 14.2348 8.40261C14.3213 8.26243 14.3671 8.10097 14.3671 7.93626C14.3671 7.77155 14.3213 7.61009 14.2348 7.46991C14.1483 7.32974 14.0246 7.21637 13.8774 7.14248V7.14677Z" fill="white"/>
</svg>
