<svg width="93" height="92" viewBox="0 0 93 92" fill="none" xmlns="http://www.w3.org/2000/svg">
<path d="M46.2738 86.0985C24.1555 86.0985 6.22126 68.1643 6.22126 46.046C6.22126 23.9277 24.1555 5.99342 46.2738 5.99342C68.3921 5.99343 86.3264 23.9277 86.3264 46.046C86.3264 68.1643 68.3921 86.0986 46.2738 86.0985ZM59.1568 45.4291L39.6312 31.223C39.5241 31.146 39.3979 31.1001 39.2665 31.0902C39.1351 31.0804 39.0034 31.1069 38.8861 31.167C38.7687 31.227 38.6702 31.3183 38.6014 31.4307C38.5325 31.5431 38.496 31.6723 38.4958 31.8041L38.4957 60.1985C38.4953 60.3306 38.5315 60.4602 38.6002 60.573C38.6689 60.6858 38.7675 60.7773 38.8851 60.8375C39.0027 60.8977 39.1346 60.9241 39.2663 60.9139C39.398 60.9037 39.5243 60.8572 39.6312 60.7796L59.1568 46.5824C59.249 46.5172 59.3243 46.4308 59.3762 46.3304C59.4281 46.2301 59.4553 46.1187 59.4553 46.0058C59.4553 45.8928 59.4281 45.7814 59.3762 45.6811C59.3243 45.5808 59.249 45.4943 59.1568 45.4291Z" fill="#CF0000" fill-opacity="0.4"/>
</svg>
