<svg width="33" height="32" viewBox="0 0 33 32" fill="none" xmlns="http://www.w3.org/2000/svg">
<circle cx="16.4" cy="16" r="16" fill="#C08D4C"/>
<path d="M21.3723 14.7938L14.2277 11.2215C14.1313 11.1769 14.0253 11.157 13.9193 11.1638C13.8133 11.1706 13.7106 11.2038 13.6207 11.2604C13.5308 11.3169 13.4565 11.3951 13.4045 11.4877C13.3525 11.5804 13.3245 11.6845 13.3231 11.7907V18.9323C13.3222 19.0413 13.3494 19.1487 13.4022 19.2442C13.4549 19.3396 13.5314 19.4198 13.6242 19.477C13.717 19.5343 13.823 19.5666 13.932 19.5709C14.0409 19.5752 14.1491 19.5513 14.2462 19.5015L21.3723 15.9292C21.4779 15.8762 21.5666 15.7949 21.6286 15.6944C21.6907 15.5939 21.7235 15.4781 21.7235 15.36C21.7235 15.2419 21.6907 15.1261 21.6286 15.0256C21.5666 14.925 21.4779 14.8437 21.3723 14.7907V14.7938Z" fill="white"/>
</svg>
