<svg width="47" height="44" viewBox="0 0 47 44" fill="none" xmlns="http://www.w3.org/2000/svg">
<path d="M22.3206 25.4232L29.9526 37.0152C32.2566 40.4712 32.1126 42.4872 26.1366 42.4872V43.9992H46.8726V42.4872C41.8326 42.4872 39.1686 40.3272 36.5046 36.2232L26.3526 20.8152L35.4966 8.57518C38.2326 4.90317 39.8886 2.31117 45.8646 2.31117V0.799174H28.7286V2.31117C34.7046 2.31117 35.0646 4.39918 32.5446 7.78317L24.6966 18.2952L17.7126 7.78317C15.4806 4.39918 15.9846 2.31117 21.9606 2.31117V0.799174H1.29662V2.31117C6.33662 2.31117 8.64062 4.61517 11.2326 8.57518L20.7366 22.9032L10.6566 36.2232C8.20862 39.4632 5.32862 42.4872 0.216621 42.4872V43.9992H17.4246V42.4872C11.4486 42.4872 11.3766 39.9672 13.6086 37.0152L22.3206 25.4232Z" fill="#EFC389"/>
</svg>
