<svg width="28" height="28" viewBox="0 0 28 28" fill="none" xmlns="http://www.w3.org/2000/svg">
<g clip-path="url(#clip0_818_116)">
<path d="M23.9567 4.07222C21.3626 1.43287 17.7768 0 14.1146 0C6.33254 0 0.0762828 6.25914 0.152517 13.8757C0.152517 16.2889 0.839174 18.6267 1.98367 20.7382L-6.10352e-05 27.9023L7.40059 26.017C9.46056 27.1482 11.7493 27.6761 14.0383 27.6761C21.7441 27.6761 28.0004 21.4169 28.0004 13.8004C28.0004 10.1052 26.5507 6.63622 23.9568 4.07222H23.9567ZM14.1146 25.3384C12.0546 25.3384 9.99463 24.8106 8.23982 23.7548L7.78209 23.5286L3.35699 24.6597L4.50138 20.3613L4.19622 19.9088C0.839174 14.5546 2.44141 7.46574 7.93466 4.14757C13.4279 0.829514 20.5234 2.41319 23.8805 7.84282C27.2374 13.2724 25.6352 20.2857 20.142 23.6039C18.3871 24.735 16.2509 25.3383 14.1146 25.3383V25.3384ZM20.8286 16.9678L19.9893 16.5907C19.9893 16.5907 18.7687 16.0628 18.0057 15.6857C17.9294 15.6857 17.8531 15.6103 17.7768 15.6103C17.5479 15.6103 17.3953 15.6857 17.2427 15.7612C17.2427 15.7612 17.1665 15.8366 16.0983 17.0431C16.022 17.194 15.8694 17.2694 15.7168 17.2694H15.6405C15.5642 17.2694 15.4117 17.194 15.3353 17.1186L14.9538 16.9678C14.1146 16.5907 13.3517 16.1382 12.7413 15.5349C12.5887 15.3841 12.3598 15.2333 12.2072 15.0825C11.6731 14.5546 11.139 13.9513 10.7576 13.2726L10.6813 13.1217C10.6051 13.0463 10.6051 12.9709 10.5287 12.8201C10.5287 12.6693 10.5287 12.5185 10.6051 12.443C10.6051 12.443 10.9102 12.066 11.139 11.8398C11.2917 11.6889 11.3679 11.4627 11.5205 11.3119C11.6731 11.0856 11.7494 10.784 11.6731 10.5577C11.5969 10.1807 10.6813 8.14455 10.4525 7.69211C10.2998 7.46584 10.1473 7.39049 9.9184 7.31503H9.07917C8.92648 7.31503 8.77401 7.39049 8.62132 7.39049L8.54498 7.46584C8.3924 7.5413 8.23982 7.69211 8.08724 7.76747C7.93466 7.91838 7.85832 8.06909 7.70574 8.22001C7.17166 8.89871 6.86651 9.72822 6.86651 10.5577C6.86651 11.161 7.01908 11.7643 7.24801 12.2922L7.32435 12.5185C8.01101 13.9513 8.92648 15.2333 10.1473 16.3644L10.4525 16.6661C10.6813 16.8923 10.9102 17.0431 11.0628 17.2693C12.665 18.6268 14.4961 19.6071 16.556 20.135C16.785 20.2104 17.0901 20.2104 17.319 20.2859H18.0819C18.4634 20.2859 18.9212 20.135 19.2264 19.9842C19.4553 19.8334 19.6078 19.8334 19.7604 19.6826L19.9131 19.5317C20.0657 19.3809 20.2183 19.3055 20.3708 19.1547C20.5234 19.0039 20.676 18.8531 20.7523 18.7022C20.9049 18.4006 20.9811 18.0235 21.0575 17.6465V17.1186C21.0575 17.1186 20.9811 17.0431 20.8286 16.9678Z" fill="white"/>
</g>
<defs>
<clipPath id="clip0_818_116">
<rect width="28" height="28" fill="white"/>
</clipPath>
</defs>
</svg>
