<svg width="24" height="24" viewBox="0 0 24 24" fill="none" xmlns="http://www.w3.org/2000/svg">
<path fill-rule="evenodd" clip-rule="evenodd" d="M24 11.6934C24 18.1478 18.7281 23.3814 12.219 23.3814C10.1551 23.3814 8.21168 22.8558 6.52555 21.9252L0 24L2.12409 17.7263C1.05109 15.9635 0.437956 13.8996 0.437956 11.6934C0.437956 5.23358 5.70985 0 12.219 0C18.7226 0 24 5.23358 24 11.6934ZM12.219 1.86131C6.75547 1.86131 2.31569 6.26825 2.31569 11.688C2.31569 13.8394 3.01642 15.8321 4.20438 17.4526L2.96715 21.104L6.7719 19.8942C8.33759 20.9179 10.2099 21.5201 12.2245 21.5201C17.688 21.5201 22.1277 17.1131 22.1277 11.6934C22.1223 6.26825 17.677 1.86131 12.219 1.86131ZM18.1697 14.3814C18.0985 14.2609 17.9015 14.1898 17.6168 14.0474C17.3266 13.9051 15.9088 13.2099 15.6405 13.1168C15.3777 13.0237 15.1807 12.9745 14.989 13.2591C14.7974 13.5438 14.2445 14.1898 14.0748 14.3814C13.9051 14.573 13.7409 14.5949 13.4507 14.4526C13.1606 14.3102 12.2299 14.0036 11.1296 13.0292C10.2701 12.2682 9.68978 11.3321 9.52007 11.042C9.35036 10.7573 9.50365 10.5985 9.64599 10.4562C9.77737 10.3248 9.93613 10.1223 10.0785 9.95255C10.2208 9.78285 10.2701 9.66241 10.3686 9.4708C10.4672 9.2792 10.4179 9.11496 10.3412 8.96715C10.2701 8.82482 9.68978 7.41241 9.4489 6.83759C9.20803 6.26277 8.96715 6.28467 8.79744 6.28467C8.62774 6.28467 8.31569 6.33394 8.31569 6.33394C8.31569 6.33394 7.7354 6.40511 7.47263 6.68978C7.20985 6.97445 6.45985 7.66971 6.45985 9.07664C6.45985 10.4891 7.49453 11.8522 7.63686 12.0383C7.7792 12.2299 9.63504 15.219 12.5693 16.3631C15.5036 17.5128 15.5036 17.1296 16.0347 17.0803C16.5657 17.031 17.7427 16.385 17.9836 15.7172C18.2409 15.0766 18.2409 14.5018 18.1697 14.3814Z" fill="#847DF4"/>
</svg>
